G04 EAGLE Gerber X2 export*
%TF.Part,Single*%
%TF.FileFunction,Copper,L1,Top,Mixed*%
%TF.FilePolarity,Positive*%
%TF.GenerationSoftware,Autodesk,EAGLE,8.6.3*%
%TF.CreationDate,2019-03-08T23:17:09Z*%
G75*
%MOMM*%
%FSLAX34Y34*%
%LPD*%
%AMOC8*
5,1,8,0,0,1.08239X$1,22.5*%
G01*
%ADD10R,2.400000X2.000000*%
%ADD11R,2.308000X0.500000*%
%ADD12R,1.200000X1.200000*%
%ADD13C,1.320800*%
%ADD14R,1.000000X1.100000*%
%ADD15R,0.762000X1.524000*%
%ADD16C,1.524000*%
%ADD17P,1.649562X8X22.500000*%
%ADD18C,1.524000*%
%ADD19C,1.320800*%
%ADD20R,0.300000X1.500000*%
%ADD21R,1.900000X1.300000*%
%ADD22C,0.152400*%
%ADD23C,0.756400*%
%ADD24C,2.286000*%


D10*
X564440Y118560D03*
D11*
X558800Y146560D03*
X558800Y154560D03*
X558800Y162560D03*
X558800Y170560D03*
X558800Y178560D03*
D10*
X619440Y118560D03*
X564440Y206560D03*
X619440Y206560D03*
D12*
X78740Y249260D03*
X78740Y228260D03*
X78740Y88560D03*
X78740Y109560D03*
D13*
X195580Y154940D03*
X195580Y203200D03*
D14*
X362340Y99060D03*
X379340Y99060D03*
X362340Y73660D03*
X379340Y73660D03*
D15*
X415290Y63500D03*
X415290Y119380D03*
X453390Y63500D03*
X453390Y119380D03*
D16*
X561340Y238760D03*
D17*
X586740Y238760D03*
X612140Y238760D03*
X561340Y264160D03*
X586740Y264160D03*
X612140Y264160D03*
D18*
X48260Y137160D02*
X33020Y137160D01*
X33020Y162560D02*
X48260Y162560D01*
X48260Y187960D02*
X33020Y187960D01*
X33020Y213360D02*
X48260Y213360D01*
D19*
X78740Y32004D02*
X78740Y18796D01*
X104140Y18796D02*
X104140Y32004D01*
X129540Y32004D02*
X129540Y18796D01*
X154940Y18796D02*
X154940Y32004D01*
X180340Y32004D02*
X180340Y18796D01*
X205740Y18796D02*
X205740Y32004D01*
X231140Y32004D02*
X231140Y18796D01*
X256540Y18796D02*
X256540Y32004D01*
X281940Y32004D02*
X281940Y18796D01*
X307340Y18796D02*
X307340Y32004D01*
X332740Y32004D02*
X332740Y18796D01*
X358140Y18796D02*
X358140Y32004D01*
X383540Y32004D02*
X383540Y18796D01*
X408940Y18796D02*
X408940Y32004D01*
X434340Y32004D02*
X434340Y18796D01*
X459740Y18796D02*
X459740Y32004D01*
X485140Y32004D02*
X485140Y18796D01*
X510540Y18796D02*
X510540Y32004D01*
X535940Y32004D02*
X535940Y18796D01*
X561340Y18796D02*
X561340Y32004D01*
X78740Y295656D02*
X78740Y308864D01*
X104140Y308864D02*
X104140Y295656D01*
X129540Y295656D02*
X129540Y308864D01*
X154940Y308864D02*
X154940Y295656D01*
X180340Y295656D02*
X180340Y308864D01*
X205740Y308864D02*
X205740Y295656D01*
X231140Y295656D02*
X231140Y308864D01*
X256540Y308864D02*
X256540Y295656D01*
X281940Y295656D02*
X281940Y308864D01*
X307340Y308864D02*
X307340Y295656D01*
X332740Y295656D02*
X332740Y308864D01*
X358140Y308864D02*
X358140Y295656D01*
X383540Y295656D02*
X383540Y308864D01*
X408940Y308864D02*
X408940Y295656D01*
X434340Y295656D02*
X434340Y308864D01*
X459740Y308864D02*
X459740Y295656D01*
X485140Y295656D02*
X485140Y308864D01*
X510540Y308864D02*
X510540Y295656D01*
X535940Y295656D02*
X535940Y308864D01*
X561340Y308864D02*
X561340Y295656D01*
D20*
G36*
X260670Y169602D02*
X262791Y167481D01*
X252186Y156876D01*
X250065Y158997D01*
X260670Y169602D01*
G37*
G36*
X264206Y166067D02*
X266327Y163946D01*
X255722Y153341D01*
X253601Y155462D01*
X264206Y166067D01*
G37*
G36*
X267741Y162531D02*
X269862Y160410D01*
X259257Y149805D01*
X257136Y151926D01*
X267741Y162531D01*
G37*
G36*
X271277Y158996D02*
X273398Y156875D01*
X262793Y146270D01*
X260672Y148391D01*
X271277Y158996D01*
G37*
G36*
X274812Y155460D02*
X276933Y153339D01*
X266328Y142734D01*
X264207Y144855D01*
X274812Y155460D01*
G37*
G36*
X278348Y151925D02*
X280469Y149804D01*
X269864Y139199D01*
X267743Y141320D01*
X278348Y151925D01*
G37*
G36*
X281884Y148389D02*
X284005Y146268D01*
X273400Y135663D01*
X271279Y137784D01*
X281884Y148389D01*
G37*
G36*
X285419Y144853D02*
X287540Y142732D01*
X276935Y132127D01*
X274814Y134248D01*
X285419Y144853D01*
G37*
G36*
X288955Y141318D02*
X291076Y139197D01*
X280471Y128592D01*
X278350Y130713D01*
X288955Y141318D01*
G37*
G36*
X292490Y137782D02*
X294611Y135661D01*
X284006Y125056D01*
X281885Y127177D01*
X292490Y137782D01*
G37*
G36*
X296026Y134247D02*
X298147Y132126D01*
X287542Y121521D01*
X285421Y123642D01*
X296026Y134247D01*
G37*
G36*
X299561Y130711D02*
X301682Y128590D01*
X291077Y117985D01*
X288956Y120106D01*
X299561Y130711D01*
G37*
G36*
X312998Y128590D02*
X315119Y130711D01*
X325724Y120106D01*
X323603Y117985D01*
X312998Y128590D01*
G37*
G36*
X316533Y132126D02*
X318654Y134247D01*
X329259Y123642D01*
X327138Y121521D01*
X316533Y132126D01*
G37*
G36*
X320069Y135661D02*
X322190Y137782D01*
X332795Y127177D01*
X330674Y125056D01*
X320069Y135661D01*
G37*
G36*
X323604Y139197D02*
X325725Y141318D01*
X336330Y130713D01*
X334209Y128592D01*
X323604Y139197D01*
G37*
G36*
X327140Y142732D02*
X329261Y144853D01*
X339866Y134248D01*
X337745Y132127D01*
X327140Y142732D01*
G37*
G36*
X330675Y146268D02*
X332796Y148389D01*
X343401Y137784D01*
X341280Y135663D01*
X330675Y146268D01*
G37*
G36*
X334211Y149804D02*
X336332Y151925D01*
X346937Y141320D01*
X344816Y139199D01*
X334211Y149804D01*
G37*
G36*
X337747Y153339D02*
X339868Y155460D01*
X350473Y144855D01*
X348352Y142734D01*
X337747Y153339D01*
G37*
G36*
X341282Y156875D02*
X343403Y158996D01*
X354008Y148391D01*
X351887Y146270D01*
X341282Y156875D01*
G37*
G36*
X344818Y160410D02*
X346939Y162531D01*
X357544Y151926D01*
X355423Y149805D01*
X344818Y160410D01*
G37*
G36*
X348353Y163946D02*
X350474Y166067D01*
X361079Y155462D01*
X358958Y153341D01*
X348353Y163946D01*
G37*
G36*
X351889Y167481D02*
X354010Y169602D01*
X364615Y158997D01*
X362494Y156876D01*
X351889Y167481D01*
G37*
G36*
X354010Y180918D02*
X351889Y183039D01*
X362494Y193644D01*
X364615Y191523D01*
X354010Y180918D01*
G37*
G36*
X350474Y184453D02*
X348353Y186574D01*
X358958Y197179D01*
X361079Y195058D01*
X350474Y184453D01*
G37*
G36*
X346939Y187989D02*
X344818Y190110D01*
X355423Y200715D01*
X357544Y198594D01*
X346939Y187989D01*
G37*
G36*
X343403Y191524D02*
X341282Y193645D01*
X351887Y204250D01*
X354008Y202129D01*
X343403Y191524D01*
G37*
G36*
X339868Y195060D02*
X337747Y197181D01*
X348352Y207786D01*
X350473Y205665D01*
X339868Y195060D01*
G37*
G36*
X336332Y198595D02*
X334211Y200716D01*
X344816Y211321D01*
X346937Y209200D01*
X336332Y198595D01*
G37*
G36*
X332796Y202131D02*
X330675Y204252D01*
X341280Y214857D01*
X343401Y212736D01*
X332796Y202131D01*
G37*
G36*
X329261Y205667D02*
X327140Y207788D01*
X337745Y218393D01*
X339866Y216272D01*
X329261Y205667D01*
G37*
G36*
X325725Y209202D02*
X323604Y211323D01*
X334209Y221928D01*
X336330Y219807D01*
X325725Y209202D01*
G37*
G36*
X322190Y212738D02*
X320069Y214859D01*
X330674Y225464D01*
X332795Y223343D01*
X322190Y212738D01*
G37*
G36*
X318654Y216273D02*
X316533Y218394D01*
X327138Y228999D01*
X329259Y226878D01*
X318654Y216273D01*
G37*
G36*
X315119Y219809D02*
X312998Y221930D01*
X323603Y232535D01*
X325724Y230414D01*
X315119Y219809D01*
G37*
G36*
X301682Y221930D02*
X299561Y219809D01*
X288956Y230414D01*
X291077Y232535D01*
X301682Y221930D01*
G37*
G36*
X298147Y218394D02*
X296026Y216273D01*
X285421Y226878D01*
X287542Y228999D01*
X298147Y218394D01*
G37*
G36*
X294611Y214859D02*
X292490Y212738D01*
X281885Y223343D01*
X284006Y225464D01*
X294611Y214859D01*
G37*
G36*
X291076Y211323D02*
X288955Y209202D01*
X278350Y219807D01*
X280471Y221928D01*
X291076Y211323D01*
G37*
G36*
X287540Y207788D02*
X285419Y205667D01*
X274814Y216272D01*
X276935Y218393D01*
X287540Y207788D01*
G37*
G36*
X284005Y204252D02*
X281884Y202131D01*
X271279Y212736D01*
X273400Y214857D01*
X284005Y204252D01*
G37*
G36*
X280469Y200716D02*
X278348Y198595D01*
X267743Y209200D01*
X269864Y211321D01*
X280469Y200716D01*
G37*
G36*
X276933Y197181D02*
X274812Y195060D01*
X264207Y205665D01*
X266328Y207786D01*
X276933Y197181D01*
G37*
G36*
X273398Y193645D02*
X271277Y191524D01*
X260672Y202129D01*
X262793Y204250D01*
X273398Y193645D01*
G37*
G36*
X269862Y190110D02*
X267741Y187989D01*
X257136Y198594D01*
X259257Y200715D01*
X269862Y190110D01*
G37*
G36*
X266327Y186574D02*
X264206Y184453D01*
X253601Y195058D01*
X255722Y197179D01*
X266327Y186574D01*
G37*
G36*
X262791Y183039D02*
X260670Y180918D01*
X250065Y191523D01*
X252186Y193644D01*
X262791Y183039D01*
G37*
D21*
X130300Y150300D03*
X130300Y205300D03*
X98300Y205300D03*
X98300Y150300D03*
D22*
X612648Y239268D02*
X612648Y263652D01*
X612648Y239268D02*
X612140Y238760D01*
X612648Y263652D02*
X612140Y264160D01*
X318516Y225552D02*
X313944Y220980D01*
X313944Y211836D01*
X335280Y190500D02*
X358140Y167640D01*
X335280Y190500D02*
X313944Y211836D01*
X358140Y167640D02*
X358140Y164592D01*
X318516Y225552D02*
X319361Y226172D01*
X358140Y164592D02*
X358252Y163239D01*
X576072Y163068D02*
X576072Y150876D01*
X573024Y147828D01*
X573024Y143256D01*
X571500Y141732D01*
X397764Y141732D01*
X376428Y163068D01*
X359664Y163068D01*
X358252Y163239D01*
X377952Y99060D02*
X365760Y86868D01*
X365760Y85344D01*
X377952Y99060D02*
X379340Y99060D01*
X289560Y140208D02*
X284988Y135636D01*
X289560Y140208D02*
X294132Y140208D01*
X304800Y129540D01*
X304800Y105156D01*
X271272Y71628D01*
X284713Y134955D02*
X284988Y135636D01*
D23*
X576072Y163068D03*
X365760Y85344D03*
X271272Y71628D03*
D22*
X329184Y239268D02*
X339852Y239268D01*
X329184Y239268D02*
X320040Y230124D01*
X320040Y227076D01*
X319361Y226172D01*
D23*
X339852Y239268D03*
D22*
X239268Y249936D02*
X239268Y202692D01*
X256032Y185928D01*
X256428Y187281D01*
X77724Y147828D02*
X77724Y109728D01*
X70104Y155448D02*
X48768Y176784D01*
X70104Y155448D02*
X77724Y147828D01*
X48768Y176784D02*
X28956Y176784D01*
X22860Y182880D01*
X22860Y196596D01*
X39624Y213360D01*
X77724Y109728D02*
X78740Y109560D01*
X40640Y213360D02*
X39624Y213360D01*
X54864Y227076D02*
X77724Y227076D01*
X54864Y227076D02*
X41148Y213360D01*
X77724Y227076D02*
X78740Y228260D01*
X41148Y213360D02*
X40640Y213360D01*
X219456Y249936D02*
X239268Y249936D01*
X219456Y249936D02*
X216408Y252984D01*
X158496Y252984D01*
X111252Y205740D01*
X111252Y196596D01*
X70104Y155448D01*
D23*
X335280Y190500D03*
X239268Y249936D03*
D22*
X216408Y68580D02*
X216408Y65532D01*
X216408Y68580D02*
X268224Y120396D01*
X268224Y132588D01*
X277368Y141732D01*
X277642Y142026D01*
X362712Y108204D02*
X362712Y99060D01*
X362712Y108204D02*
X365760Y111252D01*
X420624Y105156D02*
X438912Y105156D01*
X443484Y109728D02*
X452628Y118872D01*
X443484Y109728D02*
X438912Y105156D01*
X362712Y99060D02*
X362340Y99060D01*
X452628Y118872D02*
X453390Y119380D01*
X452628Y100584D02*
X452628Y64008D01*
X452628Y100584D02*
X443484Y109728D01*
X452628Y64008D02*
X453390Y63500D01*
X283464Y147828D02*
X278892Y143256D01*
X283464Y147828D02*
X295656Y147828D01*
X306324Y137160D01*
X278892Y143256D02*
X277642Y142026D01*
D23*
X216408Y65532D03*
X365760Y111252D03*
X420624Y105156D03*
X306324Y137160D03*
D22*
X559308Y170688D02*
X559308Y178308D01*
X559308Y170688D02*
X558800Y170560D01*
X559308Y178308D02*
X558800Y178560D01*
X557784Y179832D02*
X557784Y187452D01*
X548640Y196596D01*
X548640Y225552D01*
X560832Y237744D01*
X557784Y179832D02*
X558800Y178560D01*
X560832Y237744D02*
X561340Y238760D01*
X562356Y239268D02*
X562356Y263652D01*
X561340Y264160D01*
X562356Y239268D02*
X561340Y238760D01*
X370332Y143256D02*
X355092Y158496D01*
X370332Y143256D02*
X391668Y143256D01*
X414528Y120396D01*
X355092Y158496D02*
X354716Y159704D01*
X414528Y120396D02*
X415290Y119380D01*
X534924Y53340D02*
X534924Y25908D01*
X534924Y53340D02*
X534924Y57912D01*
X534924Y25908D02*
X535940Y25400D01*
X428244Y62484D02*
X416052Y62484D01*
X428244Y62484D02*
X437388Y53340D01*
X460248Y53340D02*
X534924Y53340D01*
X460248Y53340D02*
X437388Y53340D01*
X416052Y62484D02*
X415290Y63500D01*
X536448Y25908D02*
X560832Y25908D01*
X561340Y25400D01*
X536448Y25908D02*
X535940Y25400D01*
X438912Y120396D02*
X416052Y120396D01*
X438912Y120396D02*
X448056Y129540D01*
X458724Y129540D01*
X460248Y128016D01*
X460248Y53340D01*
X415290Y119380D02*
X416052Y120396D01*
X559308Y169164D02*
X583692Y169164D01*
X606552Y146304D01*
X606552Y131064D01*
X576072Y100584D01*
X576072Y99060D01*
X534924Y57912D01*
X559308Y169164D02*
X558800Y170560D01*
X534924Y59436D02*
X534924Y57912D01*
X280416Y137160D02*
X274320Y131064D01*
X274320Y126492D01*
X280416Y137160D02*
X281177Y138490D01*
X323088Y224028D02*
X332232Y233172D01*
X323088Y224028D02*
X322896Y222636D01*
X259080Y192024D02*
X246888Y204216D01*
X259080Y192024D02*
X259964Y190816D01*
X347472Y166116D02*
X353568Y160020D01*
X347472Y166116D02*
X347472Y169164D01*
X342900Y173736D01*
X353568Y160020D02*
X354716Y159704D01*
D23*
X534924Y59436D03*
X274320Y126492D03*
X332232Y233172D03*
X246888Y204216D03*
X342900Y173736D03*
D22*
X362712Y73152D02*
X365760Y73152D01*
X373380Y65532D01*
X391668Y65532D01*
X393192Y67056D01*
X486156Y67056D02*
X534924Y67056D01*
X569976Y102108D01*
X362712Y73152D02*
X362340Y73660D01*
D23*
X393192Y67056D03*
X486156Y67056D03*
X569976Y102108D03*
D22*
X379476Y85344D02*
X379476Y74676D01*
X379476Y85344D02*
X387096Y92964D01*
X387096Y108204D01*
X376428Y118872D01*
X332232Y163068D02*
X309372Y163068D01*
X271272Y201168D01*
X379476Y74676D02*
X379340Y73660D01*
X271272Y201168D02*
X270570Y201423D01*
D23*
X376428Y118872D03*
X332232Y163068D03*
D22*
X214884Y217932D02*
X214884Y245364D01*
X214884Y217932D02*
X239268Y193548D01*
X277368Y185928D02*
X281940Y185928D01*
X312420Y155448D01*
X336804Y155448D01*
X342900Y149352D01*
X344110Y149097D01*
D23*
X214884Y245364D03*
X239268Y193548D03*
X277368Y185928D03*
D22*
X419100Y152400D02*
X510540Y152400D01*
X516636Y146304D01*
X533400Y146304D02*
X557784Y146304D01*
X533400Y146304D02*
X516636Y146304D01*
X557784Y146304D02*
X558800Y146560D01*
X268224Y278892D02*
X268224Y289560D01*
X268224Y278892D02*
X272796Y274320D01*
X533400Y265176D02*
X533400Y146304D01*
X533400Y265176D02*
X542544Y274320D01*
D23*
X419100Y152400D03*
X268224Y289560D03*
X272796Y274320D03*
X542544Y274320D03*
D22*
X245364Y178308D02*
X176784Y246888D01*
X245364Y178308D02*
X284988Y178308D01*
X320040Y143256D01*
X403860Y173736D02*
X524256Y173736D01*
X530352Y179832D01*
X530352Y271272D01*
X539496Y280416D01*
X545592Y280416D01*
X548640Y277368D01*
X548640Y230124D01*
X544068Y225552D01*
X544068Y167640D01*
X548640Y163068D01*
X557784Y163068D01*
X558800Y162560D01*
D23*
X176784Y246888D03*
X320040Y143256D03*
X403860Y173736D03*
D22*
X539496Y152400D02*
X556260Y152400D01*
X557784Y153924D01*
X558800Y154560D01*
D23*
X539496Y152400D03*
D22*
X358140Y243840D02*
X330708Y216408D01*
X358140Y280416D02*
X358140Y302260D01*
X358140Y280416D02*
X358140Y243840D01*
X330708Y216408D02*
X329967Y215565D01*
X358140Y280416D02*
X368808Y280416D01*
D23*
X368808Y280416D03*
D22*
X356616Y233172D02*
X353568Y233172D01*
X333756Y213360D01*
X333503Y212030D01*
X382524Y259080D02*
X382524Y301752D01*
X382524Y259080D02*
X356616Y233172D01*
X382524Y301752D02*
X383540Y302260D01*
D23*
X356616Y233172D03*
D22*
X295656Y231648D02*
X295656Y227076D01*
X295656Y231648D02*
X303276Y239268D01*
X303276Y286512D01*
X291084Y298704D01*
X291084Y312420D01*
X284988Y318516D01*
X150876Y318516D01*
X138684Y306324D01*
X138684Y272796D01*
X54864Y188976D01*
X41148Y188976D01*
X295319Y226172D02*
X295656Y227076D01*
X41148Y188976D02*
X40640Y187960D01*
X327660Y219456D02*
X341376Y233172D01*
X342900Y233172D01*
X345948Y236220D01*
X345948Y242316D01*
X342900Y245364D01*
X330708Y245364D01*
X309372Y224028D01*
X309372Y184404D01*
X326432Y219101D02*
X327660Y219456D01*
D23*
X309372Y184404D03*
D22*
X458724Y135636D02*
X512064Y82296D01*
X458724Y135636D02*
X440436Y135636D01*
X91440Y236220D02*
X79248Y248412D01*
X78740Y249260D01*
D23*
X512064Y82296D03*
X440436Y135636D03*
X91440Y236220D03*
D22*
X438912Y179832D02*
X521208Y179832D01*
X438912Y179832D02*
X425196Y193548D01*
X370332Y193548D01*
X198120Y106680D02*
X181356Y106680D01*
X128016Y53340D01*
X114300Y53340D01*
X79248Y88392D01*
X78740Y88560D01*
D23*
X521208Y179832D03*
X370332Y193548D03*
X198120Y106680D03*
D22*
X463296Y188976D02*
X521208Y188976D01*
X463296Y188976D02*
X443484Y208788D01*
X385572Y231648D02*
X367284Y213360D01*
X259080Y158496D02*
X242316Y141732D01*
X259080Y158496D02*
X259964Y159704D01*
X109728Y25908D02*
X105156Y25908D01*
X109728Y25908D02*
X128016Y44196D01*
X149352Y44196D01*
X242316Y137160D01*
X242316Y141732D01*
X105156Y25908D02*
X104140Y25400D01*
D23*
X521208Y188976D03*
X443484Y208788D03*
X385572Y231648D03*
X367284Y213360D03*
X242316Y141732D03*
D22*
X271272Y149352D02*
X277368Y155448D01*
X277368Y161544D01*
X271272Y149352D02*
X270570Y149097D01*
X269748Y147828D02*
X260604Y138684D01*
X260604Y121920D01*
X295656Y86868D02*
X321564Y86868D01*
X356616Y85344D02*
X356616Y82296D01*
X353568Y79248D01*
X353568Y68580D01*
X364236Y57912D01*
X393192Y57912D01*
X269748Y147828D02*
X270570Y149097D01*
D23*
X277368Y161544D03*
X260604Y121920D03*
X295656Y86868D03*
X321564Y86868D03*
X356616Y85344D03*
X393192Y57912D03*
D22*
X283464Y155448D02*
X274320Y146304D01*
X283464Y155448D02*
X283464Y164592D01*
X272796Y175260D01*
X216408Y175260D01*
X196596Y155448D01*
X274106Y145562D02*
X274320Y146304D01*
X196596Y155448D02*
X195580Y154940D01*
X283464Y155448D02*
X297180Y155448D01*
X312420Y140208D01*
X312420Y132588D01*
X309372Y129540D01*
X309372Y123444D01*
X313944Y118872D01*
X411480Y83820D02*
X434340Y60960D01*
X443484Y60960D01*
D23*
X313944Y118872D03*
X411480Y83820D03*
X443484Y60960D03*
D22*
X478536Y231648D02*
X484632Y231648D01*
X545592Y292608D01*
X545592Y312420D01*
X539496Y318516D01*
X481584Y318516D01*
X469392Y306324D01*
X469392Y292608D01*
X393192Y216408D01*
X384048Y216408D01*
X269748Y169164D02*
X269748Y163068D01*
X263652Y156972D01*
X263499Y156168D01*
X111252Y150876D02*
X99060Y150876D01*
X111252Y150876D02*
X120396Y160020D01*
X176784Y160020D01*
X192024Y144780D01*
X231648Y144780D01*
X259080Y172212D01*
X266700Y172212D01*
X269748Y169164D01*
X99060Y150876D02*
X98300Y150300D01*
X129540Y25908D02*
X135636Y25908D01*
X257556Y147828D01*
X257556Y150876D01*
X262128Y155448D01*
X129540Y25908D02*
X129540Y25400D01*
X262128Y155448D02*
X263499Y156168D01*
D23*
X478536Y231648D03*
X384048Y216408D03*
X269748Y169164D03*
D22*
X266700Y152400D02*
X228600Y114300D01*
X228600Y86868D01*
X224028Y82296D02*
X201168Y59436D01*
X224028Y82296D02*
X228600Y86868D01*
X201168Y59436D02*
X187452Y59436D01*
X153924Y25908D01*
X266700Y152400D02*
X267035Y152633D01*
X154940Y25400D02*
X153924Y25908D01*
X222504Y83820D02*
X224028Y82296D01*
X129540Y64008D02*
X129540Y149352D01*
X129540Y64008D02*
X124968Y59436D01*
X129540Y149352D02*
X130300Y150300D01*
D23*
X222504Y83820D03*
X124968Y59436D03*
D22*
X240792Y147828D02*
X256032Y163068D01*
X240792Y147828D02*
X239268Y147828D01*
X204216Y112776D01*
X204216Y103632D01*
X147828Y47244D01*
X100584Y47244D01*
X78740Y25400D01*
X256032Y163068D02*
X256428Y163239D01*
X288036Y131064D02*
X222504Y65532D01*
X222504Y62484D01*
X185928Y25908D01*
X181356Y25908D01*
X288036Y131064D02*
X288248Y131419D01*
X181356Y25908D02*
X180340Y25400D01*
X205740Y41148D02*
X291084Y126492D01*
X205740Y41148D02*
X205740Y25400D01*
X291084Y126492D02*
X291784Y127884D01*
X294132Y123444D02*
X231648Y60960D01*
X231648Y25908D01*
X294132Y123444D02*
X295319Y124348D01*
X231648Y25908D02*
X231140Y25400D01*
X320040Y97536D02*
X320040Y123444D01*
X320040Y97536D02*
X327660Y89916D01*
X327660Y83820D01*
X284988Y41148D01*
X272796Y41148D01*
X257556Y25908D01*
X320040Y123444D02*
X319361Y124348D01*
X257556Y25908D02*
X256540Y25400D01*
X330708Y118872D02*
X323088Y126492D01*
X330708Y118872D02*
X330708Y74676D01*
X281940Y25908D01*
X323088Y126492D02*
X322896Y127884D01*
X281940Y25908D02*
X281940Y25400D01*
X333756Y124968D02*
X327660Y131064D01*
X333756Y124968D02*
X333756Y51816D01*
X307340Y25400D01*
X327660Y131064D02*
X326432Y131419D01*
X330708Y134112D02*
X336804Y128016D01*
X336804Y28956D01*
X333756Y25908D01*
X330708Y134112D02*
X329967Y134955D01*
X333756Y25908D02*
X332740Y25400D01*
X347472Y123444D02*
X333756Y137160D01*
X347472Y123444D02*
X347472Y36576D01*
X358140Y25908D01*
X333756Y137160D02*
X333503Y138490D01*
X358140Y25908D02*
X358140Y25400D01*
X345948Y134112D02*
X338328Y141732D01*
X345948Y134112D02*
X379476Y134112D01*
X399288Y114300D01*
X399288Y41148D01*
X383540Y25400D01*
X338328Y141732D02*
X337038Y142026D01*
X341376Y144780D02*
X348996Y137160D01*
X381000Y137160D01*
X402336Y115824D01*
X402336Y32004D01*
X408940Y25400D01*
X341376Y144780D02*
X340574Y145562D01*
X348996Y152400D02*
X361188Y140208D01*
X382524Y140208D01*
X405384Y117348D01*
X405384Y54864D01*
X434340Y25908D01*
X348996Y152400D02*
X347645Y152633D01*
X434340Y25908D02*
X434340Y25400D01*
X350520Y156972D02*
X342900Y164592D01*
X341376Y164592D01*
X373380Y128016D02*
X376428Y128016D01*
X373380Y128016D02*
X350520Y105156D01*
X350520Y65532D01*
X374904Y41148D01*
X351181Y156168D02*
X350520Y156972D01*
D23*
X341376Y164592D03*
X376428Y128016D03*
X374904Y41148D03*
D22*
X504444Y25908D02*
X510540Y25908D01*
X504444Y25908D02*
X481584Y48768D01*
X420624Y48768D01*
X510540Y25908D02*
X510540Y25400D01*
D23*
X420624Y48768D03*
D22*
X262128Y195072D02*
X252984Y204216D01*
X252984Y207264D01*
X245364Y214884D01*
X245364Y252984D01*
X214884Y283464D01*
X173736Y283464D01*
X154940Y302260D01*
X262128Y195072D02*
X263499Y194352D01*
X266700Y198120D02*
X248412Y216408D01*
X248412Y254508D01*
X216408Y286512D02*
X196596Y286512D01*
X181356Y301752D01*
X266700Y198120D02*
X267035Y197887D01*
X181356Y301752D02*
X180340Y302260D01*
X216408Y286512D02*
X248412Y254508D01*
X251460Y227076D02*
X272796Y205740D01*
X251460Y227076D02*
X251460Y256032D01*
X205740Y301752D01*
X272796Y205740D02*
X274106Y204958D01*
X205740Y301752D02*
X205740Y302260D01*
X254508Y231648D02*
X277368Y208788D01*
X254508Y231648D02*
X254508Y278892D01*
X231140Y302260D01*
X277368Y208788D02*
X277642Y208494D01*
X280416Y213360D02*
X257556Y236220D01*
X257556Y301752D01*
X280416Y213360D02*
X281177Y212030D01*
X257556Y301752D02*
X256540Y302260D01*
X278892Y220980D02*
X283464Y216408D01*
X278892Y220980D02*
X278892Y298704D01*
X281940Y301752D01*
X283464Y216408D02*
X284713Y215565D01*
X281940Y301752D02*
X281940Y302260D01*
X289560Y217932D02*
X294132Y213360D01*
X297180Y213360D01*
X306324Y222504D01*
X306324Y301752D01*
X288248Y219101D02*
X289560Y217932D01*
X306324Y301752D02*
X307340Y302260D01*
X286512Y228600D02*
X291084Y224028D01*
X286512Y228600D02*
X286512Y231648D01*
X297180Y242316D01*
X312420Y242316D02*
X312420Y281940D01*
X332740Y302260D01*
X291084Y224028D02*
X291784Y222636D01*
D23*
X297180Y242316D03*
X312420Y242316D03*
D22*
X338328Y208788D02*
X356616Y227076D01*
X359664Y227076D01*
X408432Y275844D01*
X408432Y301752D01*
X338328Y208788D02*
X337038Y208494D01*
X408432Y301752D02*
X408940Y302260D01*
X359664Y224028D02*
X341376Y205740D01*
X359664Y224028D02*
X361188Y224028D01*
X434340Y297180D01*
X434340Y302260D01*
X341376Y205740D02*
X340574Y204958D01*
X344424Y202692D02*
X428244Y286512D01*
X443484Y286512D01*
X458724Y301752D01*
X344424Y202692D02*
X344110Y201423D01*
X458724Y301752D02*
X459740Y302260D01*
X358140Y207264D02*
X348996Y198120D01*
X358140Y207264D02*
X390144Y207264D01*
X485140Y302260D01*
X348996Y198120D02*
X347645Y197887D01*
X350520Y193548D02*
X345948Y188976D01*
X345948Y184404D01*
X362712Y167640D01*
X446532Y167640D01*
X457200Y156972D01*
X515112Y156972D01*
X461772Y254508D02*
X510540Y303276D01*
X351181Y194352D02*
X350520Y193548D01*
X510540Y302260D02*
X510540Y303276D01*
D23*
X515112Y156972D03*
X461772Y254508D03*
D22*
X367284Y204216D02*
X355092Y192024D01*
X367284Y204216D02*
X420624Y204216D01*
X502920Y286512D01*
X519684Y286512D01*
X534924Y301752D01*
X355092Y192024D02*
X354716Y190816D01*
X534924Y301752D02*
X535940Y302260D01*
X422148Y187452D02*
X359664Y187452D01*
X422148Y187452D02*
X423672Y185928D01*
X426720Y201168D02*
X505968Y280416D01*
X359664Y187452D02*
X358252Y187281D01*
D23*
X423672Y185928D03*
X426720Y201168D03*
X505968Y280416D03*
D24*
X25400Y25400D03*
X622300Y25400D03*
X622300Y304800D03*
X25400Y304800D03*
M02*
