G04 EAGLE Gerber X2 export*
%TF.Part,Single*%
%TF.FileFunction,Copper,L2,Bot,Mixed*%
%TF.FilePolarity,Positive*%
%TF.GenerationSoftware,Autodesk,EAGLE,8.6.3*%
%TF.CreationDate,2019-03-08T23:17:09Z*%
G75*
%MOMM*%
%FSLAX34Y34*%
%LPD*%
%AMOC8*
5,1,8,0,0,1.08239X$1,22.5*%
G01*
%ADD10R,6.200000X5.400000*%
%ADD11R,1.600000X1.000000*%
%ADD12R,1.000000X1.100000*%
%ADD13R,1.500000X1.300000*%
%ADD14C,1.320800*%
%ADD15R,1.100000X1.000000*%
%ADD16C,1.524000*%
%ADD17P,1.649562X8X22.500000*%
%ADD18C,1.524000*%
%ADD19C,1.320800*%
%ADD20C,0.152400*%
%ADD21C,0.756400*%
%ADD22C,2.286000*%


D10*
X472040Y175260D03*
D11*
X399040Y152460D03*
X399040Y198060D03*
D12*
X205740Y65160D03*
X205740Y82160D03*
X281940Y65160D03*
X281940Y82160D03*
X256540Y65160D03*
X256540Y82160D03*
X523240Y242960D03*
X523240Y259960D03*
X497840Y242960D03*
X497840Y259960D03*
X472440Y242960D03*
X472440Y259960D03*
X447040Y242960D03*
X447040Y259960D03*
X285750Y272660D03*
X285750Y255660D03*
X309880Y272660D03*
X309880Y255660D03*
D13*
X332740Y273660D03*
X332740Y254660D03*
D12*
X261620Y271390D03*
X261620Y254390D03*
X180340Y65160D03*
X180340Y82160D03*
D13*
X355600Y254660D03*
X355600Y273660D03*
D12*
X332740Y65160D03*
X332740Y82160D03*
X307340Y65160D03*
X307340Y82160D03*
D14*
X195580Y154940D03*
X195580Y203200D03*
D12*
X214240Y264160D03*
X197240Y264160D03*
X159140Y264160D03*
X176140Y264160D03*
D15*
X497840Y82160D03*
X497840Y65160D03*
X523240Y82160D03*
X523240Y65160D03*
X548640Y82160D03*
X548640Y65160D03*
X574040Y82160D03*
X574040Y65160D03*
D16*
X561340Y238760D03*
D17*
X586740Y238760D03*
X612140Y238760D03*
X561340Y264160D03*
X586740Y264160D03*
X612140Y264160D03*
D18*
X48260Y137160D02*
X33020Y137160D01*
X33020Y162560D02*
X48260Y162560D01*
X48260Y187960D02*
X33020Y187960D01*
X33020Y213360D02*
X48260Y213360D01*
D19*
X78740Y32004D02*
X78740Y18796D01*
X104140Y18796D02*
X104140Y32004D01*
X129540Y32004D02*
X129540Y18796D01*
X154940Y18796D02*
X154940Y32004D01*
X180340Y32004D02*
X180340Y18796D01*
X205740Y18796D02*
X205740Y32004D01*
X231140Y32004D02*
X231140Y18796D01*
X256540Y18796D02*
X256540Y32004D01*
X281940Y32004D02*
X281940Y18796D01*
X307340Y18796D02*
X307340Y32004D01*
X332740Y32004D02*
X332740Y18796D01*
X358140Y18796D02*
X358140Y32004D01*
X383540Y32004D02*
X383540Y18796D01*
X408940Y18796D02*
X408940Y32004D01*
X434340Y32004D02*
X434340Y18796D01*
X459740Y18796D02*
X459740Y32004D01*
X485140Y32004D02*
X485140Y18796D01*
X510540Y18796D02*
X510540Y32004D01*
X535940Y32004D02*
X535940Y18796D01*
X561340Y18796D02*
X561340Y32004D01*
X78740Y295656D02*
X78740Y308864D01*
X104140Y308864D02*
X104140Y295656D01*
X129540Y295656D02*
X129540Y308864D01*
X154940Y308864D02*
X154940Y295656D01*
X180340Y295656D02*
X180340Y308864D01*
X205740Y308864D02*
X205740Y295656D01*
X231140Y295656D02*
X231140Y308864D01*
X256540Y308864D02*
X256540Y295656D01*
X281940Y295656D02*
X281940Y308864D01*
X307340Y308864D02*
X307340Y295656D01*
X332740Y295656D02*
X332740Y308864D01*
X358140Y308864D02*
X358140Y295656D01*
X383540Y295656D02*
X383540Y308864D01*
X408940Y308864D02*
X408940Y295656D01*
X434340Y295656D02*
X434340Y308864D01*
X459740Y308864D02*
X459740Y295656D01*
X485140Y295656D02*
X485140Y308864D01*
X510540Y308864D02*
X510540Y295656D01*
X535940Y295656D02*
X535940Y308864D01*
X561340Y308864D02*
X561340Y295656D01*
D20*
X611124Y237744D02*
X611124Y230124D01*
X573024Y192024D01*
X573024Y166116D01*
X576072Y163068D01*
X611124Y237744D02*
X612140Y238760D01*
X332232Y65532D02*
X307848Y65532D01*
X307340Y65160D01*
X332232Y65532D02*
X332740Y65160D01*
X345948Y65532D02*
X365760Y85344D01*
X345948Y65532D02*
X333756Y65532D01*
X332740Y65160D01*
X281940Y65532D02*
X271272Y65532D01*
X257556Y65532D01*
X256540Y65160D01*
X271272Y65532D02*
X271272Y71628D01*
X281940Y65532D02*
X306324Y65532D01*
X307340Y65160D01*
X281940Y65160D02*
X281940Y65532D01*
D21*
X576072Y163068D03*
X365760Y85344D03*
X271272Y71628D03*
D20*
X339852Y239268D02*
X355092Y254508D01*
X355600Y254660D01*
D21*
X339852Y239268D03*
D20*
X391668Y198120D02*
X397764Y198120D01*
X391668Y198120D02*
X370332Y219456D01*
X364236Y219456D01*
X335280Y190500D01*
X397764Y198120D02*
X399040Y198060D01*
X192024Y65532D02*
X181356Y65532D01*
X192024Y65532D02*
X199644Y73152D01*
X211836Y73152D01*
X216408Y77724D01*
X216408Y86868D01*
X219456Y89916D01*
X231648Y89916D01*
X256032Y65532D01*
X181356Y65532D02*
X180340Y65160D01*
X256032Y65532D02*
X256540Y65160D01*
X324612Y190500D02*
X335280Y190500D01*
X324612Y190500D02*
X281940Y147828D01*
X230124Y147828D01*
X192024Y109728D01*
X192024Y80772D01*
X199644Y73152D01*
X239268Y249936D02*
X260604Y271272D01*
X261620Y271390D01*
X192024Y109728D02*
X144780Y109728D01*
X41148Y213360D01*
X40640Y213360D01*
D21*
X335280Y190500D03*
X239268Y249936D03*
D20*
X216408Y65532D02*
X205740Y65532D01*
X205740Y65160D01*
X365760Y111252D02*
X370332Y111252D01*
X376428Y105156D01*
X420624Y105156D01*
X313944Y137160D02*
X306324Y137160D01*
X313944Y137160D02*
X339852Y111252D01*
X365760Y111252D01*
D21*
X216408Y65532D03*
X365760Y111252D03*
X420624Y105156D03*
X306324Y137160D03*
D20*
X478536Y25908D02*
X484632Y25908D01*
X478536Y25908D02*
X457200Y47244D01*
X431292Y47244D01*
X423672Y54864D01*
X399288Y54864D01*
X396240Y51816D01*
X230124Y51816D01*
X216408Y65532D01*
X484632Y25908D02*
X485140Y25400D01*
X472440Y260604D02*
X448056Y260604D01*
X447040Y259960D01*
X472440Y259960D02*
X472440Y260604D01*
X472440Y259080D02*
X484632Y259080D01*
X492252Y251460D01*
X495300Y251460D02*
X548640Y251460D01*
X495300Y251460D02*
X492252Y251460D01*
X548640Y251460D02*
X561340Y238760D01*
X472440Y259080D02*
X472440Y259960D01*
X470916Y199644D02*
X470916Y175260D01*
X470916Y199644D02*
X435864Y234696D01*
X435864Y251460D01*
X443484Y259080D01*
X446532Y259080D01*
X470916Y175260D02*
X472040Y175260D01*
X446532Y259080D02*
X447040Y259960D01*
X524256Y64008D02*
X530352Y64008D01*
X534924Y59436D01*
X524256Y64008D02*
X523240Y65160D01*
X281940Y82296D02*
X257556Y82296D01*
X281940Y82296D02*
X281940Y82160D01*
X257556Y82296D02*
X256540Y82160D01*
X307848Y80772D02*
X332232Y80772D01*
X307848Y80772D02*
X307340Y82160D01*
X332232Y80772D02*
X332740Y82160D01*
X274320Y117348D02*
X274320Y126492D01*
X274320Y117348D02*
X306324Y85344D01*
X306324Y82296D01*
X307340Y82160D01*
X306324Y80772D02*
X281940Y80772D01*
X281940Y82160D01*
X306324Y80772D02*
X307340Y82160D01*
X310896Y256032D02*
X332232Y256032D01*
X310896Y256032D02*
X309880Y255660D01*
X332232Y256032D02*
X332740Y254660D01*
X332232Y254508D02*
X332232Y233172D01*
X332232Y254508D02*
X332740Y254660D01*
X350520Y272796D02*
X355092Y272796D01*
X350520Y272796D02*
X333756Y256032D01*
X355092Y272796D02*
X355600Y273660D01*
X333756Y256032D02*
X332740Y254660D01*
X284988Y254508D02*
X262128Y254508D01*
X261620Y254390D01*
X284988Y254508D02*
X285750Y255660D01*
X246888Y239268D02*
X246888Y204216D01*
X246888Y239268D02*
X260604Y252984D01*
X261620Y254390D01*
X105156Y298704D02*
X105156Y301752D01*
X105156Y298704D02*
X164592Y239268D01*
X246888Y239268D01*
X105156Y301752D02*
X104140Y302260D01*
X286512Y256032D02*
X309372Y256032D01*
X309880Y255660D01*
X286512Y256032D02*
X285750Y255660D01*
X286512Y126492D02*
X274320Y126492D01*
X286512Y126492D02*
X338328Y178308D01*
X342900Y178308D02*
X396240Y178308D01*
X342900Y178308D02*
X338328Y178308D01*
X396240Y178308D02*
X409956Y192024D01*
X409956Y219456D01*
X342900Y178308D02*
X342900Y173736D01*
D21*
X534924Y59436D03*
X274320Y126492D03*
X332232Y233172D03*
X246888Y204216D03*
X342900Y173736D03*
D20*
X495300Y251460D02*
X497840Y254000D01*
X498348Y260604D02*
X522732Y260604D01*
X498348Y260604D02*
X497840Y259960D01*
X522732Y260604D02*
X523240Y259960D01*
X497840Y259960D02*
X497840Y254000D01*
X216408Y92964D02*
X205740Y82296D01*
X216408Y92964D02*
X245364Y92964D01*
X256032Y82296D01*
X205740Y82296D02*
X205740Y82160D01*
X256032Y82296D02*
X256540Y82160D01*
X377952Y251460D02*
X435864Y251460D01*
X377952Y251460D02*
X356616Y272796D01*
X355600Y273660D01*
X393192Y67056D02*
X486156Y67056D01*
X569976Y102108D02*
X569976Y207264D01*
X597408Y234696D01*
X597408Y252984D01*
X586740Y263652D01*
X586740Y264160D01*
D21*
X393192Y67056D03*
X486156Y67056D03*
X569976Y102108D03*
D20*
X202692Y269748D02*
X198120Y265176D01*
X202692Y269748D02*
X202692Y271272D01*
X214884Y283464D01*
X277368Y283464D01*
X280416Y286512D01*
X374904Y286512D01*
X393192Y268224D01*
X542544Y268224D01*
X560832Y249936D01*
X576072Y249936D01*
X586740Y239268D01*
X198120Y265176D02*
X197240Y264160D01*
X586740Y239268D02*
X586740Y238760D01*
X376428Y118872D02*
X332232Y163068D01*
D21*
X376428Y118872D03*
X332232Y163068D03*
D20*
X214884Y245364D02*
X214884Y263652D01*
X239268Y193548D02*
X269748Y193548D01*
X277368Y185928D01*
X214884Y263652D02*
X214240Y264160D01*
D21*
X214884Y245364D03*
X239268Y193548D03*
X277368Y185928D03*
D20*
X286512Y272796D02*
X309372Y272796D01*
X286512Y272796D02*
X285750Y272660D01*
X309372Y272796D02*
X309880Y272660D01*
X310896Y272796D02*
X332232Y272796D01*
X332740Y273660D01*
X310896Y272796D02*
X309880Y272660D01*
X399288Y152400D02*
X419100Y152400D01*
X399288Y152400D02*
X399040Y152460D01*
X135636Y301752D02*
X129540Y301752D01*
X135636Y301752D02*
X150876Y286512D01*
X265176Y286512D01*
X268224Y289560D01*
X272796Y274320D02*
X283464Y274320D01*
X284988Y272796D01*
X129540Y301752D02*
X129540Y302260D01*
X284988Y272796D02*
X285750Y272660D01*
X391668Y274320D02*
X542544Y274320D01*
X391668Y274320D02*
X367284Y298704D01*
X367284Y312420D01*
X361188Y318516D01*
X278892Y318516D01*
X268224Y307848D01*
X268224Y289560D01*
D21*
X419100Y152400D03*
X268224Y289560D03*
X272796Y274320D03*
X542544Y274320D03*
D20*
X176784Y263652D02*
X176784Y246888D01*
X320040Y143256D02*
X342900Y143256D01*
X373380Y112776D01*
X379476Y112776D01*
X388620Y121920D01*
X388620Y158496D01*
X403860Y173736D01*
X176784Y263652D02*
X176140Y264160D01*
D21*
X176784Y246888D03*
X320040Y143256D03*
X403860Y173736D03*
D20*
X498348Y65532D02*
X509016Y65532D01*
X518160Y74676D01*
X530352Y74676D01*
X539496Y83820D01*
X539496Y152400D01*
X498348Y65532D02*
X497840Y65160D01*
D21*
X539496Y152400D03*
D20*
X163068Y265176D02*
X160020Y265176D01*
X163068Y265176D02*
X170688Y272796D01*
X181356Y272796D01*
X188976Y265176D01*
X188976Y257556D01*
X190500Y256032D01*
X204216Y256032D01*
X205740Y257556D01*
X205740Y269748D01*
X216408Y280416D01*
X278892Y280416D01*
X281940Y283464D01*
X365760Y283464D01*
X368808Y280416D01*
X160020Y265176D02*
X159140Y264160D01*
D21*
X368808Y280416D03*
D20*
X496824Y88392D02*
X496824Y82296D01*
X496824Y88392D02*
X416052Y169164D01*
X416052Y222504D01*
X413004Y225552D01*
X379476Y225552D01*
X371856Y233172D01*
X356616Y233172D01*
X496824Y82296D02*
X497840Y82160D01*
D21*
X356616Y233172D03*
D20*
X179832Y82296D02*
X115824Y82296D01*
X60960Y137160D01*
X40640Y137160D01*
X179832Y82296D02*
X180340Y82160D01*
X280416Y155448D02*
X309372Y184404D01*
X280416Y155448D02*
X208788Y155448D01*
X140208Y224028D01*
X28956Y224028D01*
X22860Y217932D01*
X22860Y179832D01*
X39624Y163068D01*
X40640Y162560D01*
D21*
X309372Y184404D03*
D20*
X512064Y82296D02*
X522732Y82296D01*
X440436Y135636D02*
X440436Y140208D01*
X413004Y167640D01*
X413004Y220980D01*
X411480Y222504D01*
X377952Y222504D01*
X374904Y225552D01*
X277368Y225552D01*
X249936Y198120D01*
X243840Y198120D01*
X205740Y236220D01*
X91440Y236220D01*
X522732Y82296D02*
X523240Y82160D01*
D21*
X512064Y82296D03*
X440436Y135636D03*
X91440Y236220D03*
D20*
X548640Y152400D02*
X548640Y82160D01*
X548640Y152400D02*
X521208Y179832D01*
X370332Y193548D02*
X352044Y193548D01*
X339852Y181356D01*
X324612Y181356D01*
X275844Y132588D01*
X224028Y132588D01*
X198120Y106680D01*
D21*
X521208Y179832D03*
X370332Y193548D03*
X198120Y106680D03*
D20*
X548640Y65532D02*
X557784Y74676D01*
X557784Y152400D01*
X521208Y188976D01*
X443484Y208788D02*
X434340Y208788D01*
X411480Y231648D01*
X385572Y231648D01*
X367284Y213360D02*
X338328Y184404D01*
X323088Y184404D01*
X280416Y141732D01*
X242316Y141732D01*
X548640Y65532D02*
X548640Y65160D01*
D21*
X521208Y188976D03*
X443484Y208788D03*
X385572Y231648D03*
X367284Y213360D03*
X242316Y141732D03*
D20*
X237744Y161544D02*
X277368Y161544D01*
X237744Y161544D02*
X196596Y202692D01*
X195580Y203200D01*
X524256Y204216D02*
X524256Y242316D01*
X524256Y204216D02*
X563880Y164592D01*
X563880Y91440D01*
X573024Y82296D01*
X524256Y242316D02*
X523240Y242960D01*
X573024Y82296D02*
X574040Y82160D01*
X295656Y86868D02*
X260604Y121920D01*
X321564Y86868D02*
X326136Y91440D01*
X350520Y91440D01*
X356616Y85344D01*
X393192Y57912D02*
X437388Y57912D01*
X445008Y50292D01*
X573024Y50292D01*
X582168Y59436D01*
X582168Y73152D01*
X574548Y80772D01*
X574040Y82160D01*
D21*
X277368Y161544D03*
X260604Y121920D03*
X295656Y86868D03*
X321564Y86868D03*
X356616Y85344D03*
X393192Y57912D03*
D20*
X498348Y225552D02*
X498348Y242316D01*
X498348Y225552D02*
X560832Y163068D01*
X560832Y77724D01*
X568452Y70104D02*
X573024Y65532D01*
X568452Y70104D02*
X560832Y77724D01*
X498348Y242316D02*
X497840Y242960D01*
X573024Y65532D02*
X574040Y65160D01*
X327660Y118872D02*
X313944Y118872D01*
X327660Y118872D02*
X355092Y91440D01*
X403860Y91440D01*
X411480Y83820D01*
X443484Y60960D02*
X487680Y60960D01*
X495300Y53340D01*
X551688Y53340D01*
X568452Y70104D01*
D21*
X313944Y118872D03*
X411480Y83820D03*
X443484Y60960D03*
D20*
X472440Y237744D02*
X472440Y242960D01*
X472440Y237744D02*
X478536Y231648D01*
X384048Y216408D02*
X379476Y216408D01*
X373380Y222504D01*
X323088Y222504D01*
X269748Y169164D01*
D21*
X478536Y231648D03*
X384048Y216408D03*
X269748Y169164D03*
D20*
X448056Y242316D02*
X484632Y205740D01*
X502920Y205740D01*
X505968Y202692D01*
X505968Y76200D01*
X502920Y73152D01*
X358140Y73152D01*
X341376Y56388D01*
X249936Y56388D01*
X222504Y83820D01*
X447040Y242960D02*
X448056Y242316D01*
X124968Y59436D02*
X124968Y54864D01*
X153924Y25908D01*
X154940Y25400D01*
D21*
X222504Y83820D03*
X124968Y59436D03*
D20*
X341376Y164592D02*
X376428Y129540D01*
X376428Y128016D01*
X374904Y41148D02*
X443484Y41148D01*
X458724Y25908D01*
X459740Y25400D01*
D21*
X341376Y164592D03*
X376428Y128016D03*
X374904Y41148D03*
D20*
X420624Y48768D02*
X144780Y48768D01*
X67056Y126492D01*
X28956Y126492D01*
X19812Y135636D01*
X19812Y243840D01*
X77724Y301752D01*
X78740Y302260D01*
D21*
X420624Y48768D03*
D20*
X312420Y242316D02*
X297180Y242316D01*
D21*
X297180Y242316D03*
X312420Y242316D03*
D20*
X515112Y204216D02*
X515112Y156972D01*
X515112Y204216D02*
X480060Y239268D01*
X480060Y249936D01*
X478536Y251460D01*
X464820Y251460D01*
X461772Y254508D01*
D21*
X515112Y156972D03*
X461772Y254508D03*
D20*
X423672Y198120D02*
X423672Y185928D01*
X423672Y198120D02*
X426720Y201168D01*
X505968Y280416D02*
X539496Y280416D01*
X561340Y302260D01*
D21*
X423672Y185928D03*
X426720Y201168D03*
X505968Y280416D03*
D22*
X25400Y25400D03*
X622300Y25400D03*
X622300Y304800D03*
X25400Y304800D03*
M02*
