M48
;GenerationSoftware,Autodesk,EAGLE,8.6.3*%
;CreationDate,2019-03-08T23:17:09Z*%
FMAT,2
ICI,OFF
METRIC,TZ,000.000
T5C0.350
T4C0.813
T3C1.000
T2C1.016
T1C1.524
%
G90
M71
T1
X2540Y2540
X62230Y2540
X62230Y30480
X2540Y30480
T2
X61214Y26416
X61214Y23876
X4064Y16256
X4064Y18796
X56134Y23876
X58674Y23876
X56134Y26416
X58674Y26416
X4064Y21336
X4064Y13716
T3
X58944Y14056
X58944Y18456
T4
X19558Y15494
X19558Y20320
X15494Y30226
X7874Y2540
X10414Y2540
X12954Y2540
X15494Y2540
X18034Y2540
X20574Y2540
X23114Y2540
X25654Y2540
X28194Y2540
X30734Y2540
X33274Y2540
X35814Y2540
X38354Y2540
X40894Y2540
X43434Y2540
X45974Y2540
X48514Y2540
X51054Y2540
X53594Y2540
X56134Y2540
X7874Y30226
X10414Y30226
X12954Y30226
X18034Y30226
X20574Y30226
X23114Y30226
X25654Y30226
X28194Y30226
X30734Y30226
X33274Y30226
X35814Y30226
X38354Y30226
X40894Y30226
X43434Y30226
X45974Y30226
X48514Y30226
X51054Y30226
X53594Y30226
X56134Y30226
T5
X12497Y5944
X34138Y16459
X37643Y12802
X37490Y4115
X42062Y4877
X29718Y24232
X48616Y6706
X51511Y15697
X46177Y25451
X42367Y18593
X42672Y20117
X50597Y28042
X57607Y16307
X36576Y8534
X27127Y7163
X33985Y23927
X33528Y19050
X23927Y24994
X21641Y6553
X36576Y11125
X42062Y10516
X30632Y13716
X31242Y24232
X53492Y5944
X27432Y12649
X33223Y23317
X24689Y20422
X34290Y17374
X39319Y6706
X56998Y10211
X37643Y11887
X33223Y16307
X21488Y24536
X23927Y19355
X27737Y18593
X41910Y15240
X26822Y28956
X27280Y27432
X54254Y27432
X17678Y24689
X32004Y14326
X40386Y17374
X53950Y15240
X36881Y28042
X35662Y23317
X30937Y18440
X51206Y8230
X44044Y13564
X9144Y23622
X52121Y17983
X37033Y19355
X19812Y10668
X52121Y18898
X32156Y8687
X44348Y20879
X38557Y23165
X36728Y21336
X24232Y14173
X27737Y16154
X26060Y12192
X29566Y8687
X35662Y8534
X39319Y5791
X31394Y11887
X41148Y8382
X44348Y6096
X47854Y23165
X38405Y21641
X26975Y16916
X22250Y8382
M30