G04 EAGLE Gerber X2 export*
%TF.Part,Single*%
%TF.FileFunction,Legend,Top,1*%
%TF.FilePolarity,Positive*%
%TF.GenerationSoftware,Autodesk,EAGLE,8.6.3*%
%TF.CreationDate,2019-03-08T23:17:09Z*%
G75*
%MOMM*%
%FSLAX34Y34*%
%LPD*%
%AMOC8*
5,1,8,0,0,1.08239X$1,22.5*%
G01*
%ADD10C,0.127000*%
%ADD11C,0.101600*%
%ADD12R,0.200000X0.200000*%
%ADD13C,0.406400*%
%ADD14C,0.152400*%
%ADD15C,0.203200*%
%ADD16C,0.100000*%
%ADD17C,0.500000*%


D10*
X553440Y123560D02*
X553440Y201560D01*
X645440Y201560D02*
X645440Y123560D01*
X605440Y123560D02*
X578440Y123560D01*
X578440Y201560D02*
X605440Y201560D01*
X553440Y141560D02*
X553440Y130560D01*
X553440Y183560D02*
X553440Y194560D01*
D11*
X545432Y135161D02*
X545432Y132564D01*
X545430Y132465D01*
X545424Y132365D01*
X545415Y132266D01*
X545402Y132168D01*
X545385Y132070D01*
X545364Y131972D01*
X545339Y131876D01*
X545311Y131781D01*
X545279Y131687D01*
X545244Y131594D01*
X545205Y131502D01*
X545162Y131412D01*
X545117Y131324D01*
X545067Y131237D01*
X545015Y131153D01*
X544959Y131070D01*
X544901Y130990D01*
X544839Y130912D01*
X544774Y130837D01*
X544706Y130764D01*
X544636Y130694D01*
X544563Y130626D01*
X544488Y130561D01*
X544410Y130499D01*
X544330Y130441D01*
X544247Y130385D01*
X544163Y130333D01*
X544076Y130283D01*
X543988Y130238D01*
X543898Y130195D01*
X543806Y130156D01*
X543713Y130121D01*
X543619Y130089D01*
X543524Y130061D01*
X543428Y130036D01*
X543330Y130015D01*
X543232Y129998D01*
X543134Y129985D01*
X543035Y129976D01*
X542935Y129970D01*
X542836Y129968D01*
X536344Y129968D01*
X536245Y129970D01*
X536145Y129976D01*
X536046Y129985D01*
X535948Y129998D01*
X535850Y130016D01*
X535752Y130036D01*
X535656Y130061D01*
X535560Y130089D01*
X535466Y130121D01*
X535373Y130156D01*
X535282Y130195D01*
X535192Y130238D01*
X535103Y130283D01*
X535017Y130333D01*
X534932Y130385D01*
X534850Y130441D01*
X534770Y130500D01*
X534692Y130561D01*
X534616Y130626D01*
X534543Y130694D01*
X534473Y130764D01*
X534405Y130837D01*
X534340Y130913D01*
X534279Y130991D01*
X534220Y131071D01*
X534164Y131153D01*
X534112Y131238D01*
X534063Y131324D01*
X534017Y131413D01*
X533974Y131503D01*
X533935Y131594D01*
X533900Y131687D01*
X533868Y131781D01*
X533840Y131877D01*
X533815Y131973D01*
X533795Y132071D01*
X533777Y132169D01*
X533764Y132267D01*
X533755Y132366D01*
X533749Y132465D01*
X533747Y132565D01*
X533748Y132564D02*
X533748Y135161D01*
X533748Y139907D02*
X545432Y139907D01*
X545432Y146398D02*
X533748Y139907D01*
X533748Y146398D02*
X545432Y146398D01*
X536344Y151718D02*
X533748Y154964D01*
X545432Y154964D01*
X545432Y158209D02*
X545432Y151718D01*
D12*
X78740Y239760D03*
D11*
X65532Y226568D02*
X53848Y226568D01*
X65532Y226568D02*
X65532Y231761D01*
X65532Y236474D02*
X65532Y241667D01*
X65532Y236474D02*
X53848Y236474D01*
X53848Y241667D01*
X59041Y240369D02*
X59041Y236474D01*
X53848Y246357D02*
X65532Y246357D01*
X53848Y246357D02*
X53848Y249603D01*
X53850Y249716D01*
X53856Y249829D01*
X53866Y249942D01*
X53880Y250055D01*
X53897Y250167D01*
X53919Y250278D01*
X53944Y250388D01*
X53974Y250498D01*
X54007Y250606D01*
X54044Y250713D01*
X54084Y250819D01*
X54129Y250923D01*
X54177Y251026D01*
X54228Y251127D01*
X54283Y251226D01*
X54341Y251323D01*
X54403Y251418D01*
X54468Y251511D01*
X54536Y251601D01*
X54607Y251689D01*
X54682Y251775D01*
X54759Y251858D01*
X54839Y251938D01*
X54922Y252015D01*
X55008Y252090D01*
X55096Y252161D01*
X55186Y252229D01*
X55279Y252294D01*
X55374Y252356D01*
X55471Y252414D01*
X55570Y252469D01*
X55671Y252520D01*
X55774Y252568D01*
X55878Y252613D01*
X55984Y252653D01*
X56091Y252690D01*
X56199Y252723D01*
X56309Y252753D01*
X56419Y252778D01*
X56530Y252800D01*
X56642Y252817D01*
X56755Y252831D01*
X56868Y252841D01*
X56981Y252847D01*
X57094Y252849D01*
X62286Y252849D01*
X62399Y252847D01*
X62512Y252841D01*
X62625Y252831D01*
X62738Y252817D01*
X62850Y252800D01*
X62961Y252778D01*
X63071Y252753D01*
X63181Y252723D01*
X63289Y252690D01*
X63396Y252653D01*
X63502Y252613D01*
X63606Y252568D01*
X63709Y252520D01*
X63810Y252469D01*
X63909Y252414D01*
X64006Y252356D01*
X64101Y252294D01*
X64194Y252229D01*
X64284Y252161D01*
X64372Y252090D01*
X64458Y252015D01*
X64541Y251938D01*
X64621Y251858D01*
X64698Y251775D01*
X64773Y251689D01*
X64844Y251601D01*
X64912Y251511D01*
X64977Y251418D01*
X65039Y251323D01*
X65097Y251226D01*
X65152Y251127D01*
X65203Y251026D01*
X65251Y250923D01*
X65296Y250819D01*
X65336Y250713D01*
X65373Y250606D01*
X65406Y250498D01*
X65436Y250388D01*
X65461Y250278D01*
X65483Y250167D01*
X65500Y250055D01*
X65514Y249942D01*
X65524Y249829D01*
X65530Y249716D01*
X65532Y249603D01*
X65532Y246357D01*
X56444Y258168D02*
X53848Y261414D01*
X65532Y261414D01*
X65532Y264659D02*
X65532Y258168D01*
D12*
X78740Y98060D03*
D11*
X65532Y85861D02*
X53848Y85861D01*
X65532Y85861D02*
X65532Y91053D01*
X65532Y95767D02*
X65532Y100959D01*
X65532Y95767D02*
X53848Y95767D01*
X53848Y100959D01*
X59041Y99661D02*
X59041Y95767D01*
X53848Y105650D02*
X65532Y105650D01*
X53848Y105650D02*
X53848Y108895D01*
X53850Y109008D01*
X53856Y109121D01*
X53866Y109234D01*
X53880Y109347D01*
X53897Y109459D01*
X53919Y109570D01*
X53944Y109680D01*
X53974Y109790D01*
X54007Y109898D01*
X54044Y110005D01*
X54084Y110111D01*
X54129Y110215D01*
X54177Y110318D01*
X54228Y110419D01*
X54283Y110518D01*
X54341Y110615D01*
X54403Y110710D01*
X54468Y110803D01*
X54536Y110893D01*
X54607Y110981D01*
X54682Y111067D01*
X54759Y111150D01*
X54839Y111230D01*
X54922Y111307D01*
X55008Y111382D01*
X55096Y111453D01*
X55186Y111521D01*
X55279Y111586D01*
X55374Y111648D01*
X55471Y111706D01*
X55570Y111761D01*
X55671Y111812D01*
X55774Y111860D01*
X55878Y111905D01*
X55984Y111945D01*
X56091Y111982D01*
X56199Y112015D01*
X56309Y112045D01*
X56419Y112070D01*
X56530Y112092D01*
X56642Y112109D01*
X56755Y112123D01*
X56868Y112133D01*
X56981Y112139D01*
X57094Y112141D01*
X62286Y112141D01*
X62286Y112142D02*
X62399Y112140D01*
X62512Y112134D01*
X62625Y112124D01*
X62738Y112110D01*
X62850Y112093D01*
X62961Y112071D01*
X63071Y112046D01*
X63181Y112016D01*
X63289Y111983D01*
X63396Y111946D01*
X63502Y111906D01*
X63606Y111861D01*
X63709Y111813D01*
X63810Y111762D01*
X63909Y111707D01*
X64006Y111649D01*
X64101Y111587D01*
X64194Y111522D01*
X64284Y111454D01*
X64372Y111383D01*
X64458Y111308D01*
X64541Y111231D01*
X64621Y111151D01*
X64698Y111068D01*
X64773Y110982D01*
X64844Y110894D01*
X64912Y110804D01*
X64977Y110711D01*
X65039Y110616D01*
X65097Y110519D01*
X65152Y110420D01*
X65203Y110319D01*
X65251Y110216D01*
X65296Y110112D01*
X65336Y110006D01*
X65373Y109899D01*
X65406Y109791D01*
X65436Y109681D01*
X65461Y109571D01*
X65483Y109460D01*
X65500Y109348D01*
X65514Y109235D01*
X65524Y109122D01*
X65530Y109009D01*
X65532Y108896D01*
X65532Y108895D02*
X65532Y105650D01*
X53848Y121031D02*
X53850Y121138D01*
X53856Y121244D01*
X53866Y121350D01*
X53879Y121456D01*
X53897Y121562D01*
X53918Y121666D01*
X53943Y121770D01*
X53972Y121873D01*
X54004Y121974D01*
X54041Y122074D01*
X54081Y122173D01*
X54124Y122271D01*
X54171Y122367D01*
X54222Y122461D01*
X54276Y122553D01*
X54333Y122643D01*
X54393Y122731D01*
X54457Y122816D01*
X54524Y122899D01*
X54594Y122980D01*
X54666Y123058D01*
X54742Y123134D01*
X54820Y123206D01*
X54901Y123276D01*
X54984Y123343D01*
X55069Y123407D01*
X55157Y123467D01*
X55247Y123524D01*
X55339Y123578D01*
X55433Y123629D01*
X55529Y123676D01*
X55627Y123719D01*
X55726Y123759D01*
X55826Y123796D01*
X55927Y123828D01*
X56030Y123857D01*
X56134Y123882D01*
X56238Y123903D01*
X56344Y123921D01*
X56450Y123934D01*
X56556Y123944D01*
X56662Y123950D01*
X56769Y123952D01*
X53848Y121031D02*
X53850Y120910D01*
X53856Y120789D01*
X53866Y120669D01*
X53879Y120548D01*
X53897Y120429D01*
X53918Y120309D01*
X53943Y120191D01*
X53972Y120074D01*
X54005Y119957D01*
X54041Y119842D01*
X54082Y119728D01*
X54125Y119615D01*
X54173Y119503D01*
X54224Y119394D01*
X54279Y119286D01*
X54337Y119179D01*
X54398Y119075D01*
X54463Y118973D01*
X54531Y118873D01*
X54602Y118775D01*
X54676Y118679D01*
X54753Y118586D01*
X54834Y118496D01*
X54917Y118408D01*
X55003Y118323D01*
X55092Y118240D01*
X55183Y118161D01*
X55277Y118084D01*
X55373Y118011D01*
X55471Y117941D01*
X55572Y117874D01*
X55675Y117810D01*
X55780Y117750D01*
X55887Y117692D01*
X55995Y117639D01*
X56105Y117589D01*
X56217Y117543D01*
X56330Y117500D01*
X56445Y117461D01*
X59041Y122978D02*
X58963Y123057D01*
X58883Y123133D01*
X58800Y123206D01*
X58714Y123276D01*
X58627Y123343D01*
X58536Y123407D01*
X58444Y123467D01*
X58350Y123525D01*
X58253Y123579D01*
X58155Y123629D01*
X58055Y123676D01*
X57954Y123720D01*
X57851Y123760D01*
X57746Y123796D01*
X57641Y123828D01*
X57534Y123857D01*
X57427Y123882D01*
X57318Y123904D01*
X57209Y123921D01*
X57100Y123935D01*
X56990Y123944D01*
X56879Y123950D01*
X56769Y123952D01*
X59041Y122978D02*
X65532Y117461D01*
X65532Y123952D01*
D13*
X220980Y148590D02*
X220980Y209550D01*
X170180Y209550D02*
X170180Y148590D01*
D14*
X215900Y148590D02*
X215900Y209550D01*
X205740Y175768D02*
X185420Y175768D01*
X205740Y175768D02*
X205740Y182118D01*
X185420Y182118D01*
X185420Y175768D01*
X185420Y185928D02*
X195580Y185928D01*
X195580Y172212D02*
X185420Y172212D01*
X195580Y185928D02*
X195580Y193040D01*
X195580Y185928D02*
X205740Y185928D01*
X195580Y172212D02*
X195580Y165100D01*
X195580Y172212D02*
X205740Y172212D01*
D13*
X220980Y148590D02*
X220972Y147971D01*
X220950Y147353D01*
X220912Y146736D01*
X220860Y146120D01*
X220792Y145505D01*
X220709Y144892D01*
X220612Y144281D01*
X220499Y143673D01*
X220372Y143067D01*
X220230Y142465D01*
X220074Y141867D01*
X219903Y141272D01*
X219718Y140682D01*
X219518Y140097D01*
X219304Y139516D01*
X219076Y138941D01*
X218834Y138372D01*
X218578Y137809D01*
X218309Y137252D01*
X218026Y136702D01*
X217730Y136159D01*
X217421Y135623D01*
X217099Y135095D01*
X216764Y134575D01*
X216416Y134063D01*
X216056Y133560D01*
X215684Y133066D01*
X215300Y132581D01*
X214904Y132106D01*
X214497Y131640D01*
X214079Y131184D01*
X213650Y130739D01*
X213209Y130304D01*
X212759Y129881D01*
X212298Y129468D01*
X211828Y129066D01*
X211347Y128677D01*
X210858Y128298D01*
X210359Y127932D01*
X209852Y127579D01*
X209336Y127237D01*
X208812Y126909D01*
X208280Y126593D01*
X207741Y126290D01*
X207194Y126001D01*
X206640Y125725D01*
X206080Y125462D01*
X205514Y125213D01*
X204942Y124978D01*
X204364Y124757D01*
X203781Y124550D01*
X203193Y124358D01*
X202601Y124180D01*
X202005Y124016D01*
X201404Y123867D01*
X200800Y123732D01*
X200194Y123613D01*
X199584Y123508D01*
X198972Y123418D01*
X198358Y123342D01*
X197742Y123282D01*
X197125Y123237D01*
X196508Y123207D01*
X195889Y123192D01*
X195271Y123192D01*
X194652Y123207D01*
X194035Y123237D01*
X193418Y123282D01*
X192802Y123342D01*
X192188Y123418D01*
X191576Y123508D01*
X190966Y123613D01*
X190360Y123732D01*
X189756Y123867D01*
X189155Y124016D01*
X188559Y124180D01*
X187967Y124358D01*
X187379Y124550D01*
X186796Y124757D01*
X186218Y124978D01*
X185646Y125213D01*
X185080Y125462D01*
X184520Y125725D01*
X183966Y126001D01*
X183419Y126290D01*
X182880Y126593D01*
X182348Y126909D01*
X181824Y127237D01*
X181308Y127579D01*
X180801Y127932D01*
X180302Y128298D01*
X179813Y128677D01*
X179332Y129066D01*
X178862Y129468D01*
X178401Y129881D01*
X177951Y130304D01*
X177510Y130739D01*
X177081Y131184D01*
X176663Y131640D01*
X176256Y132106D01*
X175860Y132581D01*
X175476Y133066D01*
X175104Y133560D01*
X174744Y134063D01*
X174396Y134575D01*
X174061Y135095D01*
X173739Y135623D01*
X173430Y136159D01*
X173134Y136702D01*
X172851Y137252D01*
X172582Y137809D01*
X172326Y138372D01*
X172084Y138941D01*
X171856Y139516D01*
X171642Y140097D01*
X171442Y140682D01*
X171257Y141272D01*
X171086Y141867D01*
X170930Y142465D01*
X170788Y143067D01*
X170661Y143673D01*
X170548Y144281D01*
X170451Y144892D01*
X170368Y145505D01*
X170300Y146120D01*
X170248Y146736D01*
X170210Y147353D01*
X170188Y147971D01*
X170180Y148590D01*
X170180Y209550D02*
X170188Y210169D01*
X170210Y210787D01*
X170248Y211404D01*
X170300Y212020D01*
X170368Y212635D01*
X170451Y213248D01*
X170548Y213859D01*
X170661Y214467D01*
X170788Y215073D01*
X170930Y215675D01*
X171086Y216273D01*
X171257Y216868D01*
X171442Y217458D01*
X171642Y218043D01*
X171856Y218624D01*
X172084Y219199D01*
X172326Y219768D01*
X172582Y220331D01*
X172851Y220888D01*
X173134Y221438D01*
X173430Y221981D01*
X173739Y222517D01*
X174061Y223045D01*
X174396Y223565D01*
X174744Y224077D01*
X175104Y224580D01*
X175476Y225074D01*
X175860Y225559D01*
X176256Y226034D01*
X176663Y226500D01*
X177081Y226956D01*
X177510Y227401D01*
X177951Y227836D01*
X178401Y228259D01*
X178862Y228672D01*
X179332Y229074D01*
X179813Y229463D01*
X180302Y229842D01*
X180801Y230208D01*
X181308Y230561D01*
X181824Y230903D01*
X182348Y231231D01*
X182880Y231547D01*
X183419Y231850D01*
X183966Y232139D01*
X184520Y232415D01*
X185080Y232678D01*
X185646Y232927D01*
X186218Y233162D01*
X186796Y233383D01*
X187379Y233590D01*
X187967Y233782D01*
X188559Y233960D01*
X189155Y234124D01*
X189756Y234273D01*
X190360Y234408D01*
X190966Y234527D01*
X191576Y234632D01*
X192188Y234722D01*
X192802Y234798D01*
X193418Y234858D01*
X194035Y234903D01*
X194652Y234933D01*
X195271Y234948D01*
X195889Y234948D01*
X196508Y234933D01*
X197125Y234903D01*
X197742Y234858D01*
X198358Y234798D01*
X198972Y234722D01*
X199584Y234632D01*
X200194Y234527D01*
X200800Y234408D01*
X201404Y234273D01*
X202005Y234124D01*
X202601Y233960D01*
X203193Y233782D01*
X203781Y233590D01*
X204364Y233383D01*
X204942Y233162D01*
X205514Y232927D01*
X206080Y232678D01*
X206640Y232415D01*
X207194Y232139D01*
X207741Y231850D01*
X208280Y231547D01*
X208812Y231231D01*
X209336Y230903D01*
X209852Y230561D01*
X210359Y230208D01*
X210858Y229842D01*
X211347Y229463D01*
X211828Y229074D01*
X212298Y228672D01*
X212759Y228259D01*
X213209Y227836D01*
X213650Y227401D01*
X214079Y226956D01*
X214497Y226500D01*
X214904Y226034D01*
X215300Y225559D01*
X215684Y225074D01*
X216056Y224580D01*
X216416Y224077D01*
X216764Y223565D01*
X217099Y223045D01*
X217421Y222517D01*
X217730Y221981D01*
X218026Y221438D01*
X218309Y220888D01*
X218578Y220331D01*
X218834Y219768D01*
X219076Y219199D01*
X219304Y218624D01*
X219518Y218043D01*
X219718Y217458D01*
X219903Y216868D01*
X220074Y216273D01*
X220230Y215675D01*
X220372Y215073D01*
X220499Y214467D01*
X220612Y213859D01*
X220709Y213248D01*
X220792Y212635D01*
X220860Y212020D01*
X220912Y211404D01*
X220950Y210787D01*
X220972Y210169D01*
X220980Y209550D01*
D14*
X215900Y148590D02*
X215894Y148095D01*
X215876Y147601D01*
X215846Y147107D01*
X215804Y146614D01*
X215750Y146122D01*
X215683Y145631D01*
X215605Y145143D01*
X215516Y144656D01*
X215414Y144172D01*
X215300Y143690D01*
X215175Y143211D01*
X215038Y142736D01*
X214890Y142264D01*
X214730Y141795D01*
X214559Y141331D01*
X214377Y140871D01*
X214183Y140416D01*
X213979Y139965D01*
X213763Y139520D01*
X213537Y139079D01*
X213300Y138645D01*
X213053Y138216D01*
X212795Y137794D01*
X212527Y137378D01*
X212249Y136969D01*
X211961Y136566D01*
X211663Y136171D01*
X211356Y135783D01*
X211039Y135403D01*
X210714Y135030D01*
X210379Y134666D01*
X210036Y134309D01*
X209684Y133962D01*
X209323Y133622D01*
X208955Y133292D01*
X208578Y132971D01*
X208194Y132659D01*
X207802Y132357D01*
X207403Y132064D01*
X206997Y131781D01*
X206585Y131508D01*
X206166Y131245D01*
X205740Y130992D01*
X205308Y130750D01*
X204871Y130519D01*
X204428Y130298D01*
X203980Y130088D01*
X203527Y129889D01*
X203069Y129701D01*
X202607Y129524D01*
X202141Y129358D01*
X201671Y129204D01*
X201197Y129062D01*
X200720Y128931D01*
X200239Y128811D01*
X199756Y128704D01*
X199271Y128608D01*
X198783Y128524D01*
X198294Y128452D01*
X197802Y128392D01*
X197310Y128344D01*
X196816Y128308D01*
X196322Y128284D01*
X195827Y128272D01*
X195333Y128272D01*
X194838Y128284D01*
X194344Y128308D01*
X193850Y128344D01*
X193358Y128392D01*
X192866Y128452D01*
X192377Y128524D01*
X191889Y128608D01*
X191404Y128704D01*
X190921Y128811D01*
X190440Y128931D01*
X189963Y129062D01*
X189489Y129204D01*
X189019Y129358D01*
X188553Y129524D01*
X188091Y129701D01*
X187633Y129889D01*
X187180Y130088D01*
X186732Y130298D01*
X186289Y130519D01*
X185852Y130750D01*
X185420Y130992D01*
X184994Y131245D01*
X184575Y131508D01*
X184163Y131781D01*
X183757Y132064D01*
X183358Y132357D01*
X182966Y132659D01*
X182582Y132971D01*
X182205Y133292D01*
X181837Y133622D01*
X181476Y133962D01*
X181124Y134309D01*
X180781Y134666D01*
X180446Y135030D01*
X180121Y135403D01*
X179804Y135783D01*
X179497Y136171D01*
X179199Y136566D01*
X178911Y136969D01*
X178633Y137378D01*
X178365Y137794D01*
X178107Y138216D01*
X177860Y138645D01*
X177623Y139079D01*
X177397Y139520D01*
X177181Y139965D01*
X176977Y140416D01*
X176783Y140871D01*
X176601Y141331D01*
X176430Y141795D01*
X176270Y142264D01*
X176122Y142736D01*
X175985Y143211D01*
X175860Y143690D01*
X175746Y144172D01*
X175644Y144656D01*
X175555Y145143D01*
X175477Y145631D01*
X175410Y146122D01*
X175356Y146614D01*
X175314Y147107D01*
X175284Y147601D01*
X175266Y148095D01*
X175260Y148590D01*
X175260Y209550D02*
X175266Y210045D01*
X175284Y210539D01*
X175314Y211033D01*
X175356Y211526D01*
X175410Y212018D01*
X175477Y212509D01*
X175555Y212997D01*
X175644Y213484D01*
X175746Y213968D01*
X175860Y214450D01*
X175985Y214929D01*
X176122Y215404D01*
X176270Y215876D01*
X176430Y216345D01*
X176601Y216809D01*
X176783Y217269D01*
X176977Y217724D01*
X177181Y218175D01*
X177397Y218620D01*
X177623Y219061D01*
X177860Y219495D01*
X178107Y219924D01*
X178365Y220346D01*
X178633Y220762D01*
X178911Y221171D01*
X179199Y221574D01*
X179497Y221969D01*
X179804Y222357D01*
X180121Y222737D01*
X180446Y223110D01*
X180781Y223474D01*
X181124Y223831D01*
X181476Y224178D01*
X181837Y224518D01*
X182205Y224848D01*
X182582Y225169D01*
X182966Y225481D01*
X183358Y225783D01*
X183757Y226076D01*
X184163Y226359D01*
X184575Y226632D01*
X184994Y226895D01*
X185420Y227148D01*
X185852Y227390D01*
X186289Y227621D01*
X186732Y227842D01*
X187180Y228052D01*
X187633Y228251D01*
X188091Y228439D01*
X188553Y228616D01*
X189019Y228782D01*
X189489Y228936D01*
X189963Y229078D01*
X190440Y229209D01*
X190921Y229329D01*
X191404Y229436D01*
X191889Y229532D01*
X192377Y229616D01*
X192866Y229688D01*
X193358Y229748D01*
X193850Y229796D01*
X194344Y229832D01*
X194838Y229856D01*
X195333Y229868D01*
X195827Y229868D01*
X196322Y229856D01*
X196816Y229832D01*
X197310Y229796D01*
X197802Y229748D01*
X198294Y229688D01*
X198783Y229616D01*
X199271Y229532D01*
X199756Y229436D01*
X200239Y229329D01*
X200720Y229209D01*
X201197Y229078D01*
X201671Y228936D01*
X202141Y228782D01*
X202607Y228616D01*
X203069Y228439D01*
X203527Y228251D01*
X203980Y228052D01*
X204428Y227842D01*
X204871Y227621D01*
X205308Y227390D01*
X205740Y227148D01*
X206166Y226895D01*
X206585Y226632D01*
X206997Y226359D01*
X207403Y226076D01*
X207802Y225783D01*
X208194Y225481D01*
X208578Y225169D01*
X208955Y224848D01*
X209323Y224518D01*
X209684Y224178D01*
X210036Y223831D01*
X210379Y223474D01*
X210714Y223110D01*
X211039Y222737D01*
X211356Y222357D01*
X211663Y221969D01*
X211961Y221574D01*
X212249Y221171D01*
X212527Y220762D01*
X212795Y220346D01*
X213053Y219924D01*
X213300Y219495D01*
X213537Y219061D01*
X213763Y218620D01*
X213979Y218175D01*
X214183Y217724D01*
X214377Y217269D01*
X214559Y216809D01*
X214730Y216345D01*
X214890Y215876D01*
X215038Y215404D01*
X215175Y214929D01*
X215300Y214450D01*
X215414Y213968D01*
X215516Y213484D01*
X215605Y212997D01*
X215683Y212509D01*
X215750Y212018D01*
X215804Y211526D01*
X215846Y211033D01*
X215876Y210539D01*
X215894Y210045D01*
X215900Y209550D01*
X175260Y209550D02*
X175260Y148590D01*
D10*
X160020Y128905D02*
X154940Y128905D01*
X154829Y128907D01*
X154719Y128913D01*
X154608Y128922D01*
X154498Y128936D01*
X154389Y128953D01*
X154280Y128974D01*
X154172Y128999D01*
X154065Y129028D01*
X153959Y129060D01*
X153854Y129096D01*
X153751Y129136D01*
X153649Y129179D01*
X153548Y129226D01*
X153449Y129277D01*
X153353Y129330D01*
X153258Y129387D01*
X153165Y129448D01*
X153074Y129511D01*
X152985Y129578D01*
X152899Y129648D01*
X152816Y129721D01*
X152734Y129796D01*
X152656Y129874D01*
X152581Y129956D01*
X152508Y130039D01*
X152438Y130125D01*
X152371Y130214D01*
X152308Y130305D01*
X152247Y130398D01*
X152190Y130492D01*
X152137Y130589D01*
X152086Y130688D01*
X152039Y130789D01*
X151996Y130891D01*
X151956Y130994D01*
X151920Y131099D01*
X151888Y131205D01*
X151859Y131312D01*
X151834Y131420D01*
X151813Y131529D01*
X151796Y131638D01*
X151782Y131748D01*
X151773Y131859D01*
X151767Y131969D01*
X151765Y132080D01*
X151767Y132191D01*
X151773Y132301D01*
X151782Y132412D01*
X151796Y132522D01*
X151813Y132631D01*
X151834Y132740D01*
X151859Y132848D01*
X151888Y132955D01*
X151920Y133061D01*
X151956Y133166D01*
X151996Y133269D01*
X152039Y133371D01*
X152086Y133472D01*
X152137Y133571D01*
X152190Y133668D01*
X152247Y133762D01*
X152308Y133855D01*
X152371Y133946D01*
X152438Y134035D01*
X152508Y134121D01*
X152581Y134204D01*
X152656Y134286D01*
X152734Y134364D01*
X152816Y134439D01*
X152899Y134512D01*
X152985Y134582D01*
X153074Y134649D01*
X153165Y134712D01*
X153258Y134773D01*
X153353Y134830D01*
X153449Y134883D01*
X153548Y134934D01*
X153649Y134981D01*
X153751Y135024D01*
X153854Y135064D01*
X153959Y135100D01*
X154065Y135132D01*
X154172Y135161D01*
X154280Y135186D01*
X154389Y135207D01*
X154498Y135224D01*
X154608Y135238D01*
X154719Y135247D01*
X154829Y135253D01*
X154940Y135255D01*
X160020Y135255D01*
X160131Y135253D01*
X160241Y135247D01*
X160352Y135238D01*
X160462Y135224D01*
X160571Y135207D01*
X160680Y135186D01*
X160788Y135161D01*
X160895Y135132D01*
X161001Y135100D01*
X161106Y135064D01*
X161209Y135024D01*
X161311Y134981D01*
X161412Y134934D01*
X161511Y134883D01*
X161608Y134830D01*
X161702Y134773D01*
X161795Y134712D01*
X161886Y134649D01*
X161975Y134582D01*
X162061Y134512D01*
X162144Y134439D01*
X162226Y134364D01*
X162304Y134286D01*
X162379Y134204D01*
X162452Y134121D01*
X162522Y134035D01*
X162589Y133946D01*
X162652Y133855D01*
X162713Y133762D01*
X162770Y133667D01*
X162823Y133571D01*
X162874Y133472D01*
X162921Y133371D01*
X162964Y133269D01*
X163004Y133166D01*
X163040Y133061D01*
X163072Y132955D01*
X163101Y132848D01*
X163126Y132740D01*
X163147Y132631D01*
X163164Y132522D01*
X163178Y132412D01*
X163187Y132301D01*
X163193Y132191D01*
X163195Y132080D01*
X163193Y131969D01*
X163187Y131859D01*
X163178Y131748D01*
X163164Y131638D01*
X163147Y131529D01*
X163126Y131420D01*
X163101Y131312D01*
X163072Y131205D01*
X163040Y131099D01*
X163004Y130994D01*
X162964Y130891D01*
X162921Y130789D01*
X162874Y130688D01*
X162823Y130589D01*
X162770Y130492D01*
X162713Y130398D01*
X162652Y130305D01*
X162589Y130214D01*
X162522Y130125D01*
X162452Y130039D01*
X162379Y129956D01*
X162304Y129874D01*
X162226Y129796D01*
X162144Y129721D01*
X162061Y129648D01*
X161975Y129578D01*
X161886Y129511D01*
X161795Y129448D01*
X161702Y129387D01*
X161607Y129330D01*
X161511Y129277D01*
X161412Y129226D01*
X161311Y129179D01*
X161209Y129136D01*
X161106Y129096D01*
X161001Y129060D01*
X160895Y129028D01*
X160788Y128999D01*
X160680Y128974D01*
X160571Y128953D01*
X160462Y128936D01*
X160352Y128922D01*
X160241Y128913D01*
X160131Y128907D01*
X160020Y128905D01*
X160655Y133985D02*
X163195Y136525D01*
X154305Y139966D02*
X151765Y143141D01*
X163195Y143141D01*
X163195Y139966D02*
X163195Y146316D01*
D11*
X390398Y104902D02*
X390398Y93218D01*
X390398Y104902D02*
X393644Y104902D01*
X393757Y104900D01*
X393870Y104894D01*
X393983Y104884D01*
X394096Y104870D01*
X394208Y104853D01*
X394319Y104831D01*
X394429Y104806D01*
X394539Y104776D01*
X394647Y104743D01*
X394754Y104706D01*
X394860Y104666D01*
X394964Y104621D01*
X395067Y104573D01*
X395168Y104522D01*
X395267Y104467D01*
X395364Y104409D01*
X395459Y104347D01*
X395552Y104282D01*
X395642Y104214D01*
X395730Y104143D01*
X395816Y104068D01*
X395899Y103991D01*
X395979Y103911D01*
X396056Y103828D01*
X396131Y103742D01*
X396202Y103654D01*
X396270Y103564D01*
X396335Y103471D01*
X396397Y103376D01*
X396455Y103279D01*
X396510Y103180D01*
X396561Y103079D01*
X396609Y102976D01*
X396654Y102872D01*
X396694Y102766D01*
X396731Y102659D01*
X396764Y102551D01*
X396794Y102441D01*
X396819Y102331D01*
X396841Y102220D01*
X396858Y102108D01*
X396872Y101995D01*
X396882Y101882D01*
X396888Y101769D01*
X396890Y101656D01*
X396888Y101543D01*
X396882Y101430D01*
X396872Y101317D01*
X396858Y101204D01*
X396841Y101092D01*
X396819Y100981D01*
X396794Y100871D01*
X396764Y100761D01*
X396731Y100653D01*
X396694Y100546D01*
X396654Y100440D01*
X396609Y100336D01*
X396561Y100233D01*
X396510Y100132D01*
X396455Y100033D01*
X396397Y99936D01*
X396335Y99841D01*
X396270Y99748D01*
X396202Y99658D01*
X396131Y99570D01*
X396056Y99484D01*
X395979Y99401D01*
X395899Y99321D01*
X395816Y99244D01*
X395730Y99169D01*
X395642Y99098D01*
X395552Y99030D01*
X395459Y98965D01*
X395364Y98903D01*
X395267Y98845D01*
X395168Y98790D01*
X395067Y98739D01*
X394964Y98691D01*
X394860Y98646D01*
X394754Y98606D01*
X394647Y98569D01*
X394539Y98536D01*
X394429Y98506D01*
X394319Y98481D01*
X394208Y98459D01*
X394096Y98442D01*
X393983Y98428D01*
X393870Y98418D01*
X393757Y98412D01*
X393644Y98410D01*
X393644Y98411D02*
X390398Y98411D01*
X394293Y98411D02*
X396889Y93218D01*
X401754Y102306D02*
X405000Y104902D01*
X405000Y93218D01*
X408245Y93218D02*
X401754Y93218D01*
X390398Y79502D02*
X390398Y67818D01*
X390398Y79502D02*
X393644Y79502D01*
X393757Y79500D01*
X393870Y79494D01*
X393983Y79484D01*
X394096Y79470D01*
X394208Y79453D01*
X394319Y79431D01*
X394429Y79406D01*
X394539Y79376D01*
X394647Y79343D01*
X394754Y79306D01*
X394860Y79266D01*
X394964Y79221D01*
X395067Y79173D01*
X395168Y79122D01*
X395267Y79067D01*
X395364Y79009D01*
X395459Y78947D01*
X395552Y78882D01*
X395642Y78814D01*
X395730Y78743D01*
X395816Y78668D01*
X395899Y78591D01*
X395979Y78511D01*
X396056Y78428D01*
X396131Y78342D01*
X396202Y78254D01*
X396270Y78164D01*
X396335Y78071D01*
X396397Y77976D01*
X396455Y77879D01*
X396510Y77780D01*
X396561Y77679D01*
X396609Y77576D01*
X396654Y77472D01*
X396694Y77366D01*
X396731Y77259D01*
X396764Y77151D01*
X396794Y77041D01*
X396819Y76931D01*
X396841Y76820D01*
X396858Y76708D01*
X396872Y76595D01*
X396882Y76482D01*
X396888Y76369D01*
X396890Y76256D01*
X396888Y76143D01*
X396882Y76030D01*
X396872Y75917D01*
X396858Y75804D01*
X396841Y75692D01*
X396819Y75581D01*
X396794Y75471D01*
X396764Y75361D01*
X396731Y75253D01*
X396694Y75146D01*
X396654Y75040D01*
X396609Y74936D01*
X396561Y74833D01*
X396510Y74732D01*
X396455Y74633D01*
X396397Y74536D01*
X396335Y74441D01*
X396270Y74348D01*
X396202Y74258D01*
X396131Y74170D01*
X396056Y74084D01*
X395979Y74001D01*
X395899Y73921D01*
X395816Y73844D01*
X395730Y73769D01*
X395642Y73698D01*
X395552Y73630D01*
X395459Y73565D01*
X395364Y73503D01*
X395267Y73445D01*
X395168Y73390D01*
X395067Y73339D01*
X394964Y73291D01*
X394860Y73246D01*
X394754Y73206D01*
X394647Y73169D01*
X394539Y73136D01*
X394429Y73106D01*
X394319Y73081D01*
X394208Y73059D01*
X394096Y73042D01*
X393983Y73028D01*
X393870Y73018D01*
X393757Y73012D01*
X393644Y73010D01*
X393644Y73011D02*
X390398Y73011D01*
X394293Y73011D02*
X396889Y67818D01*
X408245Y76581D02*
X408243Y76688D01*
X408237Y76794D01*
X408227Y76900D01*
X408214Y77006D01*
X408196Y77112D01*
X408175Y77216D01*
X408150Y77320D01*
X408121Y77423D01*
X408089Y77524D01*
X408052Y77624D01*
X408012Y77723D01*
X407969Y77821D01*
X407922Y77917D01*
X407871Y78011D01*
X407817Y78103D01*
X407760Y78193D01*
X407700Y78281D01*
X407636Y78366D01*
X407569Y78449D01*
X407499Y78530D01*
X407427Y78608D01*
X407351Y78684D01*
X407273Y78756D01*
X407192Y78826D01*
X407109Y78893D01*
X407024Y78957D01*
X406936Y79017D01*
X406846Y79074D01*
X406754Y79128D01*
X406660Y79179D01*
X406564Y79226D01*
X406466Y79269D01*
X406367Y79309D01*
X406267Y79346D01*
X406166Y79378D01*
X406063Y79407D01*
X405959Y79432D01*
X405855Y79453D01*
X405749Y79471D01*
X405643Y79484D01*
X405537Y79494D01*
X405431Y79500D01*
X405324Y79502D01*
X405203Y79500D01*
X405082Y79494D01*
X404962Y79484D01*
X404841Y79471D01*
X404722Y79453D01*
X404602Y79432D01*
X404484Y79407D01*
X404367Y79378D01*
X404250Y79345D01*
X404135Y79309D01*
X404021Y79268D01*
X403908Y79225D01*
X403796Y79177D01*
X403687Y79126D01*
X403579Y79071D01*
X403472Y79013D01*
X403368Y78952D01*
X403266Y78887D01*
X403166Y78819D01*
X403068Y78748D01*
X402972Y78674D01*
X402879Y78597D01*
X402789Y78516D01*
X402701Y78433D01*
X402616Y78347D01*
X402533Y78258D01*
X402454Y78167D01*
X402377Y78073D01*
X402304Y77977D01*
X402234Y77879D01*
X402167Y77778D01*
X402103Y77675D01*
X402043Y77570D01*
X401986Y77463D01*
X401932Y77355D01*
X401882Y77245D01*
X401836Y77133D01*
X401793Y77020D01*
X401754Y76905D01*
X407272Y74309D02*
X407351Y74386D01*
X407427Y74467D01*
X407500Y74550D01*
X407570Y74635D01*
X407637Y74723D01*
X407701Y74813D01*
X407761Y74905D01*
X407818Y75000D01*
X407872Y75096D01*
X407923Y75194D01*
X407970Y75294D01*
X408014Y75396D01*
X408054Y75499D01*
X408090Y75603D01*
X408122Y75709D01*
X408151Y75815D01*
X408176Y75923D01*
X408198Y76031D01*
X408215Y76141D01*
X408229Y76250D01*
X408238Y76360D01*
X408244Y76471D01*
X408246Y76581D01*
X407272Y74309D02*
X401754Y67818D01*
X408245Y67818D01*
D15*
X421640Y66040D02*
X446740Y66040D01*
X408940Y76040D02*
X408940Y106840D01*
X421940Y116840D02*
X446740Y116840D01*
X459740Y106840D02*
X459740Y76040D01*
X421640Y91440D02*
X421644Y91752D01*
X421655Y92063D01*
X421674Y92374D01*
X421701Y92685D01*
X421736Y92995D01*
X421777Y93303D01*
X421827Y93611D01*
X421884Y93918D01*
X421949Y94223D01*
X422021Y94526D01*
X422100Y94827D01*
X422187Y95127D01*
X422281Y95424D01*
X422382Y95719D01*
X422491Y96011D01*
X422607Y96300D01*
X422730Y96587D01*
X422859Y96870D01*
X422996Y97150D01*
X423140Y97427D01*
X423290Y97700D01*
X423447Y97969D01*
X423610Y98234D01*
X423780Y98496D01*
X423957Y98753D01*
X424139Y99005D01*
X424328Y99253D01*
X424523Y99497D01*
X424723Y99735D01*
X424930Y99969D01*
X425142Y100197D01*
X425360Y100420D01*
X425583Y100638D01*
X425811Y100850D01*
X426045Y101057D01*
X426283Y101257D01*
X426527Y101452D01*
X426775Y101641D01*
X427027Y101823D01*
X427284Y102000D01*
X427546Y102170D01*
X427811Y102333D01*
X428080Y102490D01*
X428353Y102640D01*
X428630Y102784D01*
X428910Y102921D01*
X429193Y103050D01*
X429480Y103173D01*
X429769Y103289D01*
X430061Y103398D01*
X430356Y103499D01*
X430653Y103593D01*
X430953Y103680D01*
X431254Y103759D01*
X431557Y103831D01*
X431862Y103896D01*
X432169Y103953D01*
X432477Y104003D01*
X432785Y104044D01*
X433095Y104079D01*
X433406Y104106D01*
X433717Y104125D01*
X434028Y104136D01*
X434340Y104140D01*
X434652Y104136D01*
X434963Y104125D01*
X435274Y104106D01*
X435585Y104079D01*
X435895Y104044D01*
X436203Y104003D01*
X436511Y103953D01*
X436818Y103896D01*
X437123Y103831D01*
X437426Y103759D01*
X437727Y103680D01*
X438027Y103593D01*
X438324Y103499D01*
X438619Y103398D01*
X438911Y103289D01*
X439200Y103173D01*
X439487Y103050D01*
X439770Y102921D01*
X440050Y102784D01*
X440327Y102640D01*
X440600Y102490D01*
X440869Y102333D01*
X441134Y102170D01*
X441396Y102000D01*
X441653Y101823D01*
X441905Y101641D01*
X442153Y101452D01*
X442397Y101257D01*
X442635Y101057D01*
X442869Y100850D01*
X443097Y100638D01*
X443320Y100420D01*
X443538Y100197D01*
X443750Y99969D01*
X443957Y99735D01*
X444157Y99497D01*
X444352Y99253D01*
X444541Y99005D01*
X444723Y98753D01*
X444900Y98496D01*
X445070Y98234D01*
X445233Y97969D01*
X445390Y97700D01*
X445540Y97427D01*
X445684Y97150D01*
X445821Y96870D01*
X445950Y96587D01*
X446073Y96300D01*
X446189Y96011D01*
X446298Y95719D01*
X446399Y95424D01*
X446493Y95127D01*
X446580Y94827D01*
X446659Y94526D01*
X446731Y94223D01*
X446796Y93918D01*
X446853Y93611D01*
X446903Y93303D01*
X446944Y92995D01*
X446979Y92685D01*
X447006Y92374D01*
X447025Y92063D01*
X447036Y91752D01*
X447040Y91440D01*
X447036Y91128D01*
X447025Y90817D01*
X447006Y90506D01*
X446979Y90195D01*
X446944Y89885D01*
X446903Y89577D01*
X446853Y89269D01*
X446796Y88962D01*
X446731Y88657D01*
X446659Y88354D01*
X446580Y88053D01*
X446493Y87753D01*
X446399Y87456D01*
X446298Y87161D01*
X446189Y86869D01*
X446073Y86580D01*
X445950Y86293D01*
X445821Y86010D01*
X445684Y85730D01*
X445540Y85453D01*
X445390Y85180D01*
X445233Y84911D01*
X445070Y84646D01*
X444900Y84384D01*
X444723Y84127D01*
X444541Y83875D01*
X444352Y83627D01*
X444157Y83383D01*
X443957Y83145D01*
X443750Y82911D01*
X443538Y82683D01*
X443320Y82460D01*
X443097Y82242D01*
X442869Y82030D01*
X442635Y81823D01*
X442397Y81623D01*
X442153Y81428D01*
X441905Y81239D01*
X441653Y81057D01*
X441396Y80880D01*
X441134Y80710D01*
X440869Y80547D01*
X440600Y80390D01*
X440327Y80240D01*
X440050Y80096D01*
X439770Y79959D01*
X439487Y79830D01*
X439200Y79707D01*
X438911Y79591D01*
X438619Y79482D01*
X438324Y79381D01*
X438027Y79287D01*
X437727Y79200D01*
X437426Y79121D01*
X437123Y79049D01*
X436818Y78984D01*
X436511Y78927D01*
X436203Y78877D01*
X435895Y78836D01*
X435585Y78801D01*
X435274Y78774D01*
X434963Y78755D01*
X434652Y78744D01*
X434340Y78740D01*
X434028Y78744D01*
X433717Y78755D01*
X433406Y78774D01*
X433095Y78801D01*
X432785Y78836D01*
X432477Y78877D01*
X432169Y78927D01*
X431862Y78984D01*
X431557Y79049D01*
X431254Y79121D01*
X430953Y79200D01*
X430653Y79287D01*
X430356Y79381D01*
X430061Y79482D01*
X429769Y79591D01*
X429480Y79707D01*
X429193Y79830D01*
X428910Y79959D01*
X428630Y80096D01*
X428353Y80240D01*
X428080Y80390D01*
X427811Y80547D01*
X427546Y80710D01*
X427284Y80880D01*
X427027Y81057D01*
X426775Y81239D01*
X426527Y81428D01*
X426283Y81623D01*
X426045Y81823D01*
X425811Y82030D01*
X425583Y82242D01*
X425360Y82460D01*
X425142Y82683D01*
X424930Y82911D01*
X424723Y83145D01*
X424523Y83383D01*
X424328Y83627D01*
X424139Y83875D01*
X423957Y84127D01*
X423780Y84384D01*
X423610Y84646D01*
X423447Y84911D01*
X423290Y85180D01*
X423140Y85453D01*
X422996Y85730D01*
X422859Y86010D01*
X422730Y86293D01*
X422607Y86580D01*
X422491Y86869D01*
X422382Y87161D01*
X422281Y87456D01*
X422187Y87753D01*
X422100Y88053D01*
X422021Y88354D01*
X421949Y88657D01*
X421884Y88962D01*
X421827Y89269D01*
X421777Y89577D01*
X421736Y89885D01*
X421701Y90195D01*
X421674Y90506D01*
X421655Y90817D01*
X421644Y91128D01*
X421640Y91440D01*
D10*
X469463Y90128D02*
X469528Y90126D01*
X469592Y90120D01*
X469656Y90110D01*
X469720Y90097D01*
X469782Y90079D01*
X469843Y90058D01*
X469903Y90034D01*
X469961Y90005D01*
X470018Y89973D01*
X470072Y89938D01*
X470124Y89900D01*
X470174Y89858D01*
X470221Y89814D01*
X470265Y89767D01*
X470307Y89717D01*
X470345Y89665D01*
X470380Y89611D01*
X470412Y89554D01*
X470441Y89496D01*
X470465Y89436D01*
X470486Y89375D01*
X470504Y89313D01*
X470517Y89249D01*
X470527Y89185D01*
X470533Y89121D01*
X470535Y89056D01*
X470533Y88962D01*
X470527Y88868D01*
X470517Y88774D01*
X470504Y88681D01*
X470486Y88589D01*
X470465Y88497D01*
X470440Y88406D01*
X470411Y88316D01*
X470378Y88228D01*
X470342Y88141D01*
X470302Y88056D01*
X470259Y87972D01*
X470212Y87891D01*
X470162Y87811D01*
X470109Y87733D01*
X470052Y87658D01*
X469993Y87585D01*
X469930Y87515D01*
X469865Y87447D01*
X466781Y87582D02*
X466716Y87584D01*
X466652Y87590D01*
X466588Y87600D01*
X466524Y87613D01*
X466462Y87631D01*
X466401Y87652D01*
X466341Y87676D01*
X466283Y87705D01*
X466226Y87737D01*
X466172Y87772D01*
X466120Y87810D01*
X466070Y87852D01*
X466023Y87896D01*
X465979Y87943D01*
X465937Y87993D01*
X465899Y88045D01*
X465864Y88099D01*
X465832Y88156D01*
X465803Y88214D01*
X465779Y88274D01*
X465758Y88335D01*
X465740Y88397D01*
X465727Y88461D01*
X465717Y88525D01*
X465711Y88589D01*
X465709Y88654D01*
X465711Y88740D01*
X465716Y88826D01*
X465726Y88912D01*
X465739Y88997D01*
X465755Y89082D01*
X465775Y89166D01*
X465799Y89249D01*
X465826Y89331D01*
X465857Y89411D01*
X465891Y89491D01*
X465929Y89568D01*
X465970Y89644D01*
X466014Y89718D01*
X466061Y89791D01*
X466111Y89861D01*
X467719Y88118D02*
X467686Y88065D01*
X467649Y88014D01*
X467610Y87965D01*
X467568Y87918D01*
X467523Y87874D01*
X467476Y87833D01*
X467427Y87794D01*
X467375Y87758D01*
X467321Y87725D01*
X467266Y87696D01*
X467209Y87670D01*
X467150Y87647D01*
X467091Y87627D01*
X467030Y87611D01*
X466969Y87598D01*
X466906Y87589D01*
X466844Y87584D01*
X466781Y87582D01*
X468525Y89593D02*
X468558Y89646D01*
X468595Y89697D01*
X468634Y89746D01*
X468676Y89793D01*
X468721Y89837D01*
X468768Y89878D01*
X468817Y89917D01*
X468869Y89953D01*
X468923Y89986D01*
X468978Y90015D01*
X469035Y90041D01*
X469094Y90064D01*
X469153Y90084D01*
X469214Y90100D01*
X469275Y90113D01*
X469338Y90122D01*
X469400Y90127D01*
X469463Y90129D01*
X468524Y89593D02*
X467720Y88118D01*
X465709Y94226D02*
X465711Y94294D01*
X465717Y94361D01*
X465726Y94428D01*
X465739Y94495D01*
X465756Y94560D01*
X465777Y94625D01*
X465801Y94688D01*
X465829Y94750D01*
X465860Y94810D01*
X465894Y94868D01*
X465932Y94924D01*
X465972Y94979D01*
X466016Y95030D01*
X466063Y95079D01*
X466112Y95126D01*
X466163Y95170D01*
X466218Y95210D01*
X466274Y95248D01*
X466332Y95282D01*
X466392Y95313D01*
X466454Y95341D01*
X466517Y95365D01*
X466582Y95386D01*
X466647Y95403D01*
X466714Y95416D01*
X466781Y95425D01*
X466848Y95431D01*
X466916Y95433D01*
X465709Y94226D02*
X465711Y94148D01*
X465717Y94070D01*
X465727Y93993D01*
X465740Y93916D01*
X465758Y93840D01*
X465779Y93765D01*
X465804Y93691D01*
X465833Y93619D01*
X465865Y93548D01*
X465901Y93479D01*
X465940Y93411D01*
X465983Y93346D01*
X466029Y93283D01*
X466078Y93222D01*
X466130Y93164D01*
X466185Y93109D01*
X466242Y93056D01*
X466302Y93007D01*
X466365Y92960D01*
X466430Y92917D01*
X466496Y92877D01*
X466565Y92840D01*
X466636Y92807D01*
X466708Y92777D01*
X466782Y92751D01*
X467854Y95030D02*
X467805Y95079D01*
X467753Y95126D01*
X467698Y95169D01*
X467641Y95210D01*
X467582Y95248D01*
X467521Y95282D01*
X467458Y95313D01*
X467394Y95341D01*
X467328Y95365D01*
X467262Y95385D01*
X467194Y95402D01*
X467125Y95415D01*
X467056Y95424D01*
X466986Y95430D01*
X466916Y95432D01*
X467854Y95030D02*
X470535Y92751D01*
X470535Y95432D01*
D14*
X554990Y276860D02*
X567690Y276860D01*
X574040Y270510D01*
X580390Y276860D01*
X593090Y276860D01*
X599440Y270510D01*
X554990Y276860D02*
X548640Y270510D01*
X599440Y270510D02*
X605790Y276860D01*
X618490Y276860D01*
X624840Y270510D01*
X624840Y232410D01*
X574040Y232410D02*
X567690Y226060D01*
X593090Y226060D02*
X599440Y232410D01*
X593090Y226060D02*
X580390Y226060D01*
X574040Y232410D01*
X548640Y232410D02*
X548640Y270510D01*
X548640Y232410D02*
X554990Y226060D01*
X567690Y226060D01*
X618490Y226060D02*
X624840Y232410D01*
X618490Y226060D02*
X605790Y226060D01*
X599440Y232410D01*
D10*
X558800Y221615D02*
X555625Y219075D01*
X558800Y221615D02*
X558800Y210185D01*
X555625Y210185D02*
X561975Y210185D01*
X553085Y281305D02*
X553185Y281307D01*
X553284Y281313D01*
X553384Y281323D01*
X553482Y281336D01*
X553581Y281354D01*
X553678Y281375D01*
X553774Y281400D01*
X553870Y281429D01*
X553964Y281462D01*
X554057Y281498D01*
X554148Y281538D01*
X554238Y281582D01*
X554326Y281629D01*
X554412Y281679D01*
X554496Y281733D01*
X554578Y281790D01*
X554657Y281850D01*
X554735Y281914D01*
X554809Y281980D01*
X554881Y282049D01*
X554950Y282121D01*
X555016Y282195D01*
X555080Y282273D01*
X555140Y282352D01*
X555197Y282434D01*
X555251Y282518D01*
X555301Y282604D01*
X555348Y282692D01*
X555392Y282782D01*
X555432Y282873D01*
X555468Y282966D01*
X555501Y283060D01*
X555530Y283156D01*
X555555Y283252D01*
X555576Y283349D01*
X555594Y283448D01*
X555607Y283546D01*
X555617Y283646D01*
X555623Y283745D01*
X555625Y283845D01*
X553085Y281305D02*
X552944Y281307D01*
X552803Y281312D01*
X552662Y281322D01*
X552521Y281335D01*
X552381Y281351D01*
X552241Y281372D01*
X552102Y281396D01*
X551963Y281424D01*
X551826Y281455D01*
X551689Y281490D01*
X551553Y281528D01*
X551418Y281570D01*
X551285Y281616D01*
X551152Y281665D01*
X551021Y281718D01*
X550892Y281774D01*
X550763Y281833D01*
X550637Y281896D01*
X550512Y281962D01*
X550389Y282031D01*
X550268Y282104D01*
X550149Y282180D01*
X550031Y282259D01*
X549916Y282340D01*
X549804Y282425D01*
X549693Y282513D01*
X549585Y282604D01*
X549479Y282697D01*
X549376Y282794D01*
X549275Y282893D01*
X549593Y290195D02*
X549595Y290295D01*
X549601Y290394D01*
X549611Y290494D01*
X549624Y290592D01*
X549642Y290691D01*
X549663Y290788D01*
X549688Y290884D01*
X549717Y290980D01*
X549750Y291074D01*
X549786Y291167D01*
X549826Y291258D01*
X549870Y291348D01*
X549917Y291436D01*
X549967Y291522D01*
X550021Y291606D01*
X550078Y291688D01*
X550138Y291767D01*
X550202Y291845D01*
X550268Y291919D01*
X550337Y291991D01*
X550409Y292060D01*
X550483Y292126D01*
X550561Y292190D01*
X550640Y292250D01*
X550722Y292307D01*
X550806Y292361D01*
X550892Y292411D01*
X550980Y292458D01*
X551070Y292502D01*
X551161Y292542D01*
X551254Y292578D01*
X551348Y292611D01*
X551444Y292640D01*
X551540Y292665D01*
X551637Y292686D01*
X551736Y292704D01*
X551834Y292717D01*
X551934Y292727D01*
X552033Y292733D01*
X552133Y292735D01*
X552133Y292736D02*
X552266Y292734D01*
X552399Y292729D01*
X552532Y292719D01*
X552665Y292706D01*
X552797Y292689D01*
X552929Y292669D01*
X553060Y292645D01*
X553190Y292617D01*
X553320Y292586D01*
X553448Y292551D01*
X553576Y292512D01*
X553702Y292470D01*
X553827Y292424D01*
X553951Y292375D01*
X554074Y292323D01*
X554195Y292267D01*
X554314Y292207D01*
X554432Y292145D01*
X554547Y292079D01*
X554661Y292010D01*
X554773Y291937D01*
X554883Y291862D01*
X554991Y291783D01*
X550862Y287972D02*
X550778Y288024D01*
X550695Y288079D01*
X550615Y288138D01*
X550537Y288199D01*
X550462Y288263D01*
X550389Y288331D01*
X550318Y288401D01*
X550251Y288473D01*
X550186Y288548D01*
X550124Y288626D01*
X550065Y288706D01*
X550009Y288788D01*
X549957Y288872D01*
X549908Y288958D01*
X549862Y289046D01*
X549819Y289136D01*
X549780Y289227D01*
X549745Y289320D01*
X549713Y289414D01*
X549685Y289509D01*
X549660Y289605D01*
X549640Y289702D01*
X549622Y289800D01*
X549609Y289898D01*
X549600Y289997D01*
X549594Y290096D01*
X549592Y290195D01*
X554355Y286068D02*
X554439Y286016D01*
X554522Y285961D01*
X554602Y285902D01*
X554680Y285841D01*
X554755Y285777D01*
X554828Y285709D01*
X554899Y285639D01*
X554966Y285567D01*
X555031Y285492D01*
X555093Y285414D01*
X555152Y285334D01*
X555208Y285252D01*
X555260Y285168D01*
X555309Y285082D01*
X555355Y284994D01*
X555398Y284904D01*
X555437Y284813D01*
X555472Y284720D01*
X555504Y284626D01*
X555532Y284531D01*
X555557Y284435D01*
X555577Y284338D01*
X555595Y284240D01*
X555608Y284142D01*
X555617Y284043D01*
X555623Y283944D01*
X555625Y283845D01*
X554355Y286068D02*
X550863Y287973D01*
X559689Y292735D02*
X563499Y281305D01*
X567309Y292735D01*
X571754Y290195D02*
X574929Y292735D01*
X574929Y281305D01*
X571754Y281305D02*
X578104Y281305D01*
X628015Y264795D02*
X631825Y264795D01*
X631925Y264793D01*
X632024Y264787D01*
X632124Y264777D01*
X632222Y264764D01*
X632321Y264746D01*
X632418Y264725D01*
X632514Y264700D01*
X632610Y264671D01*
X632704Y264638D01*
X632797Y264602D01*
X632888Y264562D01*
X632978Y264518D01*
X633066Y264471D01*
X633152Y264421D01*
X633236Y264367D01*
X633318Y264310D01*
X633397Y264250D01*
X633475Y264186D01*
X633549Y264120D01*
X633621Y264051D01*
X633690Y263979D01*
X633756Y263905D01*
X633820Y263827D01*
X633880Y263748D01*
X633937Y263666D01*
X633991Y263582D01*
X634041Y263496D01*
X634088Y263408D01*
X634132Y263318D01*
X634172Y263227D01*
X634208Y263134D01*
X634241Y263040D01*
X634270Y262944D01*
X634295Y262848D01*
X634316Y262751D01*
X634334Y262652D01*
X634347Y262554D01*
X634357Y262454D01*
X634363Y262355D01*
X634365Y262255D01*
X634365Y261620D01*
X634363Y261509D01*
X634357Y261399D01*
X634348Y261288D01*
X634334Y261178D01*
X634317Y261069D01*
X634296Y260960D01*
X634271Y260852D01*
X634242Y260745D01*
X634210Y260639D01*
X634174Y260534D01*
X634134Y260431D01*
X634091Y260329D01*
X634044Y260228D01*
X633993Y260129D01*
X633940Y260032D01*
X633883Y259938D01*
X633822Y259845D01*
X633759Y259754D01*
X633692Y259665D01*
X633622Y259579D01*
X633549Y259496D01*
X633474Y259414D01*
X633396Y259336D01*
X633314Y259261D01*
X633231Y259188D01*
X633145Y259118D01*
X633056Y259051D01*
X632965Y258988D01*
X632872Y258927D01*
X632778Y258870D01*
X632681Y258817D01*
X632582Y258766D01*
X632481Y258719D01*
X632379Y258676D01*
X632276Y258636D01*
X632171Y258600D01*
X632065Y258568D01*
X631958Y258539D01*
X631850Y258514D01*
X631741Y258493D01*
X631632Y258476D01*
X631522Y258462D01*
X631411Y258453D01*
X631301Y258447D01*
X631190Y258445D01*
X631079Y258447D01*
X630969Y258453D01*
X630858Y258462D01*
X630748Y258476D01*
X630639Y258493D01*
X630530Y258514D01*
X630422Y258539D01*
X630315Y258568D01*
X630209Y258600D01*
X630104Y258636D01*
X630001Y258676D01*
X629899Y258719D01*
X629798Y258766D01*
X629699Y258817D01*
X629603Y258870D01*
X629508Y258927D01*
X629415Y258988D01*
X629324Y259051D01*
X629235Y259118D01*
X629149Y259188D01*
X629066Y259261D01*
X628984Y259336D01*
X628906Y259414D01*
X628831Y259496D01*
X628758Y259579D01*
X628688Y259665D01*
X628621Y259754D01*
X628558Y259845D01*
X628497Y259938D01*
X628440Y260033D01*
X628387Y260129D01*
X628336Y260228D01*
X628289Y260329D01*
X628246Y260431D01*
X628206Y260534D01*
X628170Y260639D01*
X628138Y260745D01*
X628109Y260852D01*
X628084Y260960D01*
X628063Y261069D01*
X628046Y261178D01*
X628032Y261288D01*
X628023Y261399D01*
X628017Y261509D01*
X628015Y261620D01*
X628015Y264795D01*
X628017Y264935D01*
X628023Y265075D01*
X628032Y265215D01*
X628046Y265354D01*
X628063Y265493D01*
X628084Y265631D01*
X628109Y265769D01*
X628138Y265906D01*
X628170Y266042D01*
X628207Y266177D01*
X628247Y266311D01*
X628290Y266444D01*
X628338Y266576D01*
X628388Y266707D01*
X628443Y266836D01*
X628501Y266963D01*
X628562Y267089D01*
X628627Y267213D01*
X628696Y267335D01*
X628767Y267455D01*
X628842Y267573D01*
X628920Y267690D01*
X629002Y267804D01*
X629086Y267915D01*
X629174Y268024D01*
X629264Y268131D01*
X629358Y268236D01*
X629454Y268337D01*
X629553Y268436D01*
X629654Y268532D01*
X629759Y268626D01*
X629866Y268716D01*
X629975Y268804D01*
X630086Y268888D01*
X630200Y268970D01*
X630317Y269048D01*
X630435Y269123D01*
X630555Y269194D01*
X630677Y269263D01*
X630801Y269328D01*
X630927Y269389D01*
X631054Y269447D01*
X631183Y269502D01*
X631314Y269552D01*
X631446Y269600D01*
X631579Y269643D01*
X631713Y269683D01*
X631848Y269720D01*
X631984Y269752D01*
X632121Y269781D01*
X632259Y269806D01*
X632397Y269827D01*
X632536Y269844D01*
X632675Y269858D01*
X632815Y269867D01*
X632955Y269873D01*
X633095Y269875D01*
D14*
X27940Y143510D02*
X27940Y130810D01*
X27940Y143510D02*
X34290Y149860D01*
X46990Y149860D02*
X53340Y143510D01*
X34290Y149860D02*
X27940Y156210D01*
X27940Y168910D01*
X34290Y175260D01*
X46990Y175260D02*
X53340Y168910D01*
X53340Y156210D01*
X46990Y149860D01*
X46990Y124460D02*
X34290Y124460D01*
X27940Y130810D01*
X46990Y124460D02*
X53340Y130810D01*
X53340Y143510D01*
X34290Y175260D02*
X27940Y181610D01*
X27940Y194310D01*
X34290Y200660D01*
X46990Y200660D02*
X53340Y194310D01*
X53340Y181610D01*
X46990Y175260D01*
X27940Y207010D02*
X27940Y219710D01*
X34290Y226060D01*
X46990Y226060D01*
X53340Y219710D01*
X34290Y200660D02*
X27940Y207010D01*
X46990Y200660D02*
X53340Y207010D01*
X53340Y219710D01*
D10*
X20955Y131445D02*
X21055Y131443D01*
X21154Y131437D01*
X21254Y131427D01*
X21352Y131414D01*
X21451Y131396D01*
X21548Y131375D01*
X21644Y131350D01*
X21740Y131321D01*
X21834Y131288D01*
X21927Y131252D01*
X22018Y131212D01*
X22108Y131168D01*
X22196Y131121D01*
X22282Y131071D01*
X22366Y131017D01*
X22448Y130960D01*
X22527Y130900D01*
X22605Y130836D01*
X22679Y130770D01*
X22751Y130701D01*
X22820Y130629D01*
X22886Y130555D01*
X22950Y130477D01*
X23010Y130398D01*
X23067Y130316D01*
X23121Y130232D01*
X23171Y130146D01*
X23218Y130058D01*
X23262Y129968D01*
X23302Y129877D01*
X23338Y129784D01*
X23371Y129690D01*
X23400Y129594D01*
X23425Y129498D01*
X23446Y129401D01*
X23464Y129302D01*
X23477Y129204D01*
X23487Y129104D01*
X23493Y129005D01*
X23495Y128905D01*
X23493Y128764D01*
X23488Y128623D01*
X23478Y128482D01*
X23465Y128341D01*
X23449Y128201D01*
X23428Y128061D01*
X23404Y127922D01*
X23376Y127783D01*
X23345Y127646D01*
X23310Y127509D01*
X23272Y127373D01*
X23230Y127238D01*
X23184Y127105D01*
X23135Y126972D01*
X23082Y126841D01*
X23026Y126712D01*
X22967Y126583D01*
X22904Y126457D01*
X22838Y126332D01*
X22769Y126209D01*
X22696Y126088D01*
X22620Y125969D01*
X22541Y125851D01*
X22460Y125736D01*
X22375Y125624D01*
X22287Y125513D01*
X22196Y125405D01*
X22103Y125299D01*
X22006Y125196D01*
X21907Y125095D01*
X14605Y125413D02*
X14505Y125415D01*
X14406Y125421D01*
X14306Y125431D01*
X14208Y125444D01*
X14109Y125462D01*
X14012Y125483D01*
X13916Y125508D01*
X13820Y125537D01*
X13726Y125570D01*
X13633Y125606D01*
X13542Y125646D01*
X13452Y125690D01*
X13364Y125737D01*
X13278Y125787D01*
X13194Y125841D01*
X13112Y125898D01*
X13033Y125958D01*
X12955Y126022D01*
X12881Y126088D01*
X12809Y126157D01*
X12740Y126229D01*
X12674Y126303D01*
X12610Y126381D01*
X12550Y126460D01*
X12493Y126542D01*
X12439Y126626D01*
X12389Y126712D01*
X12342Y126800D01*
X12298Y126890D01*
X12258Y126981D01*
X12222Y127074D01*
X12189Y127168D01*
X12160Y127264D01*
X12135Y127360D01*
X12114Y127457D01*
X12096Y127556D01*
X12083Y127654D01*
X12073Y127754D01*
X12067Y127853D01*
X12065Y127953D01*
X12067Y128086D01*
X12072Y128219D01*
X12082Y128352D01*
X12095Y128485D01*
X12112Y128617D01*
X12132Y128749D01*
X12156Y128880D01*
X12184Y129010D01*
X12215Y129140D01*
X12250Y129268D01*
X12289Y129396D01*
X12331Y129522D01*
X12377Y129647D01*
X12426Y129771D01*
X12478Y129894D01*
X12534Y130015D01*
X12594Y130134D01*
X12656Y130252D01*
X12722Y130367D01*
X12791Y130481D01*
X12864Y130593D01*
X12939Y130703D01*
X13018Y130811D01*
X16828Y126682D02*
X16776Y126598D01*
X16721Y126515D01*
X16662Y126435D01*
X16601Y126357D01*
X16537Y126282D01*
X16469Y126209D01*
X16399Y126138D01*
X16327Y126071D01*
X16252Y126006D01*
X16174Y125944D01*
X16094Y125885D01*
X16012Y125829D01*
X15928Y125777D01*
X15842Y125728D01*
X15754Y125682D01*
X15664Y125639D01*
X15573Y125600D01*
X15480Y125565D01*
X15386Y125533D01*
X15291Y125505D01*
X15195Y125480D01*
X15098Y125460D01*
X15000Y125442D01*
X14902Y125429D01*
X14803Y125420D01*
X14704Y125414D01*
X14605Y125412D01*
X18732Y130175D02*
X18784Y130259D01*
X18839Y130342D01*
X18898Y130422D01*
X18959Y130500D01*
X19023Y130575D01*
X19091Y130648D01*
X19161Y130719D01*
X19233Y130786D01*
X19308Y130851D01*
X19386Y130913D01*
X19466Y130972D01*
X19548Y131028D01*
X19632Y131080D01*
X19718Y131129D01*
X19806Y131175D01*
X19896Y131218D01*
X19987Y131257D01*
X20080Y131292D01*
X20174Y131324D01*
X20269Y131352D01*
X20365Y131377D01*
X20462Y131397D01*
X20560Y131415D01*
X20658Y131428D01*
X20757Y131437D01*
X20856Y131443D01*
X20955Y131445D01*
X18733Y130175D02*
X16828Y126683D01*
X12065Y135509D02*
X23495Y139319D01*
X12065Y143129D01*
X12065Y151067D02*
X12067Y151171D01*
X12073Y151276D01*
X12082Y151380D01*
X12095Y151483D01*
X12113Y151586D01*
X12133Y151688D01*
X12158Y151790D01*
X12186Y151890D01*
X12218Y151990D01*
X12254Y152088D01*
X12293Y152185D01*
X12335Y152280D01*
X12381Y152374D01*
X12431Y152466D01*
X12483Y152556D01*
X12539Y152644D01*
X12599Y152730D01*
X12661Y152814D01*
X12726Y152895D01*
X12794Y152974D01*
X12866Y153051D01*
X12939Y153124D01*
X13016Y153196D01*
X13095Y153264D01*
X13176Y153329D01*
X13260Y153391D01*
X13346Y153451D01*
X13434Y153507D01*
X13524Y153559D01*
X13616Y153609D01*
X13710Y153655D01*
X13805Y153697D01*
X13902Y153736D01*
X14000Y153772D01*
X14100Y153804D01*
X14200Y153832D01*
X14302Y153857D01*
X14404Y153877D01*
X14507Y153895D01*
X14610Y153908D01*
X14714Y153917D01*
X14819Y153923D01*
X14923Y153925D01*
X12065Y151067D02*
X12067Y150949D01*
X12073Y150830D01*
X12082Y150712D01*
X12095Y150595D01*
X12113Y150478D01*
X12133Y150361D01*
X12158Y150245D01*
X12186Y150130D01*
X12219Y150017D01*
X12254Y149904D01*
X12294Y149792D01*
X12336Y149682D01*
X12383Y149573D01*
X12433Y149465D01*
X12486Y149360D01*
X12543Y149256D01*
X12603Y149154D01*
X12666Y149054D01*
X12733Y148956D01*
X12802Y148860D01*
X12875Y148767D01*
X12951Y148676D01*
X13029Y148587D01*
X13111Y148501D01*
X13195Y148418D01*
X13281Y148337D01*
X13371Y148260D01*
X13462Y148185D01*
X13556Y148113D01*
X13653Y148044D01*
X13751Y147979D01*
X13852Y147916D01*
X13955Y147857D01*
X14059Y147801D01*
X14165Y147749D01*
X14273Y147700D01*
X14382Y147655D01*
X14493Y147613D01*
X14605Y147575D01*
X17145Y152972D02*
X17070Y153048D01*
X16991Y153123D01*
X16910Y153194D01*
X16826Y153263D01*
X16740Y153328D01*
X16652Y153390D01*
X16562Y153450D01*
X16470Y153506D01*
X16375Y153559D01*
X16279Y153608D01*
X16181Y153654D01*
X16082Y153697D01*
X15981Y153736D01*
X15879Y153771D01*
X15776Y153803D01*
X15672Y153831D01*
X15567Y153856D01*
X15460Y153877D01*
X15354Y153894D01*
X15247Y153907D01*
X15139Y153916D01*
X15031Y153922D01*
X14923Y153924D01*
X17145Y152972D02*
X23495Y147574D01*
X23495Y153924D01*
X34925Y116840D02*
X37465Y113665D01*
X34925Y116840D02*
X46355Y116840D01*
X46355Y113665D02*
X46355Y120015D01*
X43815Y229235D02*
X34925Y231775D01*
X43815Y229235D02*
X43815Y235585D01*
X41275Y233680D02*
X46355Y233680D01*
D14*
X66040Y38100D02*
X66040Y12700D01*
X88900Y12700D01*
X91440Y15240D01*
X93980Y12700D01*
X114300Y12700D01*
X116840Y15240D01*
X119380Y12700D01*
X139700Y12700D01*
X142240Y15240D01*
X144780Y12700D01*
X165100Y12700D01*
X167640Y15240D01*
X170180Y12700D01*
X167640Y35560D02*
X170180Y38100D01*
X167640Y35560D02*
X165100Y38100D01*
X144780Y38100D01*
X142240Y35560D01*
X139700Y38100D01*
X119380Y38100D01*
X116840Y35560D01*
X114300Y38100D01*
X93980Y38100D01*
X91440Y35560D01*
X88900Y38100D01*
X66040Y38100D01*
X170180Y12700D02*
X190500Y12700D01*
X193040Y15240D01*
X195580Y12700D01*
X215900Y12700D01*
X218440Y15240D01*
X220980Y12700D01*
X218440Y35560D02*
X220980Y38100D01*
X218440Y35560D02*
X215900Y38100D01*
X195580Y38100D01*
X193040Y35560D01*
X190500Y38100D01*
X170180Y38100D01*
X241300Y38100D02*
X243840Y35560D01*
X246380Y38100D01*
X241300Y38100D02*
X220980Y38100D01*
X243840Y15240D02*
X246380Y12700D01*
X243840Y15240D02*
X241300Y12700D01*
X220980Y12700D01*
X292100Y12700D02*
X294640Y15240D01*
X297180Y12700D01*
X317500Y12700D01*
X320040Y15240D01*
X322580Y12700D01*
X342900Y12700D01*
X345440Y15240D01*
X347980Y12700D01*
X368300Y12700D01*
X370840Y15240D01*
X373380Y12700D01*
X370840Y35560D02*
X373380Y38100D01*
X370840Y35560D02*
X368300Y38100D01*
X347980Y38100D01*
X345440Y35560D01*
X342900Y38100D01*
X322580Y38100D01*
X320040Y35560D01*
X317500Y38100D01*
X297180Y38100D01*
X294640Y35560D01*
X292100Y38100D01*
X373380Y12700D02*
X393700Y12700D01*
X396240Y15240D01*
X398780Y12700D01*
X419100Y12700D01*
X421640Y15240D01*
X424180Y12700D01*
X421640Y35560D02*
X424180Y38100D01*
X421640Y35560D02*
X419100Y38100D01*
X398780Y38100D01*
X396240Y35560D01*
X393700Y38100D01*
X373380Y38100D01*
X449580Y12700D02*
X469900Y12700D01*
X447040Y35560D02*
X444500Y38100D01*
X447040Y35560D02*
X449580Y38100D01*
X444500Y38100D02*
X424180Y38100D01*
X447040Y15240D02*
X449580Y12700D01*
X447040Y15240D02*
X444500Y12700D01*
X424180Y12700D01*
X495300Y12700D02*
X497840Y15240D01*
X500380Y12700D01*
X520700Y12700D01*
X523240Y15240D01*
X525780Y12700D01*
X546100Y12700D01*
X548640Y15240D01*
X551180Y12700D01*
X548640Y35560D02*
X551180Y38100D01*
X548640Y35560D02*
X546100Y38100D01*
X525780Y38100D01*
X523240Y35560D01*
X520700Y38100D01*
X500380Y38100D01*
X497840Y35560D01*
X495300Y38100D01*
X574040Y38100D02*
X574040Y12700D01*
X551180Y12700D01*
X551180Y38100D02*
X574040Y38100D01*
X472440Y15240D02*
X469900Y12700D01*
X472440Y15240D02*
X474980Y12700D01*
X472440Y35560D02*
X469900Y38100D01*
X472440Y35560D02*
X474980Y38100D01*
X495300Y38100D01*
X495300Y12700D02*
X474980Y12700D01*
X469900Y38100D02*
X449580Y38100D01*
X266700Y38100D02*
X246380Y38100D01*
X246380Y12700D02*
X266700Y12700D01*
X271780Y12700D02*
X292100Y12700D01*
X271780Y12700D02*
X269240Y15240D01*
X266700Y12700D01*
X269240Y35560D02*
X266700Y38100D01*
X269240Y35560D02*
X271780Y38100D01*
X292100Y38100D01*
D10*
X111125Y45085D02*
X111123Y44985D01*
X111117Y44886D01*
X111107Y44786D01*
X111094Y44688D01*
X111076Y44589D01*
X111055Y44492D01*
X111030Y44396D01*
X111001Y44300D01*
X110968Y44206D01*
X110932Y44113D01*
X110892Y44022D01*
X110848Y43932D01*
X110801Y43844D01*
X110751Y43758D01*
X110697Y43674D01*
X110640Y43592D01*
X110580Y43513D01*
X110516Y43435D01*
X110450Y43361D01*
X110381Y43289D01*
X110309Y43220D01*
X110235Y43154D01*
X110157Y43090D01*
X110078Y43030D01*
X109996Y42973D01*
X109912Y42919D01*
X109826Y42869D01*
X109738Y42822D01*
X109648Y42778D01*
X109557Y42738D01*
X109464Y42702D01*
X109370Y42669D01*
X109274Y42640D01*
X109178Y42615D01*
X109081Y42594D01*
X108982Y42576D01*
X108884Y42563D01*
X108784Y42553D01*
X108685Y42547D01*
X108585Y42545D01*
X108444Y42547D01*
X108303Y42552D01*
X108162Y42562D01*
X108021Y42575D01*
X107881Y42591D01*
X107741Y42612D01*
X107602Y42636D01*
X107463Y42664D01*
X107326Y42695D01*
X107189Y42730D01*
X107053Y42768D01*
X106918Y42810D01*
X106785Y42856D01*
X106652Y42905D01*
X106521Y42958D01*
X106392Y43014D01*
X106263Y43073D01*
X106137Y43136D01*
X106012Y43202D01*
X105889Y43271D01*
X105768Y43344D01*
X105649Y43420D01*
X105531Y43499D01*
X105416Y43580D01*
X105304Y43665D01*
X105193Y43753D01*
X105085Y43844D01*
X104979Y43937D01*
X104876Y44034D01*
X104775Y44133D01*
X105093Y51435D02*
X105095Y51535D01*
X105101Y51634D01*
X105111Y51734D01*
X105124Y51832D01*
X105142Y51931D01*
X105163Y52028D01*
X105188Y52124D01*
X105217Y52220D01*
X105250Y52314D01*
X105286Y52407D01*
X105326Y52498D01*
X105370Y52588D01*
X105417Y52676D01*
X105467Y52762D01*
X105521Y52846D01*
X105578Y52928D01*
X105638Y53007D01*
X105702Y53085D01*
X105768Y53159D01*
X105837Y53231D01*
X105909Y53300D01*
X105983Y53366D01*
X106061Y53430D01*
X106140Y53490D01*
X106222Y53547D01*
X106306Y53601D01*
X106392Y53651D01*
X106480Y53698D01*
X106570Y53742D01*
X106661Y53782D01*
X106754Y53818D01*
X106848Y53851D01*
X106944Y53880D01*
X107040Y53905D01*
X107137Y53926D01*
X107236Y53944D01*
X107334Y53957D01*
X107434Y53967D01*
X107533Y53973D01*
X107633Y53975D01*
X107633Y53976D02*
X107766Y53974D01*
X107899Y53969D01*
X108032Y53959D01*
X108165Y53946D01*
X108297Y53929D01*
X108429Y53909D01*
X108560Y53885D01*
X108690Y53857D01*
X108820Y53826D01*
X108948Y53791D01*
X109076Y53752D01*
X109202Y53710D01*
X109327Y53664D01*
X109451Y53615D01*
X109574Y53563D01*
X109695Y53507D01*
X109814Y53447D01*
X109932Y53385D01*
X110047Y53319D01*
X110161Y53250D01*
X110273Y53177D01*
X110383Y53102D01*
X110491Y53023D01*
X106362Y49212D02*
X106278Y49264D01*
X106195Y49319D01*
X106115Y49378D01*
X106037Y49439D01*
X105962Y49503D01*
X105889Y49571D01*
X105818Y49641D01*
X105751Y49713D01*
X105686Y49788D01*
X105624Y49866D01*
X105565Y49946D01*
X105509Y50028D01*
X105457Y50112D01*
X105408Y50198D01*
X105362Y50286D01*
X105319Y50376D01*
X105280Y50467D01*
X105245Y50560D01*
X105213Y50654D01*
X105185Y50749D01*
X105160Y50845D01*
X105140Y50942D01*
X105122Y51040D01*
X105109Y51138D01*
X105100Y51237D01*
X105094Y51336D01*
X105092Y51435D01*
X109855Y47308D02*
X109939Y47256D01*
X110022Y47201D01*
X110102Y47142D01*
X110180Y47081D01*
X110255Y47017D01*
X110328Y46949D01*
X110399Y46879D01*
X110466Y46807D01*
X110531Y46732D01*
X110593Y46654D01*
X110652Y46574D01*
X110708Y46492D01*
X110760Y46408D01*
X110809Y46322D01*
X110855Y46234D01*
X110898Y46144D01*
X110937Y46053D01*
X110972Y45960D01*
X111004Y45866D01*
X111032Y45771D01*
X111057Y45675D01*
X111077Y45578D01*
X111095Y45480D01*
X111108Y45382D01*
X111117Y45283D01*
X111123Y45184D01*
X111125Y45085D01*
X109855Y47308D02*
X106363Y49213D01*
X115189Y53975D02*
X118999Y42545D01*
X122809Y53975D01*
X127254Y42545D02*
X130429Y42545D01*
X130540Y42547D01*
X130650Y42553D01*
X130761Y42562D01*
X130871Y42576D01*
X130980Y42593D01*
X131089Y42614D01*
X131197Y42639D01*
X131304Y42668D01*
X131410Y42700D01*
X131515Y42736D01*
X131618Y42776D01*
X131720Y42819D01*
X131821Y42866D01*
X131920Y42917D01*
X132016Y42970D01*
X132111Y43027D01*
X132204Y43088D01*
X132295Y43151D01*
X132384Y43218D01*
X132470Y43288D01*
X132553Y43361D01*
X132635Y43436D01*
X132713Y43514D01*
X132788Y43596D01*
X132861Y43679D01*
X132931Y43765D01*
X132998Y43854D01*
X133061Y43945D01*
X133122Y44038D01*
X133179Y44132D01*
X133232Y44229D01*
X133283Y44328D01*
X133330Y44429D01*
X133373Y44531D01*
X133413Y44634D01*
X133449Y44739D01*
X133481Y44845D01*
X133510Y44952D01*
X133535Y45060D01*
X133556Y45169D01*
X133573Y45278D01*
X133587Y45388D01*
X133596Y45499D01*
X133602Y45609D01*
X133604Y45720D01*
X133602Y45831D01*
X133596Y45941D01*
X133587Y46052D01*
X133573Y46162D01*
X133556Y46271D01*
X133535Y46380D01*
X133510Y46488D01*
X133481Y46595D01*
X133449Y46701D01*
X133413Y46806D01*
X133373Y46909D01*
X133330Y47011D01*
X133283Y47112D01*
X133232Y47211D01*
X133179Y47307D01*
X133122Y47402D01*
X133061Y47495D01*
X132998Y47586D01*
X132931Y47675D01*
X132861Y47761D01*
X132788Y47844D01*
X132713Y47926D01*
X132635Y48004D01*
X132553Y48079D01*
X132470Y48152D01*
X132384Y48222D01*
X132295Y48289D01*
X132204Y48352D01*
X132111Y48413D01*
X132017Y48470D01*
X131920Y48523D01*
X131821Y48574D01*
X131720Y48621D01*
X131618Y48664D01*
X131515Y48704D01*
X131410Y48740D01*
X131304Y48772D01*
X131197Y48801D01*
X131089Y48826D01*
X130980Y48847D01*
X130871Y48864D01*
X130761Y48878D01*
X130650Y48887D01*
X130540Y48893D01*
X130429Y48895D01*
X131064Y53975D02*
X127254Y53975D01*
X131064Y53975D02*
X131164Y53973D01*
X131263Y53967D01*
X131363Y53957D01*
X131461Y53944D01*
X131560Y53926D01*
X131657Y53905D01*
X131753Y53880D01*
X131849Y53851D01*
X131943Y53818D01*
X132036Y53782D01*
X132127Y53742D01*
X132217Y53698D01*
X132305Y53651D01*
X132391Y53601D01*
X132475Y53547D01*
X132557Y53490D01*
X132636Y53430D01*
X132714Y53366D01*
X132788Y53300D01*
X132860Y53231D01*
X132929Y53159D01*
X132995Y53085D01*
X133059Y53007D01*
X133119Y52928D01*
X133176Y52846D01*
X133230Y52762D01*
X133280Y52676D01*
X133327Y52588D01*
X133371Y52498D01*
X133411Y52407D01*
X133447Y52314D01*
X133480Y52220D01*
X133509Y52124D01*
X133534Y52028D01*
X133555Y51931D01*
X133573Y51832D01*
X133586Y51734D01*
X133596Y51634D01*
X133602Y51535D01*
X133604Y51435D01*
X133602Y51335D01*
X133596Y51236D01*
X133586Y51136D01*
X133573Y51038D01*
X133555Y50939D01*
X133534Y50842D01*
X133509Y50746D01*
X133480Y50650D01*
X133447Y50556D01*
X133411Y50463D01*
X133371Y50372D01*
X133327Y50282D01*
X133280Y50194D01*
X133230Y50108D01*
X133176Y50024D01*
X133119Y49942D01*
X133059Y49863D01*
X132995Y49785D01*
X132929Y49711D01*
X132860Y49639D01*
X132788Y49570D01*
X132714Y49504D01*
X132636Y49440D01*
X132557Y49380D01*
X132475Y49323D01*
X132391Y49269D01*
X132305Y49219D01*
X132217Y49172D01*
X132127Y49128D01*
X132036Y49088D01*
X131943Y49052D01*
X131849Y49019D01*
X131753Y48990D01*
X131657Y48965D01*
X131560Y48944D01*
X131461Y48926D01*
X131363Y48913D01*
X131263Y48903D01*
X131164Y48897D01*
X131064Y48895D01*
X128524Y48895D01*
X77470Y52705D02*
X74295Y50165D01*
X77470Y52705D02*
X77470Y41275D01*
X74295Y41275D02*
X80645Y41275D01*
X554038Y52706D02*
X554142Y52704D01*
X554247Y52698D01*
X554351Y52689D01*
X554454Y52676D01*
X554557Y52658D01*
X554659Y52638D01*
X554761Y52613D01*
X554861Y52585D01*
X554961Y52553D01*
X555059Y52517D01*
X555156Y52478D01*
X555251Y52436D01*
X555345Y52390D01*
X555437Y52340D01*
X555527Y52288D01*
X555615Y52232D01*
X555701Y52172D01*
X555785Y52110D01*
X555866Y52045D01*
X555945Y51977D01*
X556022Y51905D01*
X556095Y51832D01*
X556167Y51755D01*
X556235Y51676D01*
X556300Y51595D01*
X556362Y51511D01*
X556422Y51425D01*
X556478Y51337D01*
X556530Y51247D01*
X556580Y51155D01*
X556626Y51061D01*
X556668Y50966D01*
X556707Y50869D01*
X556743Y50771D01*
X556775Y50671D01*
X556803Y50571D01*
X556828Y50469D01*
X556848Y50367D01*
X556866Y50264D01*
X556879Y50161D01*
X556888Y50057D01*
X556894Y49952D01*
X556896Y49848D01*
X554038Y52705D02*
X553920Y52703D01*
X553801Y52697D01*
X553683Y52688D01*
X553566Y52675D01*
X553449Y52657D01*
X553332Y52637D01*
X553216Y52612D01*
X553101Y52584D01*
X552988Y52551D01*
X552875Y52516D01*
X552763Y52476D01*
X552653Y52434D01*
X552544Y52387D01*
X552436Y52337D01*
X552331Y52284D01*
X552227Y52227D01*
X552125Y52167D01*
X552025Y52104D01*
X551927Y52037D01*
X551831Y51968D01*
X551738Y51895D01*
X551647Y51819D01*
X551558Y51741D01*
X551472Y51659D01*
X551389Y51575D01*
X551308Y51489D01*
X551231Y51399D01*
X551156Y51308D01*
X551084Y51214D01*
X551015Y51117D01*
X550950Y51019D01*
X550887Y50918D01*
X550828Y50815D01*
X550772Y50711D01*
X550720Y50605D01*
X550671Y50497D01*
X550626Y50388D01*
X550584Y50277D01*
X550546Y50165D01*
X555943Y47626D02*
X556019Y47701D01*
X556094Y47780D01*
X556165Y47861D01*
X556234Y47945D01*
X556299Y48031D01*
X556361Y48119D01*
X556421Y48209D01*
X556477Y48301D01*
X556530Y48396D01*
X556579Y48492D01*
X556625Y48590D01*
X556668Y48689D01*
X556707Y48790D01*
X556742Y48892D01*
X556774Y48995D01*
X556802Y49099D01*
X556827Y49204D01*
X556848Y49311D01*
X556865Y49417D01*
X556878Y49524D01*
X556887Y49632D01*
X556893Y49740D01*
X556895Y49848D01*
X555943Y47625D02*
X550545Y41275D01*
X556895Y41275D01*
X561975Y46990D02*
X561978Y47215D01*
X561986Y47440D01*
X561999Y47664D01*
X562018Y47888D01*
X562042Y48112D01*
X562071Y48335D01*
X562106Y48557D01*
X562146Y48778D01*
X562192Y48998D01*
X562242Y49217D01*
X562298Y49435D01*
X562359Y49652D01*
X562425Y49867D01*
X562496Y50080D01*
X562573Y50291D01*
X562654Y50501D01*
X562740Y50709D01*
X562831Y50914D01*
X562927Y51117D01*
X562927Y51118D02*
X562959Y51206D01*
X562995Y51293D01*
X563034Y51379D01*
X563077Y51463D01*
X563123Y51545D01*
X563172Y51625D01*
X563224Y51703D01*
X563280Y51779D01*
X563338Y51853D01*
X563400Y51924D01*
X563464Y51993D01*
X563531Y52059D01*
X563600Y52122D01*
X563672Y52183D01*
X563746Y52241D01*
X563823Y52295D01*
X563901Y52347D01*
X563982Y52395D01*
X564064Y52440D01*
X564149Y52482D01*
X564235Y52520D01*
X564322Y52555D01*
X564410Y52587D01*
X564500Y52614D01*
X564591Y52639D01*
X564683Y52659D01*
X564775Y52676D01*
X564869Y52689D01*
X564962Y52698D01*
X565056Y52704D01*
X565150Y52706D01*
X565244Y52704D01*
X565338Y52698D01*
X565431Y52689D01*
X565525Y52676D01*
X565617Y52659D01*
X565709Y52639D01*
X565800Y52614D01*
X565890Y52587D01*
X565978Y52555D01*
X566065Y52520D01*
X566151Y52482D01*
X566236Y52440D01*
X566318Y52395D01*
X566399Y52347D01*
X566477Y52295D01*
X566554Y52241D01*
X566628Y52183D01*
X566700Y52122D01*
X566769Y52059D01*
X566836Y51993D01*
X566900Y51924D01*
X566962Y51853D01*
X567020Y51779D01*
X567076Y51703D01*
X567128Y51625D01*
X567177Y51545D01*
X567223Y51463D01*
X567266Y51379D01*
X567305Y51293D01*
X567341Y51206D01*
X567373Y51118D01*
X567373Y51117D02*
X567469Y50914D01*
X567560Y50709D01*
X567646Y50501D01*
X567727Y50291D01*
X567804Y50080D01*
X567875Y49867D01*
X567941Y49652D01*
X568002Y49435D01*
X568058Y49217D01*
X568108Y48998D01*
X568154Y48778D01*
X568194Y48557D01*
X568229Y48335D01*
X568258Y48112D01*
X568282Y47888D01*
X568301Y47664D01*
X568314Y47440D01*
X568322Y47215D01*
X568325Y46990D01*
X561975Y46990D02*
X561978Y46765D01*
X561986Y46540D01*
X561999Y46316D01*
X562018Y46092D01*
X562042Y45868D01*
X562071Y45645D01*
X562106Y45423D01*
X562146Y45202D01*
X562192Y44982D01*
X562242Y44763D01*
X562298Y44545D01*
X562359Y44328D01*
X562425Y44113D01*
X562496Y43900D01*
X562573Y43689D01*
X562654Y43479D01*
X562740Y43271D01*
X562831Y43066D01*
X562927Y42863D01*
X562959Y42775D01*
X562995Y42688D01*
X563034Y42602D01*
X563077Y42518D01*
X563123Y42436D01*
X563172Y42356D01*
X563224Y42278D01*
X563280Y42202D01*
X563338Y42128D01*
X563400Y42057D01*
X563464Y41988D01*
X563531Y41922D01*
X563600Y41859D01*
X563672Y41798D01*
X563746Y41740D01*
X563823Y41686D01*
X563901Y41634D01*
X563982Y41586D01*
X564064Y41541D01*
X564149Y41499D01*
X564235Y41461D01*
X564322Y41426D01*
X564410Y41394D01*
X564500Y41367D01*
X564591Y41342D01*
X564683Y41322D01*
X564775Y41305D01*
X564869Y41292D01*
X564962Y41283D01*
X565056Y41277D01*
X565150Y41275D01*
X567373Y42863D02*
X567469Y43066D01*
X567560Y43271D01*
X567646Y43479D01*
X567727Y43689D01*
X567804Y43900D01*
X567875Y44113D01*
X567941Y44328D01*
X568002Y44545D01*
X568058Y44763D01*
X568108Y44982D01*
X568154Y45202D01*
X568194Y45423D01*
X568229Y45645D01*
X568258Y45868D01*
X568282Y46092D01*
X568301Y46316D01*
X568314Y46540D01*
X568322Y46765D01*
X568325Y46990D01*
X567373Y42863D02*
X567341Y42775D01*
X567305Y42688D01*
X567266Y42602D01*
X567223Y42518D01*
X567177Y42436D01*
X567128Y42356D01*
X567076Y42278D01*
X567020Y42202D01*
X566962Y42128D01*
X566900Y42057D01*
X566836Y41988D01*
X566769Y41922D01*
X566700Y41859D01*
X566628Y41798D01*
X566554Y41740D01*
X566477Y41686D01*
X566399Y41634D01*
X566318Y41586D01*
X566236Y41541D01*
X566151Y41499D01*
X566065Y41461D01*
X565978Y41426D01*
X565890Y41394D01*
X565800Y41367D01*
X565709Y41342D01*
X565617Y41322D01*
X565525Y41305D01*
X565431Y41292D01*
X565338Y41283D01*
X565244Y41277D01*
X565150Y41275D01*
X562610Y43815D02*
X567690Y50165D01*
D14*
X66040Y289560D02*
X66040Y314960D01*
X66040Y289560D02*
X88900Y289560D01*
X91440Y292100D01*
X93980Y289560D01*
X114300Y289560D01*
X116840Y292100D01*
X119380Y289560D01*
X139700Y289560D01*
X142240Y292100D01*
X144780Y289560D01*
X165100Y289560D01*
X167640Y292100D01*
X170180Y289560D01*
X167640Y312420D02*
X170180Y314960D01*
X167640Y312420D02*
X165100Y314960D01*
X144780Y314960D01*
X142240Y312420D01*
X139700Y314960D01*
X119380Y314960D01*
X116840Y312420D01*
X114300Y314960D01*
X93980Y314960D01*
X91440Y312420D01*
X88900Y314960D01*
X66040Y314960D01*
X170180Y289560D02*
X190500Y289560D01*
X193040Y292100D01*
X195580Y289560D01*
X215900Y289560D01*
X218440Y292100D01*
X220980Y289560D01*
X218440Y312420D02*
X220980Y314960D01*
X218440Y312420D02*
X215900Y314960D01*
X195580Y314960D01*
X193040Y312420D01*
X190500Y314960D01*
X170180Y314960D01*
X241300Y314960D02*
X243840Y312420D01*
X246380Y314960D01*
X241300Y314960D02*
X220980Y314960D01*
X243840Y292100D02*
X246380Y289560D01*
X243840Y292100D02*
X241300Y289560D01*
X220980Y289560D01*
X292100Y289560D02*
X294640Y292100D01*
X297180Y289560D01*
X317500Y289560D01*
X320040Y292100D01*
X322580Y289560D01*
X342900Y289560D01*
X345440Y292100D01*
X347980Y289560D01*
X368300Y289560D01*
X370840Y292100D01*
X373380Y289560D01*
X370840Y312420D02*
X373380Y314960D01*
X370840Y312420D02*
X368300Y314960D01*
X347980Y314960D01*
X345440Y312420D01*
X342900Y314960D01*
X322580Y314960D01*
X320040Y312420D01*
X317500Y314960D01*
X297180Y314960D01*
X294640Y312420D01*
X292100Y314960D01*
X373380Y289560D02*
X393700Y289560D01*
X396240Y292100D01*
X398780Y289560D01*
X419100Y289560D01*
X421640Y292100D01*
X424180Y289560D01*
X421640Y312420D02*
X424180Y314960D01*
X421640Y312420D02*
X419100Y314960D01*
X398780Y314960D01*
X396240Y312420D01*
X393700Y314960D01*
X373380Y314960D01*
X449580Y289560D02*
X469900Y289560D01*
X447040Y312420D02*
X444500Y314960D01*
X447040Y312420D02*
X449580Y314960D01*
X444500Y314960D02*
X424180Y314960D01*
X447040Y292100D02*
X449580Y289560D01*
X447040Y292100D02*
X444500Y289560D01*
X424180Y289560D01*
X495300Y289560D02*
X497840Y292100D01*
X500380Y289560D01*
X520700Y289560D01*
X523240Y292100D01*
X525780Y289560D01*
X546100Y289560D01*
X548640Y292100D01*
X551180Y289560D01*
X548640Y312420D02*
X551180Y314960D01*
X548640Y312420D02*
X546100Y314960D01*
X525780Y314960D01*
X523240Y312420D01*
X520700Y314960D01*
X500380Y314960D01*
X497840Y312420D01*
X495300Y314960D01*
X574040Y314960D02*
X574040Y289560D01*
X551180Y289560D01*
X551180Y314960D02*
X574040Y314960D01*
X472440Y292100D02*
X469900Y289560D01*
X472440Y292100D02*
X474980Y289560D01*
X472440Y312420D02*
X469900Y314960D01*
X472440Y312420D02*
X474980Y314960D01*
X495300Y314960D01*
X495300Y289560D02*
X474980Y289560D01*
X469900Y314960D02*
X449580Y314960D01*
X266700Y314960D02*
X246380Y314960D01*
X246380Y289560D02*
X266700Y289560D01*
X271780Y289560D02*
X292100Y289560D01*
X271780Y289560D02*
X269240Y292100D01*
X266700Y289560D01*
X269240Y312420D02*
X266700Y314960D01*
X269240Y312420D02*
X271780Y314960D01*
X292100Y314960D01*
D10*
X111125Y321945D02*
X111123Y321845D01*
X111117Y321746D01*
X111107Y321646D01*
X111094Y321548D01*
X111076Y321449D01*
X111055Y321352D01*
X111030Y321256D01*
X111001Y321160D01*
X110968Y321066D01*
X110932Y320973D01*
X110892Y320882D01*
X110848Y320792D01*
X110801Y320704D01*
X110751Y320618D01*
X110697Y320534D01*
X110640Y320452D01*
X110580Y320373D01*
X110516Y320295D01*
X110450Y320221D01*
X110381Y320149D01*
X110309Y320080D01*
X110235Y320014D01*
X110157Y319950D01*
X110078Y319890D01*
X109996Y319833D01*
X109912Y319779D01*
X109826Y319729D01*
X109738Y319682D01*
X109648Y319638D01*
X109557Y319598D01*
X109464Y319562D01*
X109370Y319529D01*
X109274Y319500D01*
X109178Y319475D01*
X109081Y319454D01*
X108982Y319436D01*
X108884Y319423D01*
X108784Y319413D01*
X108685Y319407D01*
X108585Y319405D01*
X108444Y319407D01*
X108303Y319412D01*
X108162Y319422D01*
X108021Y319435D01*
X107881Y319451D01*
X107741Y319472D01*
X107602Y319496D01*
X107463Y319524D01*
X107326Y319555D01*
X107189Y319590D01*
X107053Y319628D01*
X106918Y319670D01*
X106785Y319716D01*
X106652Y319765D01*
X106521Y319818D01*
X106392Y319874D01*
X106263Y319933D01*
X106137Y319996D01*
X106012Y320062D01*
X105889Y320131D01*
X105768Y320204D01*
X105649Y320280D01*
X105531Y320359D01*
X105416Y320440D01*
X105304Y320525D01*
X105193Y320613D01*
X105085Y320704D01*
X104979Y320797D01*
X104876Y320894D01*
X104775Y320993D01*
X105093Y328295D02*
X105095Y328395D01*
X105101Y328494D01*
X105111Y328594D01*
X105124Y328692D01*
X105142Y328791D01*
X105163Y328888D01*
X105188Y328984D01*
X105217Y329080D01*
X105250Y329174D01*
X105286Y329267D01*
X105326Y329358D01*
X105370Y329448D01*
X105417Y329536D01*
X105467Y329622D01*
X105521Y329706D01*
X105578Y329788D01*
X105638Y329867D01*
X105702Y329945D01*
X105768Y330019D01*
X105837Y330091D01*
X105909Y330160D01*
X105983Y330226D01*
X106061Y330290D01*
X106140Y330350D01*
X106222Y330407D01*
X106306Y330461D01*
X106392Y330511D01*
X106480Y330558D01*
X106570Y330602D01*
X106661Y330642D01*
X106754Y330678D01*
X106848Y330711D01*
X106944Y330740D01*
X107040Y330765D01*
X107137Y330786D01*
X107236Y330804D01*
X107334Y330817D01*
X107434Y330827D01*
X107533Y330833D01*
X107633Y330835D01*
X107633Y330836D02*
X107766Y330834D01*
X107899Y330829D01*
X108032Y330819D01*
X108165Y330806D01*
X108297Y330789D01*
X108429Y330769D01*
X108560Y330745D01*
X108690Y330717D01*
X108820Y330686D01*
X108948Y330651D01*
X109076Y330612D01*
X109202Y330570D01*
X109327Y330524D01*
X109451Y330475D01*
X109574Y330423D01*
X109695Y330367D01*
X109814Y330307D01*
X109932Y330245D01*
X110047Y330179D01*
X110161Y330110D01*
X110273Y330037D01*
X110383Y329962D01*
X110491Y329883D01*
X106362Y326072D02*
X106278Y326124D01*
X106195Y326179D01*
X106115Y326238D01*
X106037Y326299D01*
X105962Y326363D01*
X105889Y326431D01*
X105818Y326501D01*
X105751Y326573D01*
X105686Y326648D01*
X105624Y326726D01*
X105565Y326806D01*
X105509Y326888D01*
X105457Y326972D01*
X105408Y327058D01*
X105362Y327146D01*
X105319Y327236D01*
X105280Y327327D01*
X105245Y327420D01*
X105213Y327514D01*
X105185Y327609D01*
X105160Y327705D01*
X105140Y327802D01*
X105122Y327900D01*
X105109Y327998D01*
X105100Y328097D01*
X105094Y328196D01*
X105092Y328295D01*
X109855Y324168D02*
X109939Y324116D01*
X110022Y324061D01*
X110102Y324002D01*
X110180Y323941D01*
X110255Y323877D01*
X110328Y323809D01*
X110399Y323739D01*
X110466Y323667D01*
X110531Y323592D01*
X110593Y323514D01*
X110652Y323434D01*
X110708Y323352D01*
X110760Y323268D01*
X110809Y323182D01*
X110855Y323094D01*
X110898Y323004D01*
X110937Y322913D01*
X110972Y322820D01*
X111004Y322726D01*
X111032Y322631D01*
X111057Y322535D01*
X111077Y322438D01*
X111095Y322340D01*
X111108Y322242D01*
X111117Y322143D01*
X111123Y322044D01*
X111125Y321945D01*
X109855Y324168D02*
X106363Y326073D01*
X115189Y330835D02*
X118999Y319405D01*
X122809Y330835D01*
X129794Y330835D02*
X127254Y321945D01*
X133604Y321945D01*
X131699Y324485D02*
X131699Y319405D01*
X77470Y329565D02*
X74295Y327025D01*
X77470Y329565D02*
X77470Y318135D01*
X74295Y318135D02*
X80645Y318135D01*
X554038Y329566D02*
X554142Y329564D01*
X554247Y329558D01*
X554351Y329549D01*
X554454Y329536D01*
X554557Y329518D01*
X554659Y329498D01*
X554761Y329473D01*
X554861Y329445D01*
X554961Y329413D01*
X555059Y329377D01*
X555156Y329338D01*
X555251Y329296D01*
X555345Y329250D01*
X555437Y329200D01*
X555527Y329148D01*
X555615Y329092D01*
X555701Y329032D01*
X555785Y328970D01*
X555866Y328905D01*
X555945Y328837D01*
X556022Y328765D01*
X556095Y328692D01*
X556167Y328615D01*
X556235Y328536D01*
X556300Y328455D01*
X556362Y328371D01*
X556422Y328285D01*
X556478Y328197D01*
X556530Y328107D01*
X556580Y328015D01*
X556626Y327921D01*
X556668Y327826D01*
X556707Y327729D01*
X556743Y327631D01*
X556775Y327531D01*
X556803Y327431D01*
X556828Y327329D01*
X556848Y327227D01*
X556866Y327124D01*
X556879Y327021D01*
X556888Y326917D01*
X556894Y326812D01*
X556896Y326708D01*
X554038Y329565D02*
X553920Y329563D01*
X553801Y329557D01*
X553683Y329548D01*
X553566Y329535D01*
X553449Y329517D01*
X553332Y329497D01*
X553216Y329472D01*
X553101Y329444D01*
X552988Y329411D01*
X552875Y329376D01*
X552763Y329336D01*
X552653Y329294D01*
X552544Y329247D01*
X552436Y329197D01*
X552331Y329144D01*
X552227Y329087D01*
X552125Y329027D01*
X552025Y328964D01*
X551927Y328897D01*
X551831Y328828D01*
X551738Y328755D01*
X551647Y328679D01*
X551558Y328601D01*
X551472Y328519D01*
X551389Y328435D01*
X551308Y328349D01*
X551231Y328259D01*
X551156Y328168D01*
X551084Y328074D01*
X551015Y327977D01*
X550950Y327879D01*
X550887Y327778D01*
X550828Y327675D01*
X550772Y327571D01*
X550720Y327465D01*
X550671Y327357D01*
X550626Y327248D01*
X550584Y327137D01*
X550546Y327025D01*
X555943Y324486D02*
X556019Y324561D01*
X556094Y324640D01*
X556165Y324721D01*
X556234Y324805D01*
X556299Y324891D01*
X556361Y324979D01*
X556421Y325069D01*
X556477Y325161D01*
X556530Y325256D01*
X556579Y325352D01*
X556625Y325450D01*
X556668Y325549D01*
X556707Y325650D01*
X556742Y325752D01*
X556774Y325855D01*
X556802Y325959D01*
X556827Y326064D01*
X556848Y326171D01*
X556865Y326277D01*
X556878Y326384D01*
X556887Y326492D01*
X556893Y326600D01*
X556895Y326708D01*
X555943Y324485D02*
X550545Y318135D01*
X556895Y318135D01*
X561975Y323850D02*
X561978Y324075D01*
X561986Y324300D01*
X561999Y324524D01*
X562018Y324748D01*
X562042Y324972D01*
X562071Y325195D01*
X562106Y325417D01*
X562146Y325638D01*
X562192Y325858D01*
X562242Y326077D01*
X562298Y326295D01*
X562359Y326512D01*
X562425Y326727D01*
X562496Y326940D01*
X562573Y327151D01*
X562654Y327361D01*
X562740Y327569D01*
X562831Y327774D01*
X562927Y327977D01*
X562927Y327978D02*
X562959Y328066D01*
X562995Y328153D01*
X563034Y328239D01*
X563077Y328323D01*
X563123Y328405D01*
X563172Y328485D01*
X563224Y328563D01*
X563280Y328639D01*
X563338Y328713D01*
X563400Y328784D01*
X563464Y328853D01*
X563531Y328919D01*
X563600Y328982D01*
X563672Y329043D01*
X563746Y329101D01*
X563823Y329155D01*
X563901Y329207D01*
X563982Y329255D01*
X564064Y329300D01*
X564149Y329342D01*
X564235Y329380D01*
X564322Y329415D01*
X564410Y329447D01*
X564500Y329474D01*
X564591Y329499D01*
X564683Y329519D01*
X564775Y329536D01*
X564869Y329549D01*
X564962Y329558D01*
X565056Y329564D01*
X565150Y329566D01*
X565244Y329564D01*
X565338Y329558D01*
X565431Y329549D01*
X565525Y329536D01*
X565617Y329519D01*
X565709Y329499D01*
X565800Y329474D01*
X565890Y329447D01*
X565978Y329415D01*
X566065Y329380D01*
X566151Y329342D01*
X566236Y329300D01*
X566318Y329255D01*
X566399Y329207D01*
X566477Y329155D01*
X566554Y329101D01*
X566628Y329043D01*
X566700Y328982D01*
X566769Y328919D01*
X566836Y328853D01*
X566900Y328784D01*
X566962Y328713D01*
X567020Y328639D01*
X567076Y328563D01*
X567128Y328485D01*
X567177Y328405D01*
X567223Y328323D01*
X567266Y328239D01*
X567305Y328153D01*
X567341Y328066D01*
X567373Y327978D01*
X567373Y327977D02*
X567469Y327774D01*
X567560Y327569D01*
X567646Y327361D01*
X567727Y327151D01*
X567804Y326940D01*
X567875Y326727D01*
X567941Y326512D01*
X568002Y326295D01*
X568058Y326077D01*
X568108Y325858D01*
X568154Y325638D01*
X568194Y325417D01*
X568229Y325195D01*
X568258Y324972D01*
X568282Y324748D01*
X568301Y324524D01*
X568314Y324300D01*
X568322Y324075D01*
X568325Y323850D01*
X561975Y323850D02*
X561978Y323625D01*
X561986Y323400D01*
X561999Y323176D01*
X562018Y322952D01*
X562042Y322728D01*
X562071Y322505D01*
X562106Y322283D01*
X562146Y322062D01*
X562192Y321842D01*
X562242Y321623D01*
X562298Y321405D01*
X562359Y321188D01*
X562425Y320973D01*
X562496Y320760D01*
X562573Y320549D01*
X562654Y320339D01*
X562740Y320131D01*
X562831Y319926D01*
X562927Y319723D01*
X562959Y319635D01*
X562995Y319548D01*
X563034Y319462D01*
X563077Y319378D01*
X563123Y319296D01*
X563172Y319216D01*
X563224Y319138D01*
X563280Y319062D01*
X563338Y318988D01*
X563400Y318917D01*
X563464Y318848D01*
X563531Y318782D01*
X563600Y318719D01*
X563672Y318658D01*
X563746Y318600D01*
X563823Y318546D01*
X563901Y318494D01*
X563982Y318446D01*
X564064Y318401D01*
X564149Y318359D01*
X564235Y318321D01*
X564322Y318286D01*
X564410Y318254D01*
X564500Y318227D01*
X564591Y318202D01*
X564683Y318182D01*
X564775Y318165D01*
X564869Y318152D01*
X564962Y318143D01*
X565056Y318137D01*
X565150Y318135D01*
X567373Y319723D02*
X567469Y319926D01*
X567560Y320131D01*
X567646Y320339D01*
X567727Y320549D01*
X567804Y320760D01*
X567875Y320973D01*
X567941Y321188D01*
X568002Y321405D01*
X568058Y321623D01*
X568108Y321842D01*
X568154Y322062D01*
X568194Y322283D01*
X568229Y322505D01*
X568258Y322728D01*
X568282Y322952D01*
X568301Y323176D01*
X568314Y323400D01*
X568322Y323625D01*
X568325Y323850D01*
X567373Y319723D02*
X567341Y319635D01*
X567305Y319548D01*
X567266Y319462D01*
X567223Y319378D01*
X567177Y319296D01*
X567128Y319216D01*
X567076Y319138D01*
X567020Y319062D01*
X566962Y318988D01*
X566900Y318917D01*
X566836Y318848D01*
X566769Y318782D01*
X566700Y318719D01*
X566628Y318658D01*
X566554Y318600D01*
X566477Y318546D01*
X566399Y318494D01*
X566318Y318446D01*
X566236Y318401D01*
X566151Y318359D01*
X566065Y318321D01*
X565978Y318286D01*
X565890Y318254D01*
X565800Y318227D01*
X565709Y318202D01*
X565617Y318182D01*
X565525Y318165D01*
X565431Y318152D01*
X565338Y318143D01*
X565244Y318137D01*
X565150Y318135D01*
X562610Y320675D02*
X567690Y327025D01*
D16*
X257843Y180917D02*
X252186Y175260D01*
X257843Y169603D01*
X301683Y224757D02*
X307340Y230414D01*
X312997Y224757D01*
X362494Y175260D02*
X356837Y169603D01*
X362494Y175260D02*
X356837Y180917D01*
X312997Y125763D02*
X307340Y120106D01*
X301683Y125763D01*
D17*
X266387Y175260D02*
X266389Y175351D01*
X266395Y175441D01*
X266405Y175531D01*
X266419Y175621D01*
X266437Y175709D01*
X266458Y175797D01*
X266484Y175884D01*
X266513Y175970D01*
X266546Y176054D01*
X266583Y176137D01*
X266623Y176218D01*
X266667Y176298D01*
X266714Y176375D01*
X266765Y176450D01*
X266819Y176523D01*
X266876Y176593D01*
X266936Y176661D01*
X266999Y176726D01*
X267065Y176788D01*
X267133Y176848D01*
X267204Y176904D01*
X267278Y176957D01*
X267353Y177007D01*
X267431Y177053D01*
X267511Y177096D01*
X267592Y177136D01*
X267676Y177171D01*
X267760Y177204D01*
X267846Y177232D01*
X267934Y177257D01*
X268022Y177277D01*
X268111Y177294D01*
X268200Y177307D01*
X268291Y177316D01*
X268381Y177321D01*
X268472Y177322D01*
X268562Y177319D01*
X268653Y177312D01*
X268742Y177301D01*
X268832Y177286D01*
X268920Y177267D01*
X269008Y177245D01*
X269095Y177218D01*
X269180Y177188D01*
X269264Y177154D01*
X269347Y177116D01*
X269427Y177075D01*
X269506Y177030D01*
X269583Y176982D01*
X269657Y176931D01*
X269730Y176876D01*
X269799Y176818D01*
X269866Y176758D01*
X269931Y176694D01*
X269992Y176627D01*
X270051Y176558D01*
X270106Y176487D01*
X270159Y176413D01*
X270208Y176336D01*
X270253Y176258D01*
X270295Y176178D01*
X270334Y176096D01*
X270369Y176012D01*
X270400Y175927D01*
X270427Y175841D01*
X270451Y175753D01*
X270471Y175665D01*
X270487Y175576D01*
X270499Y175486D01*
X270507Y175396D01*
X270511Y175305D01*
X270511Y175215D01*
X270507Y175124D01*
X270499Y175034D01*
X270487Y174944D01*
X270471Y174855D01*
X270451Y174767D01*
X270427Y174679D01*
X270400Y174593D01*
X270369Y174508D01*
X270334Y174424D01*
X270295Y174342D01*
X270253Y174262D01*
X270208Y174184D01*
X270159Y174107D01*
X270106Y174033D01*
X270051Y173962D01*
X269992Y173893D01*
X269931Y173826D01*
X269866Y173762D01*
X269799Y173702D01*
X269730Y173644D01*
X269657Y173589D01*
X269583Y173538D01*
X269506Y173490D01*
X269427Y173445D01*
X269347Y173404D01*
X269264Y173366D01*
X269180Y173332D01*
X269095Y173302D01*
X269008Y173275D01*
X268920Y173253D01*
X268832Y173234D01*
X268742Y173219D01*
X268653Y173208D01*
X268562Y173201D01*
X268472Y173198D01*
X268381Y173199D01*
X268291Y173204D01*
X268200Y173213D01*
X268111Y173226D01*
X268022Y173243D01*
X267934Y173263D01*
X267846Y173288D01*
X267760Y173316D01*
X267676Y173349D01*
X267592Y173384D01*
X267511Y173424D01*
X267431Y173467D01*
X267353Y173513D01*
X267278Y173563D01*
X267204Y173616D01*
X267133Y173672D01*
X267065Y173732D01*
X266999Y173794D01*
X266936Y173859D01*
X266876Y173927D01*
X266819Y173997D01*
X266765Y174070D01*
X266714Y174145D01*
X266667Y174222D01*
X266623Y174302D01*
X266583Y174383D01*
X266546Y174466D01*
X266513Y174550D01*
X266484Y174636D01*
X266458Y174723D01*
X266437Y174811D01*
X266419Y174899D01*
X266405Y174989D01*
X266395Y175079D01*
X266389Y175169D01*
X266387Y175260D01*
D15*
X129300Y216800D02*
X99300Y216800D01*
X99300Y138800D02*
X129300Y138800D01*
X99300Y163800D02*
X99300Y191800D01*
X129300Y191800D02*
X129300Y163800D01*
X119300Y139800D02*
X119298Y139940D01*
X119292Y140080D01*
X119282Y140220D01*
X119269Y140360D01*
X119251Y140499D01*
X119229Y140638D01*
X119204Y140775D01*
X119175Y140913D01*
X119142Y141049D01*
X119105Y141184D01*
X119064Y141318D01*
X119019Y141451D01*
X118971Y141583D01*
X118919Y141713D01*
X118864Y141842D01*
X118805Y141969D01*
X118742Y142095D01*
X118676Y142219D01*
X118607Y142340D01*
X118534Y142460D01*
X118457Y142578D01*
X118378Y142693D01*
X118295Y142807D01*
X118209Y142917D01*
X118120Y143026D01*
X118028Y143132D01*
X117933Y143235D01*
X117836Y143336D01*
X117735Y143433D01*
X117632Y143528D01*
X117526Y143620D01*
X117417Y143709D01*
X117307Y143795D01*
X117193Y143878D01*
X117078Y143957D01*
X116960Y144034D01*
X116840Y144107D01*
X116719Y144176D01*
X116595Y144242D01*
X116469Y144305D01*
X116342Y144364D01*
X116213Y144419D01*
X116083Y144471D01*
X115951Y144519D01*
X115818Y144564D01*
X115684Y144605D01*
X115549Y144642D01*
X115413Y144675D01*
X115275Y144704D01*
X115138Y144729D01*
X114999Y144751D01*
X114860Y144769D01*
X114720Y144782D01*
X114580Y144792D01*
X114440Y144798D01*
X114300Y144800D01*
X114160Y144798D01*
X114020Y144792D01*
X113880Y144782D01*
X113740Y144769D01*
X113601Y144751D01*
X113462Y144729D01*
X113325Y144704D01*
X113187Y144675D01*
X113051Y144642D01*
X112916Y144605D01*
X112782Y144564D01*
X112649Y144519D01*
X112517Y144471D01*
X112387Y144419D01*
X112258Y144364D01*
X112131Y144305D01*
X112005Y144242D01*
X111881Y144176D01*
X111760Y144107D01*
X111640Y144034D01*
X111522Y143957D01*
X111407Y143878D01*
X111293Y143795D01*
X111183Y143709D01*
X111074Y143620D01*
X110968Y143528D01*
X110865Y143433D01*
X110764Y143336D01*
X110667Y143235D01*
X110572Y143132D01*
X110480Y143026D01*
X110391Y142917D01*
X110305Y142807D01*
X110222Y142693D01*
X110143Y142578D01*
X110066Y142460D01*
X109993Y142340D01*
X109924Y142219D01*
X109858Y142095D01*
X109795Y141969D01*
X109736Y141842D01*
X109681Y141713D01*
X109629Y141583D01*
X109581Y141451D01*
X109536Y141318D01*
X109495Y141184D01*
X109458Y141049D01*
X109425Y140913D01*
X109396Y140775D01*
X109371Y140638D01*
X109349Y140499D01*
X109331Y140360D01*
X109318Y140220D01*
X109308Y140080D01*
X109302Y139940D01*
X109300Y139800D01*
D11*
X82396Y138116D02*
X77204Y138116D01*
X77091Y138118D01*
X76978Y138124D01*
X76865Y138134D01*
X76752Y138148D01*
X76640Y138165D01*
X76529Y138187D01*
X76419Y138212D01*
X76309Y138242D01*
X76201Y138275D01*
X76094Y138312D01*
X75988Y138352D01*
X75884Y138397D01*
X75781Y138445D01*
X75680Y138496D01*
X75581Y138551D01*
X75484Y138609D01*
X75389Y138671D01*
X75296Y138736D01*
X75206Y138804D01*
X75118Y138875D01*
X75032Y138950D01*
X74949Y139027D01*
X74869Y139107D01*
X74792Y139190D01*
X74717Y139276D01*
X74646Y139364D01*
X74578Y139454D01*
X74513Y139547D01*
X74451Y139642D01*
X74393Y139739D01*
X74338Y139838D01*
X74287Y139939D01*
X74239Y140042D01*
X74194Y140146D01*
X74154Y140252D01*
X74117Y140359D01*
X74084Y140467D01*
X74054Y140577D01*
X74029Y140687D01*
X74007Y140798D01*
X73990Y140910D01*
X73976Y141023D01*
X73966Y141136D01*
X73960Y141249D01*
X73958Y141362D01*
X73960Y141475D01*
X73966Y141588D01*
X73976Y141701D01*
X73990Y141814D01*
X74007Y141926D01*
X74029Y142037D01*
X74054Y142147D01*
X74084Y142257D01*
X74117Y142365D01*
X74154Y142472D01*
X74194Y142578D01*
X74239Y142682D01*
X74287Y142785D01*
X74338Y142886D01*
X74393Y142985D01*
X74451Y143082D01*
X74513Y143177D01*
X74578Y143270D01*
X74646Y143360D01*
X74717Y143448D01*
X74792Y143534D01*
X74869Y143617D01*
X74949Y143697D01*
X75032Y143774D01*
X75118Y143849D01*
X75206Y143920D01*
X75296Y143988D01*
X75389Y144053D01*
X75484Y144115D01*
X75581Y144173D01*
X75680Y144228D01*
X75781Y144279D01*
X75884Y144327D01*
X75988Y144372D01*
X76094Y144412D01*
X76201Y144449D01*
X76309Y144482D01*
X76419Y144512D01*
X76529Y144537D01*
X76640Y144559D01*
X76752Y144576D01*
X76865Y144590D01*
X76978Y144600D01*
X77091Y144606D01*
X77204Y144608D01*
X77204Y144607D02*
X82396Y144607D01*
X82396Y144608D02*
X82509Y144606D01*
X82622Y144600D01*
X82735Y144590D01*
X82848Y144576D01*
X82960Y144559D01*
X83071Y144537D01*
X83181Y144512D01*
X83291Y144482D01*
X83399Y144449D01*
X83506Y144412D01*
X83612Y144372D01*
X83716Y144327D01*
X83819Y144279D01*
X83920Y144228D01*
X84019Y144173D01*
X84116Y144115D01*
X84211Y144053D01*
X84304Y143988D01*
X84394Y143920D01*
X84482Y143849D01*
X84568Y143774D01*
X84651Y143697D01*
X84731Y143617D01*
X84808Y143534D01*
X84883Y143448D01*
X84954Y143360D01*
X85022Y143270D01*
X85087Y143177D01*
X85149Y143082D01*
X85207Y142985D01*
X85262Y142886D01*
X85313Y142785D01*
X85361Y142682D01*
X85406Y142578D01*
X85446Y142472D01*
X85483Y142365D01*
X85516Y142257D01*
X85546Y142147D01*
X85571Y142037D01*
X85593Y141926D01*
X85610Y141814D01*
X85624Y141701D01*
X85634Y141588D01*
X85640Y141475D01*
X85642Y141362D01*
X85640Y141249D01*
X85634Y141136D01*
X85624Y141023D01*
X85610Y140910D01*
X85593Y140798D01*
X85571Y140687D01*
X85546Y140577D01*
X85516Y140467D01*
X85483Y140359D01*
X85446Y140252D01*
X85406Y140146D01*
X85361Y140042D01*
X85313Y139939D01*
X85262Y139838D01*
X85207Y139739D01*
X85149Y139642D01*
X85087Y139547D01*
X85022Y139454D01*
X84954Y139364D01*
X84883Y139276D01*
X84808Y139190D01*
X84731Y139107D01*
X84651Y139027D01*
X84568Y138950D01*
X84482Y138875D01*
X84394Y138804D01*
X84304Y138736D01*
X84211Y138671D01*
X84116Y138609D01*
X84019Y138551D01*
X83920Y138496D01*
X83819Y138445D01*
X83716Y138397D01*
X83612Y138352D01*
X83506Y138312D01*
X83399Y138275D01*
X83291Y138242D01*
X83181Y138212D01*
X83071Y138187D01*
X82960Y138165D01*
X82848Y138148D01*
X82735Y138134D01*
X82622Y138124D01*
X82509Y138118D01*
X82396Y138116D01*
X83046Y143309D02*
X85642Y145905D01*
X85642Y149260D02*
X85642Y152505D01*
X85640Y152618D01*
X85634Y152731D01*
X85624Y152844D01*
X85610Y152957D01*
X85593Y153069D01*
X85571Y153180D01*
X85546Y153290D01*
X85516Y153400D01*
X85483Y153508D01*
X85446Y153615D01*
X85406Y153721D01*
X85361Y153825D01*
X85313Y153928D01*
X85262Y154029D01*
X85207Y154128D01*
X85149Y154225D01*
X85087Y154320D01*
X85022Y154413D01*
X84954Y154503D01*
X84883Y154591D01*
X84808Y154677D01*
X84731Y154760D01*
X84651Y154840D01*
X84568Y154917D01*
X84482Y154992D01*
X84394Y155063D01*
X84304Y155131D01*
X84211Y155196D01*
X84116Y155258D01*
X84019Y155316D01*
X83920Y155371D01*
X83819Y155422D01*
X83716Y155470D01*
X83612Y155515D01*
X83506Y155555D01*
X83399Y155592D01*
X83291Y155625D01*
X83181Y155655D01*
X83071Y155680D01*
X82960Y155702D01*
X82848Y155719D01*
X82735Y155733D01*
X82622Y155743D01*
X82509Y155749D01*
X82396Y155751D01*
X82283Y155749D01*
X82170Y155743D01*
X82057Y155733D01*
X81944Y155719D01*
X81832Y155702D01*
X81721Y155680D01*
X81611Y155655D01*
X81501Y155625D01*
X81393Y155592D01*
X81286Y155555D01*
X81180Y155515D01*
X81076Y155470D01*
X80973Y155422D01*
X80872Y155371D01*
X80773Y155316D01*
X80676Y155258D01*
X80581Y155196D01*
X80488Y155131D01*
X80398Y155063D01*
X80310Y154992D01*
X80224Y154917D01*
X80141Y154840D01*
X80061Y154760D01*
X79984Y154677D01*
X79909Y154591D01*
X79838Y154503D01*
X79770Y154413D01*
X79705Y154320D01*
X79643Y154225D01*
X79585Y154128D01*
X79530Y154029D01*
X79479Y153928D01*
X79431Y153825D01*
X79386Y153721D01*
X79346Y153615D01*
X79309Y153508D01*
X79276Y153400D01*
X79246Y153290D01*
X79221Y153180D01*
X79199Y153069D01*
X79182Y152957D01*
X79168Y152844D01*
X79158Y152731D01*
X79152Y152618D01*
X79150Y152505D01*
X73958Y153155D02*
X73958Y149260D01*
X73958Y153155D02*
X73960Y153256D01*
X73966Y153356D01*
X73976Y153456D01*
X73989Y153556D01*
X74007Y153655D01*
X74028Y153754D01*
X74053Y153851D01*
X74082Y153948D01*
X74115Y154043D01*
X74151Y154137D01*
X74191Y154229D01*
X74234Y154320D01*
X74281Y154409D01*
X74331Y154496D01*
X74385Y154582D01*
X74442Y154665D01*
X74502Y154745D01*
X74565Y154824D01*
X74632Y154900D01*
X74701Y154973D01*
X74773Y155043D01*
X74847Y155111D01*
X74924Y155176D01*
X75004Y155237D01*
X75086Y155296D01*
X75170Y155351D01*
X75256Y155403D01*
X75344Y155452D01*
X75434Y155497D01*
X75526Y155539D01*
X75619Y155577D01*
X75714Y155611D01*
X75809Y155642D01*
X75906Y155669D01*
X76004Y155692D01*
X76103Y155712D01*
X76203Y155727D01*
X76303Y155739D01*
X76403Y155747D01*
X76504Y155751D01*
X76604Y155751D01*
X76705Y155747D01*
X76805Y155739D01*
X76905Y155727D01*
X77005Y155712D01*
X77104Y155692D01*
X77202Y155669D01*
X77299Y155642D01*
X77394Y155611D01*
X77489Y155577D01*
X77582Y155539D01*
X77674Y155497D01*
X77764Y155452D01*
X77852Y155403D01*
X77938Y155351D01*
X78022Y155296D01*
X78104Y155237D01*
X78184Y155176D01*
X78261Y155111D01*
X78335Y155043D01*
X78407Y154973D01*
X78476Y154900D01*
X78543Y154824D01*
X78606Y154745D01*
X78666Y154665D01*
X78723Y154582D01*
X78777Y154496D01*
X78827Y154409D01*
X78874Y154320D01*
X78917Y154229D01*
X78957Y154137D01*
X78993Y154043D01*
X79026Y153948D01*
X79055Y153851D01*
X79080Y153754D01*
X79101Y153655D01*
X79119Y153556D01*
X79132Y153456D01*
X79142Y153356D01*
X79148Y153256D01*
X79150Y153155D01*
X79151Y153155D02*
X79151Y150558D01*
M02*
