G04 EAGLE Gerber X2 export*
%TF.Part,Single*%
%TF.FileFunction,Legend,Bot,1*%
%TF.FilePolarity,Positive*%
%TF.GenerationSoftware,Autodesk,EAGLE,8.6.3*%
%TF.CreationDate,2019-03-08T23:17:09Z*%
G75*
%MOMM*%
%FSLAX34Y34*%
%LPD*%
%AMOC8*
5,1,8,0,0,1.08239X$1,22.5*%
G01*
%ADD10C,0.203200*%
%ADD11R,0.762000X0.863600*%
%ADD12C,0.101600*%


D10*
X485394Y208026D02*
X425450Y208030D01*
X425450Y142490D01*
X485394Y142494D01*
D11*
X420624Y175260D03*
D12*
X475629Y162052D02*
X475629Y160754D01*
X475629Y162052D02*
X469138Y162052D01*
X472383Y150368D01*
X464199Y153614D02*
X464197Y153727D01*
X464191Y153840D01*
X464181Y153953D01*
X464167Y154066D01*
X464150Y154178D01*
X464128Y154289D01*
X464103Y154399D01*
X464073Y154509D01*
X464040Y154617D01*
X464003Y154724D01*
X463963Y154830D01*
X463918Y154934D01*
X463870Y155037D01*
X463819Y155138D01*
X463764Y155237D01*
X463706Y155334D01*
X463644Y155429D01*
X463579Y155522D01*
X463511Y155612D01*
X463440Y155700D01*
X463365Y155786D01*
X463288Y155869D01*
X463208Y155949D01*
X463125Y156026D01*
X463039Y156101D01*
X462951Y156172D01*
X462861Y156240D01*
X462768Y156305D01*
X462673Y156367D01*
X462576Y156425D01*
X462477Y156480D01*
X462376Y156531D01*
X462273Y156579D01*
X462169Y156624D01*
X462063Y156664D01*
X461956Y156701D01*
X461848Y156734D01*
X461738Y156764D01*
X461628Y156789D01*
X461517Y156811D01*
X461405Y156828D01*
X461292Y156842D01*
X461179Y156852D01*
X461066Y156858D01*
X460953Y156860D01*
X460840Y156858D01*
X460727Y156852D01*
X460614Y156842D01*
X460501Y156828D01*
X460389Y156811D01*
X460278Y156789D01*
X460168Y156764D01*
X460058Y156734D01*
X459950Y156701D01*
X459843Y156664D01*
X459737Y156624D01*
X459633Y156579D01*
X459530Y156531D01*
X459429Y156480D01*
X459330Y156425D01*
X459233Y156367D01*
X459138Y156305D01*
X459045Y156240D01*
X458955Y156172D01*
X458867Y156101D01*
X458781Y156026D01*
X458698Y155949D01*
X458618Y155869D01*
X458541Y155786D01*
X458466Y155700D01*
X458395Y155612D01*
X458327Y155522D01*
X458262Y155429D01*
X458200Y155334D01*
X458142Y155237D01*
X458087Y155138D01*
X458036Y155037D01*
X457988Y154934D01*
X457943Y154830D01*
X457903Y154724D01*
X457866Y154617D01*
X457833Y154509D01*
X457803Y154399D01*
X457778Y154289D01*
X457756Y154178D01*
X457739Y154066D01*
X457725Y153953D01*
X457715Y153840D01*
X457709Y153727D01*
X457707Y153614D01*
X457709Y153501D01*
X457715Y153388D01*
X457725Y153275D01*
X457739Y153162D01*
X457756Y153050D01*
X457778Y152939D01*
X457803Y152829D01*
X457833Y152719D01*
X457866Y152611D01*
X457903Y152504D01*
X457943Y152398D01*
X457988Y152294D01*
X458036Y152191D01*
X458087Y152090D01*
X458142Y151991D01*
X458200Y151894D01*
X458262Y151799D01*
X458327Y151706D01*
X458395Y151616D01*
X458466Y151528D01*
X458541Y151442D01*
X458618Y151359D01*
X458698Y151279D01*
X458781Y151202D01*
X458867Y151127D01*
X458955Y151056D01*
X459045Y150988D01*
X459138Y150923D01*
X459233Y150861D01*
X459330Y150803D01*
X459429Y150748D01*
X459530Y150697D01*
X459633Y150649D01*
X459737Y150604D01*
X459843Y150564D01*
X459950Y150527D01*
X460058Y150494D01*
X460168Y150464D01*
X460278Y150439D01*
X460389Y150417D01*
X460501Y150400D01*
X460614Y150386D01*
X460727Y150376D01*
X460840Y150370D01*
X460953Y150368D01*
X461066Y150370D01*
X461179Y150376D01*
X461292Y150386D01*
X461405Y150400D01*
X461517Y150417D01*
X461628Y150439D01*
X461738Y150464D01*
X461848Y150494D01*
X461956Y150527D01*
X462063Y150564D01*
X462169Y150604D01*
X462273Y150649D01*
X462376Y150697D01*
X462477Y150748D01*
X462576Y150803D01*
X462673Y150861D01*
X462768Y150923D01*
X462861Y150988D01*
X462951Y151056D01*
X463039Y151127D01*
X463125Y151202D01*
X463208Y151279D01*
X463288Y151359D01*
X463365Y151442D01*
X463440Y151528D01*
X463511Y151616D01*
X463579Y151706D01*
X463644Y151799D01*
X463706Y151894D01*
X463764Y151991D01*
X463819Y152090D01*
X463870Y152191D01*
X463918Y152294D01*
X463963Y152398D01*
X464003Y152504D01*
X464040Y152611D01*
X464073Y152719D01*
X464103Y152829D01*
X464128Y152939D01*
X464150Y153050D01*
X464167Y153162D01*
X464181Y153275D01*
X464191Y153388D01*
X464197Y153501D01*
X464199Y153614D01*
X463549Y159456D02*
X463547Y159557D01*
X463541Y159657D01*
X463531Y159757D01*
X463518Y159857D01*
X463500Y159956D01*
X463479Y160055D01*
X463454Y160152D01*
X463425Y160249D01*
X463392Y160344D01*
X463356Y160438D01*
X463316Y160530D01*
X463273Y160621D01*
X463226Y160710D01*
X463176Y160797D01*
X463122Y160883D01*
X463065Y160966D01*
X463005Y161046D01*
X462942Y161125D01*
X462875Y161201D01*
X462806Y161274D01*
X462734Y161344D01*
X462660Y161412D01*
X462583Y161477D01*
X462503Y161538D01*
X462421Y161597D01*
X462337Y161652D01*
X462251Y161704D01*
X462163Y161753D01*
X462073Y161798D01*
X461981Y161840D01*
X461888Y161878D01*
X461793Y161912D01*
X461698Y161943D01*
X461601Y161970D01*
X461503Y161993D01*
X461404Y162013D01*
X461304Y162028D01*
X461204Y162040D01*
X461104Y162048D01*
X461003Y162052D01*
X460903Y162052D01*
X460802Y162048D01*
X460702Y162040D01*
X460602Y162028D01*
X460502Y162013D01*
X460403Y161993D01*
X460305Y161970D01*
X460208Y161943D01*
X460113Y161912D01*
X460018Y161878D01*
X459925Y161840D01*
X459833Y161798D01*
X459743Y161753D01*
X459655Y161704D01*
X459569Y161652D01*
X459485Y161597D01*
X459403Y161538D01*
X459323Y161477D01*
X459246Y161412D01*
X459172Y161344D01*
X459100Y161274D01*
X459031Y161201D01*
X458964Y161125D01*
X458901Y161046D01*
X458841Y160966D01*
X458784Y160883D01*
X458730Y160797D01*
X458680Y160710D01*
X458633Y160621D01*
X458590Y160530D01*
X458550Y160438D01*
X458514Y160344D01*
X458481Y160249D01*
X458452Y160152D01*
X458427Y160055D01*
X458406Y159956D01*
X458388Y159857D01*
X458375Y159757D01*
X458365Y159657D01*
X458359Y159557D01*
X458357Y159456D01*
X458359Y159355D01*
X458365Y159255D01*
X458375Y159155D01*
X458388Y159055D01*
X458406Y158956D01*
X458427Y158857D01*
X458452Y158760D01*
X458481Y158663D01*
X458514Y158568D01*
X458550Y158474D01*
X458590Y158382D01*
X458633Y158291D01*
X458680Y158202D01*
X458730Y158115D01*
X458784Y158029D01*
X458841Y157946D01*
X458901Y157866D01*
X458964Y157787D01*
X459031Y157711D01*
X459100Y157638D01*
X459172Y157568D01*
X459246Y157500D01*
X459323Y157435D01*
X459403Y157374D01*
X459485Y157315D01*
X459569Y157260D01*
X459655Y157208D01*
X459743Y157159D01*
X459833Y157114D01*
X459925Y157072D01*
X460018Y157034D01*
X460113Y157000D01*
X460208Y156969D01*
X460305Y156942D01*
X460403Y156919D01*
X460502Y156899D01*
X460602Y156884D01*
X460702Y156872D01*
X460802Y156864D01*
X460903Y156860D01*
X461003Y156860D01*
X461104Y156864D01*
X461204Y156872D01*
X461304Y156884D01*
X461404Y156899D01*
X461503Y156919D01*
X461601Y156942D01*
X461698Y156969D01*
X461793Y157000D01*
X461888Y157034D01*
X461981Y157072D01*
X462073Y157114D01*
X462163Y157159D01*
X462251Y157208D01*
X462337Y157260D01*
X462421Y157315D01*
X462503Y157374D01*
X462583Y157435D01*
X462660Y157500D01*
X462734Y157568D01*
X462806Y157638D01*
X462875Y157711D01*
X462942Y157787D01*
X463005Y157866D01*
X463065Y157946D01*
X463122Y158029D01*
X463176Y158115D01*
X463226Y158202D01*
X463273Y158291D01*
X463316Y158382D01*
X463356Y158474D01*
X463392Y158568D01*
X463425Y158663D01*
X463454Y158760D01*
X463479Y158857D01*
X463500Y158956D01*
X463518Y159055D01*
X463531Y159155D01*
X463541Y159255D01*
X463547Y159355D01*
X463549Y159456D01*
X452770Y156210D02*
X452767Y156440D01*
X452759Y156670D01*
X452745Y156899D01*
X452726Y157128D01*
X452701Y157357D01*
X452671Y157585D01*
X452636Y157812D01*
X452595Y158038D01*
X452549Y158263D01*
X452497Y158487D01*
X452440Y158710D01*
X452378Y158931D01*
X452310Y159151D01*
X452237Y159369D01*
X452159Y159585D01*
X452076Y159799D01*
X451988Y160012D01*
X451895Y160222D01*
X451796Y160429D01*
X451763Y160519D01*
X451727Y160608D01*
X451687Y160696D01*
X451643Y160781D01*
X451596Y160865D01*
X451546Y160947D01*
X451492Y161027D01*
X451436Y161104D01*
X451376Y161180D01*
X451313Y161253D01*
X451248Y161323D01*
X451179Y161391D01*
X451108Y161455D01*
X451035Y161517D01*
X450959Y161576D01*
X450881Y161632D01*
X450800Y161685D01*
X450718Y161734D01*
X450634Y161780D01*
X450547Y161823D01*
X450460Y161862D01*
X450370Y161898D01*
X450280Y161930D01*
X450188Y161958D01*
X450095Y161983D01*
X450001Y162004D01*
X449907Y162021D01*
X449812Y162035D01*
X449716Y162044D01*
X449620Y162050D01*
X449524Y162052D01*
X449428Y162050D01*
X449332Y162044D01*
X449236Y162035D01*
X449141Y162021D01*
X449047Y162004D01*
X448953Y161983D01*
X448860Y161958D01*
X448768Y161930D01*
X448678Y161898D01*
X448588Y161862D01*
X448501Y161823D01*
X448414Y161780D01*
X448330Y161734D01*
X448248Y161685D01*
X448167Y161632D01*
X448089Y161576D01*
X448013Y161517D01*
X447940Y161455D01*
X447869Y161391D01*
X447800Y161323D01*
X447735Y161253D01*
X447672Y161180D01*
X447612Y161105D01*
X447556Y161027D01*
X447502Y160947D01*
X447452Y160865D01*
X447405Y160781D01*
X447362Y160696D01*
X447321Y160608D01*
X447285Y160519D01*
X447252Y160429D01*
X447153Y160221D01*
X447060Y160011D01*
X446972Y159799D01*
X446889Y159585D01*
X446811Y159368D01*
X446738Y159150D01*
X446670Y158931D01*
X446608Y158709D01*
X446551Y158487D01*
X446499Y158263D01*
X446453Y158038D01*
X446412Y157812D01*
X446377Y157584D01*
X446347Y157357D01*
X446322Y157128D01*
X446303Y156899D01*
X446289Y156670D01*
X446281Y156440D01*
X446278Y156210D01*
X452769Y156210D02*
X452766Y155980D01*
X452758Y155750D01*
X452744Y155521D01*
X452725Y155292D01*
X452700Y155063D01*
X452670Y154835D01*
X452635Y154608D01*
X452594Y154382D01*
X452548Y154157D01*
X452496Y153933D01*
X452439Y153710D01*
X452377Y153489D01*
X452309Y153269D01*
X452236Y153051D01*
X452158Y152835D01*
X452075Y152621D01*
X451987Y152409D01*
X451894Y152198D01*
X451795Y151991D01*
X451796Y151991D02*
X451763Y151901D01*
X451727Y151812D01*
X451686Y151724D01*
X451643Y151639D01*
X451596Y151555D01*
X451546Y151473D01*
X451492Y151393D01*
X451436Y151316D01*
X451376Y151240D01*
X451313Y151167D01*
X451248Y151097D01*
X451179Y151029D01*
X451108Y150965D01*
X451035Y150903D01*
X450959Y150844D01*
X450881Y150788D01*
X450800Y150735D01*
X450718Y150686D01*
X450634Y150640D01*
X450547Y150597D01*
X450460Y150558D01*
X450370Y150522D01*
X450280Y150490D01*
X450188Y150462D01*
X450095Y150437D01*
X450001Y150416D01*
X449907Y150399D01*
X449812Y150385D01*
X449716Y150376D01*
X449620Y150370D01*
X449524Y150368D01*
X447252Y151991D02*
X447153Y152198D01*
X447060Y152409D01*
X446972Y152621D01*
X446889Y152835D01*
X446811Y153051D01*
X446738Y153269D01*
X446670Y153489D01*
X446608Y153710D01*
X446551Y153933D01*
X446499Y154157D01*
X446453Y154382D01*
X446412Y154608D01*
X446377Y154835D01*
X446347Y155063D01*
X446322Y155292D01*
X446303Y155521D01*
X446289Y155750D01*
X446281Y155980D01*
X446278Y156210D01*
X447252Y151991D02*
X447285Y151901D01*
X447321Y151812D01*
X447362Y151724D01*
X447405Y151639D01*
X447452Y151555D01*
X447502Y151473D01*
X447556Y151393D01*
X447612Y151315D01*
X447672Y151240D01*
X447735Y151167D01*
X447800Y151097D01*
X447869Y151029D01*
X447940Y150965D01*
X448013Y150903D01*
X448089Y150844D01*
X448167Y150788D01*
X448248Y150735D01*
X448330Y150686D01*
X448414Y150640D01*
X448501Y150597D01*
X448588Y150558D01*
X448678Y150522D01*
X448768Y150490D01*
X448860Y150462D01*
X448953Y150437D01*
X449047Y150416D01*
X449141Y150399D01*
X449236Y150385D01*
X449332Y150376D01*
X449428Y150370D01*
X449524Y150368D01*
X452120Y152964D02*
X446927Y159456D01*
X441339Y150368D02*
X437444Y150368D01*
X437345Y150370D01*
X437245Y150376D01*
X437146Y150385D01*
X437048Y150398D01*
X436950Y150415D01*
X436852Y150436D01*
X436756Y150461D01*
X436661Y150489D01*
X436567Y150521D01*
X436474Y150556D01*
X436382Y150595D01*
X436292Y150638D01*
X436204Y150683D01*
X436117Y150733D01*
X436033Y150785D01*
X435950Y150841D01*
X435870Y150899D01*
X435792Y150961D01*
X435717Y151026D01*
X435644Y151094D01*
X435574Y151164D01*
X435506Y151237D01*
X435441Y151312D01*
X435379Y151390D01*
X435321Y151470D01*
X435265Y151553D01*
X435213Y151637D01*
X435163Y151724D01*
X435118Y151812D01*
X435075Y151902D01*
X435036Y151994D01*
X435001Y152087D01*
X434969Y152181D01*
X434941Y152276D01*
X434916Y152372D01*
X434895Y152470D01*
X434878Y152568D01*
X434865Y152666D01*
X434856Y152765D01*
X434850Y152865D01*
X434848Y152964D01*
X434848Y154263D01*
X434850Y154362D01*
X434856Y154462D01*
X434865Y154561D01*
X434878Y154659D01*
X434895Y154757D01*
X434916Y154855D01*
X434941Y154951D01*
X434969Y155046D01*
X435001Y155140D01*
X435036Y155233D01*
X435075Y155325D01*
X435118Y155415D01*
X435163Y155503D01*
X435213Y155590D01*
X435265Y155674D01*
X435321Y155757D01*
X435379Y155837D01*
X435441Y155915D01*
X435506Y155990D01*
X435574Y156063D01*
X435644Y156133D01*
X435717Y156201D01*
X435792Y156266D01*
X435870Y156328D01*
X435950Y156386D01*
X436033Y156442D01*
X436117Y156494D01*
X436204Y156544D01*
X436292Y156589D01*
X436382Y156632D01*
X436474Y156671D01*
X436567Y156706D01*
X436661Y156738D01*
X436756Y156766D01*
X436852Y156791D01*
X436950Y156812D01*
X437048Y156829D01*
X437146Y156842D01*
X437245Y156851D01*
X437345Y156857D01*
X437444Y156859D01*
X441339Y156859D01*
X441339Y162052D01*
X434848Y162052D01*
X199898Y98411D02*
X199898Y95814D01*
X199900Y95715D01*
X199906Y95615D01*
X199915Y95516D01*
X199928Y95418D01*
X199945Y95320D01*
X199966Y95222D01*
X199991Y95126D01*
X200019Y95031D01*
X200051Y94937D01*
X200086Y94844D01*
X200125Y94752D01*
X200168Y94662D01*
X200213Y94574D01*
X200263Y94487D01*
X200315Y94403D01*
X200371Y94320D01*
X200429Y94240D01*
X200491Y94162D01*
X200556Y94087D01*
X200624Y94014D01*
X200694Y93944D01*
X200767Y93876D01*
X200842Y93811D01*
X200920Y93749D01*
X201000Y93691D01*
X201083Y93635D01*
X201167Y93583D01*
X201254Y93533D01*
X201342Y93488D01*
X201432Y93445D01*
X201524Y93406D01*
X201617Y93371D01*
X201711Y93339D01*
X201806Y93311D01*
X201902Y93286D01*
X202000Y93265D01*
X202098Y93248D01*
X202196Y93235D01*
X202295Y93226D01*
X202395Y93220D01*
X202494Y93218D01*
X208986Y93218D01*
X209085Y93220D01*
X209185Y93226D01*
X209284Y93235D01*
X209382Y93248D01*
X209480Y93265D01*
X209578Y93286D01*
X209674Y93311D01*
X209769Y93339D01*
X209863Y93371D01*
X209956Y93406D01*
X210048Y93445D01*
X210138Y93488D01*
X210226Y93533D01*
X210313Y93583D01*
X210397Y93635D01*
X210480Y93691D01*
X210560Y93749D01*
X210638Y93811D01*
X210713Y93876D01*
X210786Y93944D01*
X210856Y94014D01*
X210924Y94087D01*
X210989Y94162D01*
X211051Y94240D01*
X211109Y94320D01*
X211165Y94403D01*
X211217Y94487D01*
X211267Y94574D01*
X211312Y94662D01*
X211355Y94752D01*
X211394Y94844D01*
X211429Y94936D01*
X211461Y95031D01*
X211489Y95126D01*
X211514Y95222D01*
X211535Y95320D01*
X211552Y95418D01*
X211565Y95516D01*
X211574Y95615D01*
X211580Y95715D01*
X211582Y95814D01*
X211582Y98411D01*
X208986Y102776D02*
X211582Y106022D01*
X199898Y106022D01*
X199898Y109267D02*
X199898Y102776D01*
X276098Y98411D02*
X276098Y95814D01*
X276100Y95715D01*
X276106Y95615D01*
X276115Y95516D01*
X276128Y95418D01*
X276145Y95320D01*
X276166Y95222D01*
X276191Y95126D01*
X276219Y95031D01*
X276251Y94937D01*
X276286Y94844D01*
X276325Y94752D01*
X276368Y94662D01*
X276413Y94574D01*
X276463Y94487D01*
X276515Y94403D01*
X276571Y94320D01*
X276629Y94240D01*
X276691Y94162D01*
X276756Y94087D01*
X276824Y94014D01*
X276894Y93944D01*
X276967Y93876D01*
X277042Y93811D01*
X277120Y93749D01*
X277200Y93691D01*
X277283Y93635D01*
X277367Y93583D01*
X277454Y93533D01*
X277542Y93488D01*
X277632Y93445D01*
X277724Y93406D01*
X277817Y93371D01*
X277911Y93339D01*
X278006Y93311D01*
X278102Y93286D01*
X278200Y93265D01*
X278298Y93248D01*
X278396Y93235D01*
X278495Y93226D01*
X278595Y93220D01*
X278694Y93218D01*
X285186Y93218D01*
X285285Y93220D01*
X285385Y93226D01*
X285484Y93235D01*
X285582Y93248D01*
X285680Y93265D01*
X285778Y93286D01*
X285874Y93311D01*
X285969Y93339D01*
X286063Y93371D01*
X286156Y93406D01*
X286248Y93445D01*
X286338Y93488D01*
X286426Y93533D01*
X286513Y93583D01*
X286597Y93635D01*
X286680Y93691D01*
X286760Y93749D01*
X286838Y93811D01*
X286913Y93876D01*
X286986Y93944D01*
X287056Y94014D01*
X287124Y94087D01*
X287189Y94162D01*
X287251Y94240D01*
X287309Y94320D01*
X287365Y94403D01*
X287417Y94487D01*
X287467Y94574D01*
X287512Y94662D01*
X287555Y94752D01*
X287594Y94844D01*
X287629Y94936D01*
X287661Y95031D01*
X287689Y95126D01*
X287714Y95222D01*
X287735Y95320D01*
X287752Y95418D01*
X287765Y95516D01*
X287774Y95615D01*
X287780Y95715D01*
X287782Y95814D01*
X287782Y98411D01*
X285186Y102776D02*
X287782Y106022D01*
X276098Y106022D01*
X276098Y109267D02*
X276098Y102776D01*
X281940Y114207D02*
X282170Y114210D01*
X282400Y114218D01*
X282629Y114232D01*
X282858Y114251D01*
X283087Y114276D01*
X283314Y114306D01*
X283542Y114341D01*
X283768Y114382D01*
X283993Y114428D01*
X284217Y114480D01*
X284439Y114537D01*
X284661Y114599D01*
X284880Y114667D01*
X285098Y114740D01*
X285315Y114818D01*
X285529Y114901D01*
X285741Y114989D01*
X285951Y115082D01*
X286159Y115181D01*
X286159Y115180D02*
X286249Y115213D01*
X286338Y115249D01*
X286426Y115289D01*
X286511Y115333D01*
X286595Y115380D01*
X286677Y115430D01*
X286757Y115484D01*
X286834Y115540D01*
X286910Y115600D01*
X286983Y115663D01*
X287053Y115728D01*
X287121Y115797D01*
X287185Y115868D01*
X287247Y115941D01*
X287306Y116017D01*
X287362Y116095D01*
X287415Y116176D01*
X287464Y116258D01*
X287510Y116342D01*
X287553Y116429D01*
X287592Y116516D01*
X287628Y116606D01*
X287660Y116696D01*
X287688Y116788D01*
X287713Y116881D01*
X287734Y116975D01*
X287751Y117069D01*
X287765Y117164D01*
X287774Y117260D01*
X287780Y117356D01*
X287782Y117452D01*
X287780Y117548D01*
X287774Y117644D01*
X287765Y117740D01*
X287751Y117835D01*
X287734Y117929D01*
X287713Y118023D01*
X287688Y118116D01*
X287660Y118208D01*
X287628Y118298D01*
X287592Y118388D01*
X287553Y118475D01*
X287510Y118562D01*
X287464Y118646D01*
X287415Y118728D01*
X287362Y118809D01*
X287306Y118887D01*
X287247Y118963D01*
X287185Y119036D01*
X287121Y119107D01*
X287053Y119176D01*
X286983Y119241D01*
X286910Y119304D01*
X286834Y119364D01*
X286757Y119420D01*
X286677Y119474D01*
X286595Y119524D01*
X286511Y119571D01*
X286426Y119615D01*
X286338Y119655D01*
X286249Y119691D01*
X286159Y119724D01*
X285952Y119823D01*
X285742Y119916D01*
X285529Y120004D01*
X285315Y120087D01*
X285099Y120165D01*
X284881Y120238D01*
X284661Y120306D01*
X284440Y120368D01*
X284217Y120425D01*
X283993Y120477D01*
X283768Y120523D01*
X283542Y120564D01*
X283315Y120599D01*
X283087Y120629D01*
X282858Y120654D01*
X282629Y120673D01*
X282400Y120687D01*
X282170Y120695D01*
X281940Y120698D01*
X281940Y114206D02*
X281710Y114209D01*
X281480Y114217D01*
X281251Y114231D01*
X281022Y114250D01*
X280793Y114275D01*
X280565Y114305D01*
X280338Y114340D01*
X280112Y114381D01*
X279887Y114427D01*
X279663Y114479D01*
X279440Y114536D01*
X279219Y114598D01*
X278999Y114666D01*
X278781Y114739D01*
X278565Y114817D01*
X278351Y114900D01*
X278139Y114988D01*
X277928Y115081D01*
X277721Y115180D01*
X277631Y115213D01*
X277542Y115249D01*
X277454Y115290D01*
X277369Y115333D01*
X277285Y115380D01*
X277203Y115430D01*
X277123Y115484D01*
X277046Y115540D01*
X276970Y115600D01*
X276897Y115663D01*
X276827Y115728D01*
X276759Y115797D01*
X276695Y115868D01*
X276633Y115941D01*
X276574Y116017D01*
X276518Y116095D01*
X276465Y116176D01*
X276416Y116258D01*
X276370Y116342D01*
X276327Y116429D01*
X276288Y116516D01*
X276252Y116606D01*
X276220Y116696D01*
X276192Y116788D01*
X276167Y116881D01*
X276146Y116975D01*
X276129Y117069D01*
X276115Y117164D01*
X276106Y117260D01*
X276100Y117356D01*
X276098Y117452D01*
X277721Y119724D02*
X277928Y119823D01*
X278139Y119916D01*
X278351Y120004D01*
X278565Y120087D01*
X278781Y120165D01*
X278999Y120238D01*
X279219Y120306D01*
X279440Y120368D01*
X279663Y120425D01*
X279887Y120477D01*
X280112Y120523D01*
X280338Y120564D01*
X280565Y120599D01*
X280793Y120629D01*
X281022Y120654D01*
X281251Y120673D01*
X281480Y120687D01*
X281710Y120695D01*
X281940Y120698D01*
X277721Y119724D02*
X277631Y119691D01*
X277542Y119655D01*
X277454Y119615D01*
X277369Y119571D01*
X277285Y119524D01*
X277203Y119474D01*
X277123Y119420D01*
X277046Y119364D01*
X276970Y119304D01*
X276897Y119241D01*
X276827Y119176D01*
X276759Y119107D01*
X276695Y119036D01*
X276633Y118963D01*
X276574Y118887D01*
X276518Y118809D01*
X276465Y118728D01*
X276416Y118646D01*
X276370Y118562D01*
X276327Y118475D01*
X276288Y118388D01*
X276252Y118298D01*
X276220Y118208D01*
X276192Y118116D01*
X276167Y118023D01*
X276146Y117929D01*
X276129Y117835D01*
X276115Y117740D01*
X276106Y117644D01*
X276100Y117548D01*
X276098Y117452D01*
X278694Y114855D02*
X285186Y120048D01*
X250698Y98411D02*
X250698Y95814D01*
X250700Y95715D01*
X250706Y95615D01*
X250715Y95516D01*
X250728Y95418D01*
X250745Y95320D01*
X250766Y95222D01*
X250791Y95126D01*
X250819Y95031D01*
X250851Y94937D01*
X250886Y94844D01*
X250925Y94752D01*
X250968Y94662D01*
X251013Y94574D01*
X251063Y94487D01*
X251115Y94403D01*
X251171Y94320D01*
X251229Y94240D01*
X251291Y94162D01*
X251356Y94087D01*
X251424Y94014D01*
X251494Y93944D01*
X251567Y93876D01*
X251642Y93811D01*
X251720Y93749D01*
X251800Y93691D01*
X251883Y93635D01*
X251967Y93583D01*
X252054Y93533D01*
X252142Y93488D01*
X252232Y93445D01*
X252324Y93406D01*
X252417Y93371D01*
X252511Y93339D01*
X252606Y93311D01*
X252702Y93286D01*
X252800Y93265D01*
X252898Y93248D01*
X252996Y93235D01*
X253095Y93226D01*
X253195Y93220D01*
X253294Y93218D01*
X259786Y93218D01*
X259885Y93220D01*
X259985Y93226D01*
X260084Y93235D01*
X260182Y93248D01*
X260280Y93265D01*
X260378Y93286D01*
X260474Y93311D01*
X260569Y93339D01*
X260663Y93371D01*
X260756Y93406D01*
X260848Y93445D01*
X260938Y93488D01*
X261026Y93533D01*
X261113Y93583D01*
X261197Y93635D01*
X261280Y93691D01*
X261360Y93749D01*
X261438Y93811D01*
X261513Y93876D01*
X261586Y93944D01*
X261656Y94014D01*
X261724Y94087D01*
X261789Y94162D01*
X261851Y94240D01*
X261909Y94320D01*
X261965Y94403D01*
X262017Y94487D01*
X262067Y94574D01*
X262112Y94662D01*
X262155Y94752D01*
X262194Y94844D01*
X262229Y94936D01*
X262261Y95031D01*
X262289Y95126D01*
X262314Y95222D01*
X262335Y95320D01*
X262352Y95418D01*
X262365Y95516D01*
X262374Y95615D01*
X262380Y95715D01*
X262382Y95814D01*
X262382Y98411D01*
X259786Y102776D02*
X262382Y106022D01*
X250698Y106022D01*
X250698Y109267D02*
X250698Y102776D01*
X259786Y114206D02*
X262382Y117452D01*
X250698Y117452D01*
X250698Y120697D02*
X250698Y114206D01*
X517398Y210114D02*
X517398Y212711D01*
X517398Y210114D02*
X517400Y210015D01*
X517406Y209915D01*
X517415Y209816D01*
X517428Y209718D01*
X517445Y209620D01*
X517466Y209522D01*
X517491Y209426D01*
X517519Y209331D01*
X517551Y209237D01*
X517586Y209144D01*
X517625Y209052D01*
X517668Y208962D01*
X517713Y208874D01*
X517763Y208787D01*
X517815Y208703D01*
X517871Y208620D01*
X517929Y208540D01*
X517991Y208462D01*
X518056Y208387D01*
X518124Y208314D01*
X518194Y208244D01*
X518267Y208176D01*
X518342Y208111D01*
X518420Y208049D01*
X518500Y207991D01*
X518583Y207935D01*
X518667Y207883D01*
X518754Y207833D01*
X518842Y207788D01*
X518932Y207745D01*
X519024Y207706D01*
X519117Y207671D01*
X519211Y207639D01*
X519306Y207611D01*
X519402Y207586D01*
X519500Y207565D01*
X519598Y207548D01*
X519696Y207535D01*
X519795Y207526D01*
X519895Y207520D01*
X519994Y207518D01*
X526486Y207518D01*
X526585Y207520D01*
X526685Y207526D01*
X526784Y207535D01*
X526882Y207548D01*
X526980Y207565D01*
X527078Y207586D01*
X527174Y207611D01*
X527269Y207639D01*
X527363Y207671D01*
X527456Y207706D01*
X527548Y207745D01*
X527638Y207788D01*
X527726Y207833D01*
X527813Y207883D01*
X527897Y207935D01*
X527980Y207991D01*
X528060Y208049D01*
X528138Y208111D01*
X528213Y208176D01*
X528286Y208244D01*
X528356Y208314D01*
X528424Y208387D01*
X528489Y208462D01*
X528551Y208540D01*
X528609Y208620D01*
X528665Y208703D01*
X528717Y208787D01*
X528767Y208874D01*
X528812Y208962D01*
X528855Y209052D01*
X528894Y209144D01*
X528929Y209236D01*
X528961Y209331D01*
X528989Y209426D01*
X529014Y209522D01*
X529035Y209620D01*
X529052Y209718D01*
X529065Y209816D01*
X529074Y209915D01*
X529080Y210015D01*
X529082Y210114D01*
X529082Y212711D01*
X526486Y217076D02*
X529082Y220322D01*
X517398Y220322D01*
X517398Y223567D02*
X517398Y217076D01*
X529082Y232076D02*
X529080Y232183D01*
X529074Y232289D01*
X529064Y232395D01*
X529051Y232501D01*
X529033Y232607D01*
X529012Y232711D01*
X528987Y232815D01*
X528958Y232918D01*
X528926Y233019D01*
X528889Y233119D01*
X528849Y233218D01*
X528806Y233316D01*
X528759Y233412D01*
X528708Y233506D01*
X528654Y233598D01*
X528597Y233688D01*
X528537Y233776D01*
X528473Y233861D01*
X528406Y233944D01*
X528336Y234025D01*
X528264Y234103D01*
X528188Y234179D01*
X528110Y234251D01*
X528029Y234321D01*
X527946Y234388D01*
X527861Y234452D01*
X527773Y234512D01*
X527683Y234569D01*
X527591Y234623D01*
X527497Y234674D01*
X527401Y234721D01*
X527303Y234764D01*
X527204Y234804D01*
X527104Y234841D01*
X527003Y234873D01*
X526900Y234902D01*
X526796Y234927D01*
X526692Y234948D01*
X526586Y234966D01*
X526480Y234979D01*
X526374Y234989D01*
X526268Y234995D01*
X526161Y234997D01*
X529082Y232076D02*
X529080Y231955D01*
X529074Y231834D01*
X529064Y231714D01*
X529051Y231593D01*
X529033Y231474D01*
X529012Y231354D01*
X528987Y231236D01*
X528958Y231119D01*
X528925Y231002D01*
X528889Y230887D01*
X528848Y230773D01*
X528805Y230660D01*
X528757Y230548D01*
X528706Y230439D01*
X528651Y230331D01*
X528593Y230224D01*
X528532Y230120D01*
X528467Y230018D01*
X528399Y229918D01*
X528328Y229820D01*
X528254Y229724D01*
X528177Y229631D01*
X528096Y229541D01*
X528013Y229453D01*
X527927Y229368D01*
X527838Y229285D01*
X527747Y229206D01*
X527653Y229129D01*
X527557Y229056D01*
X527459Y228986D01*
X527358Y228919D01*
X527255Y228855D01*
X527150Y228795D01*
X527043Y228738D01*
X526935Y228684D01*
X526825Y228634D01*
X526713Y228588D01*
X526600Y228545D01*
X526485Y228506D01*
X523889Y234024D02*
X523966Y234103D01*
X524047Y234179D01*
X524130Y234252D01*
X524215Y234322D01*
X524303Y234389D01*
X524393Y234453D01*
X524485Y234513D01*
X524580Y234570D01*
X524676Y234624D01*
X524774Y234675D01*
X524874Y234722D01*
X524976Y234766D01*
X525079Y234806D01*
X525183Y234842D01*
X525289Y234874D01*
X525395Y234903D01*
X525503Y234928D01*
X525611Y234950D01*
X525721Y234967D01*
X525830Y234981D01*
X525940Y234990D01*
X526051Y234996D01*
X526161Y234998D01*
X523889Y234024D02*
X517398Y228506D01*
X517398Y234997D01*
X491998Y212711D02*
X491998Y210114D01*
X492000Y210015D01*
X492006Y209915D01*
X492015Y209816D01*
X492028Y209718D01*
X492045Y209620D01*
X492066Y209522D01*
X492091Y209426D01*
X492119Y209331D01*
X492151Y209237D01*
X492186Y209144D01*
X492225Y209052D01*
X492268Y208962D01*
X492313Y208874D01*
X492363Y208787D01*
X492415Y208703D01*
X492471Y208620D01*
X492529Y208540D01*
X492591Y208462D01*
X492656Y208387D01*
X492724Y208314D01*
X492794Y208244D01*
X492867Y208176D01*
X492942Y208111D01*
X493020Y208049D01*
X493100Y207991D01*
X493183Y207935D01*
X493267Y207883D01*
X493354Y207833D01*
X493442Y207788D01*
X493532Y207745D01*
X493624Y207706D01*
X493717Y207671D01*
X493811Y207639D01*
X493906Y207611D01*
X494002Y207586D01*
X494100Y207565D01*
X494198Y207548D01*
X494296Y207535D01*
X494395Y207526D01*
X494495Y207520D01*
X494594Y207518D01*
X501086Y207518D01*
X501185Y207520D01*
X501285Y207526D01*
X501384Y207535D01*
X501482Y207548D01*
X501580Y207565D01*
X501678Y207586D01*
X501774Y207611D01*
X501869Y207639D01*
X501963Y207671D01*
X502056Y207706D01*
X502148Y207745D01*
X502238Y207788D01*
X502326Y207833D01*
X502413Y207883D01*
X502497Y207935D01*
X502580Y207991D01*
X502660Y208049D01*
X502738Y208111D01*
X502813Y208176D01*
X502886Y208244D01*
X502956Y208314D01*
X503024Y208387D01*
X503089Y208462D01*
X503151Y208540D01*
X503209Y208620D01*
X503265Y208703D01*
X503317Y208787D01*
X503367Y208874D01*
X503412Y208962D01*
X503455Y209052D01*
X503494Y209144D01*
X503529Y209236D01*
X503561Y209331D01*
X503589Y209426D01*
X503614Y209522D01*
X503635Y209620D01*
X503652Y209718D01*
X503665Y209816D01*
X503674Y209915D01*
X503680Y210015D01*
X503682Y210114D01*
X503682Y212711D01*
X501086Y217076D02*
X503682Y220322D01*
X491998Y220322D01*
X491998Y223567D02*
X491998Y217076D01*
X491998Y228506D02*
X491998Y231752D01*
X492000Y231865D01*
X492006Y231978D01*
X492016Y232091D01*
X492030Y232204D01*
X492047Y232316D01*
X492069Y232427D01*
X492094Y232537D01*
X492124Y232647D01*
X492157Y232755D01*
X492194Y232862D01*
X492234Y232968D01*
X492279Y233072D01*
X492327Y233175D01*
X492378Y233276D01*
X492433Y233375D01*
X492491Y233472D01*
X492553Y233567D01*
X492618Y233660D01*
X492686Y233750D01*
X492757Y233838D01*
X492832Y233924D01*
X492909Y234007D01*
X492989Y234087D01*
X493072Y234164D01*
X493158Y234239D01*
X493246Y234310D01*
X493336Y234378D01*
X493429Y234443D01*
X493524Y234505D01*
X493621Y234563D01*
X493720Y234618D01*
X493821Y234669D01*
X493924Y234717D01*
X494028Y234762D01*
X494134Y234802D01*
X494241Y234839D01*
X494349Y234872D01*
X494459Y234902D01*
X494569Y234927D01*
X494680Y234949D01*
X494792Y234966D01*
X494905Y234980D01*
X495018Y234990D01*
X495131Y234996D01*
X495244Y234998D01*
X495357Y234996D01*
X495470Y234990D01*
X495583Y234980D01*
X495696Y234966D01*
X495808Y234949D01*
X495919Y234927D01*
X496029Y234902D01*
X496139Y234872D01*
X496247Y234839D01*
X496354Y234802D01*
X496460Y234762D01*
X496564Y234717D01*
X496667Y234669D01*
X496768Y234618D01*
X496867Y234563D01*
X496964Y234505D01*
X497059Y234443D01*
X497152Y234378D01*
X497242Y234310D01*
X497330Y234239D01*
X497416Y234164D01*
X497499Y234087D01*
X497579Y234007D01*
X497656Y233924D01*
X497731Y233838D01*
X497802Y233750D01*
X497870Y233660D01*
X497935Y233567D01*
X497997Y233472D01*
X498055Y233375D01*
X498110Y233276D01*
X498161Y233175D01*
X498209Y233072D01*
X498254Y232968D01*
X498294Y232862D01*
X498331Y232755D01*
X498364Y232647D01*
X498394Y232537D01*
X498419Y232427D01*
X498441Y232316D01*
X498458Y232204D01*
X498472Y232091D01*
X498482Y231978D01*
X498488Y231865D01*
X498490Y231752D01*
X503682Y232401D02*
X503682Y228506D01*
X503682Y232401D02*
X503680Y232502D01*
X503674Y232602D01*
X503664Y232702D01*
X503651Y232802D01*
X503633Y232901D01*
X503612Y233000D01*
X503587Y233097D01*
X503558Y233194D01*
X503525Y233289D01*
X503489Y233383D01*
X503449Y233475D01*
X503406Y233566D01*
X503359Y233655D01*
X503309Y233742D01*
X503255Y233828D01*
X503198Y233911D01*
X503138Y233991D01*
X503075Y234070D01*
X503008Y234146D01*
X502939Y234219D01*
X502867Y234289D01*
X502793Y234357D01*
X502716Y234422D01*
X502636Y234483D01*
X502554Y234542D01*
X502470Y234597D01*
X502384Y234649D01*
X502296Y234698D01*
X502206Y234743D01*
X502114Y234785D01*
X502021Y234823D01*
X501926Y234857D01*
X501831Y234888D01*
X501734Y234915D01*
X501636Y234938D01*
X501537Y234958D01*
X501437Y234973D01*
X501337Y234985D01*
X501237Y234993D01*
X501136Y234997D01*
X501036Y234997D01*
X500935Y234993D01*
X500835Y234985D01*
X500735Y234973D01*
X500635Y234958D01*
X500536Y234938D01*
X500438Y234915D01*
X500341Y234888D01*
X500246Y234857D01*
X500151Y234823D01*
X500058Y234785D01*
X499966Y234743D01*
X499876Y234698D01*
X499788Y234649D01*
X499702Y234597D01*
X499618Y234542D01*
X499536Y234483D01*
X499456Y234422D01*
X499379Y234357D01*
X499305Y234289D01*
X499233Y234219D01*
X499164Y234146D01*
X499097Y234070D01*
X499034Y233991D01*
X498974Y233911D01*
X498917Y233828D01*
X498863Y233742D01*
X498813Y233655D01*
X498766Y233566D01*
X498723Y233475D01*
X498683Y233383D01*
X498647Y233289D01*
X498614Y233194D01*
X498585Y233097D01*
X498560Y233000D01*
X498539Y232901D01*
X498521Y232802D01*
X498508Y232702D01*
X498498Y232602D01*
X498492Y232502D01*
X498490Y232401D01*
X498489Y232401D02*
X498489Y229804D01*
X466598Y212711D02*
X466598Y210114D01*
X466600Y210015D01*
X466606Y209915D01*
X466615Y209816D01*
X466628Y209718D01*
X466645Y209620D01*
X466666Y209522D01*
X466691Y209426D01*
X466719Y209331D01*
X466751Y209237D01*
X466786Y209144D01*
X466825Y209052D01*
X466868Y208962D01*
X466913Y208874D01*
X466963Y208787D01*
X467015Y208703D01*
X467071Y208620D01*
X467129Y208540D01*
X467191Y208462D01*
X467256Y208387D01*
X467324Y208314D01*
X467394Y208244D01*
X467467Y208176D01*
X467542Y208111D01*
X467620Y208049D01*
X467700Y207991D01*
X467783Y207935D01*
X467867Y207883D01*
X467954Y207833D01*
X468042Y207788D01*
X468132Y207745D01*
X468224Y207706D01*
X468317Y207671D01*
X468411Y207639D01*
X468506Y207611D01*
X468602Y207586D01*
X468700Y207565D01*
X468798Y207548D01*
X468896Y207535D01*
X468995Y207526D01*
X469095Y207520D01*
X469194Y207518D01*
X475686Y207518D01*
X475785Y207520D01*
X475885Y207526D01*
X475984Y207535D01*
X476082Y207548D01*
X476180Y207565D01*
X476278Y207586D01*
X476374Y207611D01*
X476469Y207639D01*
X476563Y207671D01*
X476656Y207706D01*
X476748Y207745D01*
X476838Y207788D01*
X476926Y207833D01*
X477013Y207883D01*
X477097Y207935D01*
X477180Y207991D01*
X477260Y208049D01*
X477338Y208111D01*
X477413Y208176D01*
X477486Y208244D01*
X477556Y208314D01*
X477624Y208387D01*
X477689Y208462D01*
X477751Y208540D01*
X477809Y208620D01*
X477865Y208703D01*
X477917Y208787D01*
X477967Y208874D01*
X478012Y208962D01*
X478055Y209052D01*
X478094Y209144D01*
X478129Y209236D01*
X478161Y209331D01*
X478189Y209426D01*
X478214Y209522D01*
X478235Y209620D01*
X478252Y209718D01*
X478265Y209816D01*
X478274Y209915D01*
X478280Y210015D01*
X478282Y210114D01*
X478282Y212711D01*
X475686Y217076D02*
X478282Y220322D01*
X466598Y220322D01*
X466598Y223567D02*
X466598Y217076D01*
X469194Y228506D02*
X478282Y231103D01*
X469194Y228506D02*
X469194Y234997D01*
X471791Y233050D02*
X466598Y233050D01*
X441198Y212711D02*
X441198Y210114D01*
X441200Y210015D01*
X441206Y209915D01*
X441215Y209816D01*
X441228Y209718D01*
X441245Y209620D01*
X441266Y209522D01*
X441291Y209426D01*
X441319Y209331D01*
X441351Y209237D01*
X441386Y209144D01*
X441425Y209052D01*
X441468Y208962D01*
X441513Y208874D01*
X441563Y208787D01*
X441615Y208703D01*
X441671Y208620D01*
X441729Y208540D01*
X441791Y208462D01*
X441856Y208387D01*
X441924Y208314D01*
X441994Y208244D01*
X442067Y208176D01*
X442142Y208111D01*
X442220Y208049D01*
X442300Y207991D01*
X442383Y207935D01*
X442467Y207883D01*
X442554Y207833D01*
X442642Y207788D01*
X442732Y207745D01*
X442824Y207706D01*
X442917Y207671D01*
X443011Y207639D01*
X443106Y207611D01*
X443202Y207586D01*
X443300Y207565D01*
X443398Y207548D01*
X443496Y207535D01*
X443595Y207526D01*
X443695Y207520D01*
X443794Y207518D01*
X450286Y207518D01*
X450385Y207520D01*
X450485Y207526D01*
X450584Y207535D01*
X450682Y207548D01*
X450780Y207565D01*
X450878Y207586D01*
X450974Y207611D01*
X451069Y207639D01*
X451163Y207671D01*
X451256Y207706D01*
X451348Y207745D01*
X451438Y207788D01*
X451526Y207833D01*
X451613Y207883D01*
X451697Y207935D01*
X451780Y207991D01*
X451860Y208049D01*
X451938Y208111D01*
X452013Y208176D01*
X452086Y208244D01*
X452156Y208314D01*
X452224Y208387D01*
X452289Y208462D01*
X452351Y208540D01*
X452409Y208620D01*
X452465Y208703D01*
X452517Y208787D01*
X452567Y208874D01*
X452612Y208962D01*
X452655Y209052D01*
X452694Y209144D01*
X452729Y209236D01*
X452761Y209331D01*
X452789Y209426D01*
X452814Y209522D01*
X452835Y209620D01*
X452852Y209718D01*
X452865Y209816D01*
X452874Y209915D01*
X452880Y210015D01*
X452882Y210114D01*
X452882Y212711D01*
X450286Y217076D02*
X452882Y220322D01*
X441198Y220322D01*
X441198Y223567D02*
X441198Y217076D01*
X441198Y228506D02*
X441198Y232401D01*
X441200Y232500D01*
X441206Y232600D01*
X441215Y232699D01*
X441228Y232797D01*
X441245Y232895D01*
X441266Y232993D01*
X441291Y233089D01*
X441319Y233184D01*
X441351Y233278D01*
X441386Y233371D01*
X441425Y233463D01*
X441468Y233553D01*
X441513Y233641D01*
X441563Y233728D01*
X441615Y233812D01*
X441671Y233895D01*
X441729Y233975D01*
X441791Y234053D01*
X441856Y234128D01*
X441924Y234201D01*
X441994Y234271D01*
X442067Y234339D01*
X442142Y234404D01*
X442220Y234466D01*
X442300Y234524D01*
X442383Y234580D01*
X442467Y234632D01*
X442554Y234682D01*
X442642Y234727D01*
X442732Y234770D01*
X442824Y234809D01*
X442917Y234844D01*
X443011Y234876D01*
X443106Y234904D01*
X443202Y234929D01*
X443300Y234950D01*
X443398Y234967D01*
X443496Y234980D01*
X443595Y234989D01*
X443695Y234995D01*
X443794Y234997D01*
X445093Y234997D01*
X445192Y234995D01*
X445292Y234989D01*
X445391Y234980D01*
X445489Y234967D01*
X445587Y234950D01*
X445685Y234929D01*
X445781Y234904D01*
X445876Y234876D01*
X445970Y234844D01*
X446063Y234809D01*
X446155Y234770D01*
X446245Y234727D01*
X446333Y234682D01*
X446420Y234632D01*
X446504Y234580D01*
X446587Y234524D01*
X446667Y234466D01*
X446745Y234404D01*
X446820Y234339D01*
X446893Y234271D01*
X446963Y234201D01*
X447031Y234128D01*
X447096Y234053D01*
X447158Y233975D01*
X447216Y233895D01*
X447272Y233812D01*
X447324Y233728D01*
X447374Y233641D01*
X447419Y233553D01*
X447462Y233463D01*
X447501Y233371D01*
X447536Y233278D01*
X447568Y233184D01*
X447596Y233089D01*
X447621Y232993D01*
X447642Y232895D01*
X447659Y232797D01*
X447672Y232699D01*
X447681Y232600D01*
X447687Y232500D01*
X447689Y232401D01*
X447689Y228506D01*
X452882Y228506D01*
X452882Y234997D01*
X278638Y234959D02*
X278638Y237556D01*
X278638Y234959D02*
X278640Y234860D01*
X278646Y234760D01*
X278655Y234661D01*
X278668Y234563D01*
X278685Y234465D01*
X278706Y234367D01*
X278731Y234271D01*
X278759Y234176D01*
X278791Y234082D01*
X278826Y233989D01*
X278865Y233897D01*
X278908Y233807D01*
X278953Y233719D01*
X279003Y233632D01*
X279055Y233548D01*
X279111Y233465D01*
X279169Y233385D01*
X279231Y233307D01*
X279296Y233232D01*
X279364Y233159D01*
X279434Y233089D01*
X279507Y233021D01*
X279582Y232956D01*
X279660Y232894D01*
X279740Y232836D01*
X279823Y232780D01*
X279907Y232728D01*
X279994Y232678D01*
X280082Y232633D01*
X280172Y232590D01*
X280264Y232551D01*
X280357Y232516D01*
X280451Y232484D01*
X280546Y232456D01*
X280642Y232431D01*
X280740Y232410D01*
X280838Y232393D01*
X280936Y232380D01*
X281035Y232371D01*
X281135Y232365D01*
X281234Y232363D01*
X287726Y232363D01*
X287825Y232365D01*
X287925Y232371D01*
X288024Y232380D01*
X288122Y232393D01*
X288220Y232410D01*
X288318Y232431D01*
X288414Y232456D01*
X288509Y232484D01*
X288603Y232516D01*
X288696Y232551D01*
X288788Y232590D01*
X288878Y232633D01*
X288966Y232678D01*
X289053Y232728D01*
X289137Y232780D01*
X289220Y232836D01*
X289300Y232894D01*
X289378Y232956D01*
X289453Y233021D01*
X289526Y233089D01*
X289596Y233159D01*
X289664Y233232D01*
X289729Y233307D01*
X289791Y233385D01*
X289849Y233465D01*
X289905Y233548D01*
X289957Y233632D01*
X290007Y233719D01*
X290052Y233807D01*
X290095Y233897D01*
X290134Y233989D01*
X290169Y234081D01*
X290201Y234176D01*
X290229Y234271D01*
X290254Y234367D01*
X290275Y234465D01*
X290292Y234563D01*
X290305Y234661D01*
X290314Y234760D01*
X290320Y234860D01*
X290322Y234959D01*
X290322Y237556D01*
X290322Y245491D02*
X290320Y245598D01*
X290314Y245704D01*
X290304Y245810D01*
X290291Y245916D01*
X290273Y246022D01*
X290252Y246126D01*
X290227Y246230D01*
X290198Y246333D01*
X290166Y246434D01*
X290129Y246534D01*
X290089Y246633D01*
X290046Y246731D01*
X289999Y246827D01*
X289948Y246921D01*
X289894Y247013D01*
X289837Y247103D01*
X289777Y247191D01*
X289713Y247276D01*
X289646Y247359D01*
X289576Y247440D01*
X289504Y247518D01*
X289428Y247594D01*
X289350Y247666D01*
X289269Y247736D01*
X289186Y247803D01*
X289101Y247867D01*
X289013Y247927D01*
X288923Y247984D01*
X288831Y248038D01*
X288737Y248089D01*
X288641Y248136D01*
X288543Y248179D01*
X288444Y248219D01*
X288344Y248256D01*
X288243Y248288D01*
X288140Y248317D01*
X288036Y248342D01*
X287932Y248363D01*
X287826Y248381D01*
X287720Y248394D01*
X287614Y248404D01*
X287508Y248410D01*
X287401Y248412D01*
X290322Y245491D02*
X290320Y245370D01*
X290314Y245249D01*
X290304Y245129D01*
X290291Y245008D01*
X290273Y244889D01*
X290252Y244769D01*
X290227Y244651D01*
X290198Y244534D01*
X290165Y244417D01*
X290129Y244302D01*
X290088Y244188D01*
X290045Y244075D01*
X289997Y243963D01*
X289946Y243854D01*
X289891Y243746D01*
X289833Y243639D01*
X289772Y243535D01*
X289707Y243433D01*
X289639Y243333D01*
X289568Y243235D01*
X289494Y243139D01*
X289417Y243046D01*
X289336Y242956D01*
X289253Y242868D01*
X289167Y242783D01*
X289078Y242700D01*
X288987Y242621D01*
X288893Y242544D01*
X288797Y242471D01*
X288699Y242401D01*
X288598Y242334D01*
X288495Y242270D01*
X288390Y242210D01*
X288283Y242153D01*
X288175Y242099D01*
X288065Y242049D01*
X287953Y242003D01*
X287840Y241960D01*
X287725Y241921D01*
X285129Y247439D02*
X285206Y247518D01*
X285287Y247594D01*
X285370Y247667D01*
X285455Y247737D01*
X285543Y247804D01*
X285633Y247868D01*
X285725Y247928D01*
X285820Y247985D01*
X285916Y248039D01*
X286014Y248090D01*
X286114Y248137D01*
X286216Y248181D01*
X286319Y248221D01*
X286423Y248257D01*
X286529Y248289D01*
X286635Y248318D01*
X286743Y248343D01*
X286851Y248365D01*
X286961Y248382D01*
X287070Y248396D01*
X287180Y248405D01*
X287291Y248411D01*
X287401Y248413D01*
X285129Y247438D02*
X278638Y241921D01*
X278638Y248412D01*
X302768Y237556D02*
X302768Y234959D01*
X302770Y234860D01*
X302776Y234760D01*
X302785Y234661D01*
X302798Y234563D01*
X302815Y234465D01*
X302836Y234367D01*
X302861Y234271D01*
X302889Y234176D01*
X302921Y234082D01*
X302956Y233989D01*
X302995Y233897D01*
X303038Y233807D01*
X303083Y233719D01*
X303133Y233632D01*
X303185Y233548D01*
X303241Y233465D01*
X303299Y233385D01*
X303361Y233307D01*
X303426Y233232D01*
X303494Y233159D01*
X303564Y233089D01*
X303637Y233021D01*
X303712Y232956D01*
X303790Y232894D01*
X303870Y232836D01*
X303953Y232780D01*
X304037Y232728D01*
X304124Y232678D01*
X304212Y232633D01*
X304302Y232590D01*
X304394Y232551D01*
X304487Y232516D01*
X304581Y232484D01*
X304676Y232456D01*
X304772Y232431D01*
X304870Y232410D01*
X304968Y232393D01*
X305066Y232380D01*
X305165Y232371D01*
X305265Y232365D01*
X305364Y232363D01*
X311856Y232363D01*
X311955Y232365D01*
X312055Y232371D01*
X312154Y232380D01*
X312252Y232393D01*
X312350Y232410D01*
X312448Y232431D01*
X312544Y232456D01*
X312639Y232484D01*
X312733Y232516D01*
X312826Y232551D01*
X312918Y232590D01*
X313008Y232633D01*
X313096Y232678D01*
X313183Y232728D01*
X313267Y232780D01*
X313350Y232836D01*
X313430Y232894D01*
X313508Y232956D01*
X313583Y233021D01*
X313656Y233089D01*
X313726Y233159D01*
X313794Y233232D01*
X313859Y233307D01*
X313921Y233385D01*
X313979Y233465D01*
X314035Y233548D01*
X314087Y233632D01*
X314137Y233719D01*
X314182Y233807D01*
X314225Y233897D01*
X314264Y233989D01*
X314299Y234081D01*
X314331Y234176D01*
X314359Y234271D01*
X314384Y234367D01*
X314405Y234465D01*
X314422Y234563D01*
X314435Y234661D01*
X314444Y234760D01*
X314450Y234860D01*
X314452Y234959D01*
X314452Y237556D01*
X302768Y241921D02*
X302768Y245166D01*
X302770Y245279D01*
X302776Y245392D01*
X302786Y245505D01*
X302800Y245618D01*
X302817Y245730D01*
X302839Y245841D01*
X302864Y245951D01*
X302894Y246061D01*
X302927Y246169D01*
X302964Y246276D01*
X303004Y246382D01*
X303049Y246486D01*
X303097Y246589D01*
X303148Y246690D01*
X303203Y246789D01*
X303261Y246886D01*
X303323Y246981D01*
X303388Y247074D01*
X303456Y247164D01*
X303527Y247252D01*
X303602Y247338D01*
X303679Y247421D01*
X303759Y247501D01*
X303842Y247578D01*
X303928Y247653D01*
X304016Y247724D01*
X304106Y247792D01*
X304199Y247857D01*
X304294Y247919D01*
X304391Y247977D01*
X304490Y248032D01*
X304591Y248083D01*
X304694Y248131D01*
X304798Y248176D01*
X304904Y248216D01*
X305011Y248253D01*
X305119Y248286D01*
X305229Y248316D01*
X305339Y248341D01*
X305450Y248363D01*
X305562Y248380D01*
X305675Y248394D01*
X305788Y248404D01*
X305901Y248410D01*
X306014Y248412D01*
X306127Y248410D01*
X306240Y248404D01*
X306353Y248394D01*
X306466Y248380D01*
X306578Y248363D01*
X306689Y248341D01*
X306799Y248316D01*
X306909Y248286D01*
X307017Y248253D01*
X307124Y248216D01*
X307230Y248176D01*
X307334Y248131D01*
X307437Y248083D01*
X307538Y248032D01*
X307637Y247977D01*
X307734Y247919D01*
X307829Y247857D01*
X307922Y247792D01*
X308012Y247724D01*
X308100Y247653D01*
X308186Y247578D01*
X308269Y247501D01*
X308349Y247421D01*
X308426Y247338D01*
X308501Y247252D01*
X308572Y247164D01*
X308640Y247074D01*
X308705Y246981D01*
X308767Y246886D01*
X308825Y246789D01*
X308880Y246690D01*
X308931Y246589D01*
X308979Y246486D01*
X309024Y246382D01*
X309064Y246276D01*
X309101Y246169D01*
X309134Y246061D01*
X309164Y245951D01*
X309189Y245841D01*
X309211Y245730D01*
X309228Y245618D01*
X309242Y245505D01*
X309252Y245392D01*
X309258Y245279D01*
X309260Y245166D01*
X314452Y245816D02*
X314452Y241921D01*
X314452Y245816D02*
X314450Y245917D01*
X314444Y246017D01*
X314434Y246117D01*
X314421Y246217D01*
X314403Y246316D01*
X314382Y246415D01*
X314357Y246512D01*
X314328Y246609D01*
X314295Y246704D01*
X314259Y246798D01*
X314219Y246890D01*
X314176Y246981D01*
X314129Y247070D01*
X314079Y247157D01*
X314025Y247243D01*
X313968Y247326D01*
X313908Y247406D01*
X313845Y247485D01*
X313778Y247561D01*
X313709Y247634D01*
X313637Y247704D01*
X313563Y247772D01*
X313486Y247837D01*
X313406Y247898D01*
X313324Y247957D01*
X313240Y248012D01*
X313154Y248064D01*
X313066Y248113D01*
X312976Y248158D01*
X312884Y248200D01*
X312791Y248238D01*
X312696Y248272D01*
X312601Y248303D01*
X312504Y248330D01*
X312406Y248353D01*
X312307Y248373D01*
X312207Y248388D01*
X312107Y248400D01*
X312007Y248408D01*
X311906Y248412D01*
X311806Y248412D01*
X311705Y248408D01*
X311605Y248400D01*
X311505Y248388D01*
X311405Y248373D01*
X311306Y248353D01*
X311208Y248330D01*
X311111Y248303D01*
X311016Y248272D01*
X310921Y248238D01*
X310828Y248200D01*
X310736Y248158D01*
X310646Y248113D01*
X310558Y248064D01*
X310472Y248012D01*
X310388Y247957D01*
X310306Y247898D01*
X310226Y247837D01*
X310149Y247772D01*
X310075Y247704D01*
X310003Y247634D01*
X309934Y247561D01*
X309867Y247485D01*
X309804Y247406D01*
X309744Y247326D01*
X309687Y247243D01*
X309633Y247157D01*
X309583Y247070D01*
X309536Y246981D01*
X309493Y246890D01*
X309453Y246798D01*
X309417Y246704D01*
X309384Y246609D01*
X309355Y246512D01*
X309330Y246415D01*
X309309Y246316D01*
X309291Y246217D01*
X309278Y246117D01*
X309268Y246017D01*
X309262Y245917D01*
X309260Y245816D01*
X309259Y245816D02*
X309259Y243219D01*
X329438Y214696D02*
X329438Y212099D01*
X329440Y212000D01*
X329446Y211900D01*
X329455Y211801D01*
X329468Y211703D01*
X329485Y211605D01*
X329506Y211507D01*
X329531Y211411D01*
X329559Y211316D01*
X329591Y211222D01*
X329626Y211129D01*
X329665Y211037D01*
X329708Y210947D01*
X329753Y210859D01*
X329803Y210772D01*
X329855Y210688D01*
X329911Y210605D01*
X329969Y210525D01*
X330031Y210447D01*
X330096Y210372D01*
X330164Y210299D01*
X330234Y210229D01*
X330307Y210161D01*
X330382Y210096D01*
X330460Y210034D01*
X330540Y209976D01*
X330623Y209920D01*
X330707Y209868D01*
X330794Y209818D01*
X330882Y209773D01*
X330972Y209730D01*
X331064Y209691D01*
X331157Y209656D01*
X331251Y209624D01*
X331346Y209596D01*
X331442Y209571D01*
X331540Y209550D01*
X331638Y209533D01*
X331736Y209520D01*
X331835Y209511D01*
X331935Y209505D01*
X332034Y209503D01*
X338526Y209503D01*
X338625Y209505D01*
X338725Y209511D01*
X338824Y209520D01*
X338922Y209533D01*
X339020Y209550D01*
X339118Y209571D01*
X339214Y209596D01*
X339309Y209624D01*
X339403Y209656D01*
X339496Y209691D01*
X339588Y209730D01*
X339678Y209773D01*
X339766Y209818D01*
X339853Y209868D01*
X339937Y209920D01*
X340020Y209976D01*
X340100Y210034D01*
X340178Y210096D01*
X340253Y210161D01*
X340326Y210229D01*
X340396Y210299D01*
X340464Y210372D01*
X340529Y210447D01*
X340591Y210525D01*
X340649Y210605D01*
X340705Y210688D01*
X340757Y210772D01*
X340807Y210859D01*
X340852Y210947D01*
X340895Y211037D01*
X340934Y211129D01*
X340969Y211221D01*
X341001Y211316D01*
X341029Y211411D01*
X341054Y211507D01*
X341075Y211605D01*
X341092Y211703D01*
X341105Y211801D01*
X341114Y211900D01*
X341120Y212000D01*
X341122Y212099D01*
X341122Y214696D01*
X341122Y221657D02*
X332034Y219061D01*
X332034Y225552D01*
X334631Y223605D02*
X329438Y223605D01*
X255778Y234959D02*
X255778Y237556D01*
X255778Y234959D02*
X255780Y234860D01*
X255786Y234760D01*
X255795Y234661D01*
X255808Y234563D01*
X255825Y234465D01*
X255846Y234367D01*
X255871Y234271D01*
X255899Y234176D01*
X255931Y234082D01*
X255966Y233989D01*
X256005Y233897D01*
X256048Y233807D01*
X256093Y233719D01*
X256143Y233632D01*
X256195Y233548D01*
X256251Y233465D01*
X256309Y233385D01*
X256371Y233307D01*
X256436Y233232D01*
X256504Y233159D01*
X256574Y233089D01*
X256647Y233021D01*
X256722Y232956D01*
X256800Y232894D01*
X256880Y232836D01*
X256963Y232780D01*
X257047Y232728D01*
X257134Y232678D01*
X257222Y232633D01*
X257312Y232590D01*
X257404Y232551D01*
X257497Y232516D01*
X257591Y232484D01*
X257686Y232456D01*
X257782Y232431D01*
X257880Y232410D01*
X257978Y232393D01*
X258076Y232380D01*
X258175Y232371D01*
X258275Y232365D01*
X258374Y232363D01*
X264866Y232363D01*
X264965Y232365D01*
X265065Y232371D01*
X265164Y232380D01*
X265262Y232393D01*
X265360Y232410D01*
X265458Y232431D01*
X265554Y232456D01*
X265649Y232484D01*
X265743Y232516D01*
X265836Y232551D01*
X265928Y232590D01*
X266018Y232633D01*
X266106Y232678D01*
X266193Y232728D01*
X266277Y232780D01*
X266360Y232836D01*
X266440Y232894D01*
X266518Y232956D01*
X266593Y233021D01*
X266666Y233089D01*
X266736Y233159D01*
X266804Y233232D01*
X266869Y233307D01*
X266931Y233385D01*
X266989Y233465D01*
X267045Y233548D01*
X267097Y233632D01*
X267147Y233719D01*
X267192Y233807D01*
X267235Y233897D01*
X267274Y233989D01*
X267309Y234081D01*
X267341Y234176D01*
X267369Y234271D01*
X267394Y234367D01*
X267415Y234465D01*
X267432Y234563D01*
X267445Y234661D01*
X267454Y234760D01*
X267460Y234860D01*
X267462Y234959D01*
X267462Y237556D01*
X255778Y241921D02*
X255778Y245816D01*
X255780Y245915D01*
X255786Y246015D01*
X255795Y246114D01*
X255808Y246212D01*
X255825Y246310D01*
X255846Y246408D01*
X255871Y246504D01*
X255899Y246599D01*
X255931Y246693D01*
X255966Y246786D01*
X256005Y246878D01*
X256048Y246968D01*
X256093Y247056D01*
X256143Y247143D01*
X256195Y247227D01*
X256251Y247310D01*
X256309Y247390D01*
X256371Y247468D01*
X256436Y247543D01*
X256504Y247616D01*
X256574Y247686D01*
X256647Y247754D01*
X256722Y247819D01*
X256800Y247881D01*
X256880Y247939D01*
X256963Y247995D01*
X257047Y248047D01*
X257134Y248097D01*
X257222Y248142D01*
X257312Y248185D01*
X257404Y248224D01*
X257497Y248259D01*
X257591Y248291D01*
X257686Y248319D01*
X257782Y248344D01*
X257880Y248365D01*
X257978Y248382D01*
X258076Y248395D01*
X258175Y248404D01*
X258275Y248410D01*
X258374Y248412D01*
X259673Y248412D01*
X259772Y248410D01*
X259872Y248404D01*
X259971Y248395D01*
X260069Y248382D01*
X260167Y248365D01*
X260265Y248344D01*
X260361Y248319D01*
X260456Y248291D01*
X260550Y248259D01*
X260643Y248224D01*
X260735Y248185D01*
X260825Y248142D01*
X260913Y248097D01*
X261000Y248047D01*
X261084Y247995D01*
X261167Y247939D01*
X261247Y247881D01*
X261325Y247819D01*
X261400Y247754D01*
X261473Y247686D01*
X261543Y247616D01*
X261611Y247543D01*
X261676Y247468D01*
X261738Y247390D01*
X261796Y247310D01*
X261852Y247227D01*
X261904Y247143D01*
X261954Y247056D01*
X261999Y246968D01*
X262042Y246878D01*
X262081Y246786D01*
X262116Y246693D01*
X262148Y246599D01*
X262176Y246504D01*
X262201Y246408D01*
X262222Y246310D01*
X262239Y246212D01*
X262252Y246114D01*
X262261Y246015D01*
X262267Y245915D01*
X262269Y245816D01*
X262269Y241921D01*
X267462Y241921D01*
X267462Y248412D01*
X174498Y98411D02*
X174498Y95814D01*
X174500Y95715D01*
X174506Y95615D01*
X174515Y95516D01*
X174528Y95418D01*
X174545Y95320D01*
X174566Y95222D01*
X174591Y95126D01*
X174619Y95031D01*
X174651Y94937D01*
X174686Y94844D01*
X174725Y94752D01*
X174768Y94662D01*
X174813Y94574D01*
X174863Y94487D01*
X174915Y94403D01*
X174971Y94320D01*
X175029Y94240D01*
X175091Y94162D01*
X175156Y94087D01*
X175224Y94014D01*
X175294Y93944D01*
X175367Y93876D01*
X175442Y93811D01*
X175520Y93749D01*
X175600Y93691D01*
X175683Y93635D01*
X175767Y93583D01*
X175854Y93533D01*
X175942Y93488D01*
X176032Y93445D01*
X176124Y93406D01*
X176217Y93371D01*
X176311Y93339D01*
X176406Y93311D01*
X176502Y93286D01*
X176600Y93265D01*
X176698Y93248D01*
X176796Y93235D01*
X176895Y93226D01*
X176995Y93220D01*
X177094Y93218D01*
X183586Y93218D01*
X183685Y93220D01*
X183785Y93226D01*
X183884Y93235D01*
X183982Y93248D01*
X184080Y93265D01*
X184178Y93286D01*
X184274Y93311D01*
X184369Y93339D01*
X184463Y93371D01*
X184556Y93406D01*
X184648Y93445D01*
X184738Y93488D01*
X184826Y93533D01*
X184913Y93583D01*
X184997Y93635D01*
X185080Y93691D01*
X185160Y93749D01*
X185238Y93811D01*
X185313Y93876D01*
X185386Y93944D01*
X185456Y94014D01*
X185524Y94087D01*
X185589Y94162D01*
X185651Y94240D01*
X185709Y94320D01*
X185765Y94403D01*
X185817Y94487D01*
X185867Y94574D01*
X185912Y94662D01*
X185955Y94752D01*
X185994Y94844D01*
X186029Y94936D01*
X186061Y95031D01*
X186089Y95126D01*
X186114Y95222D01*
X186135Y95320D01*
X186152Y95418D01*
X186165Y95516D01*
X186174Y95615D01*
X186180Y95715D01*
X186182Y95814D01*
X186182Y98411D01*
X180989Y102776D02*
X180989Y106671D01*
X180987Y106770D01*
X180981Y106870D01*
X180972Y106969D01*
X180959Y107067D01*
X180942Y107165D01*
X180921Y107263D01*
X180896Y107359D01*
X180868Y107454D01*
X180836Y107548D01*
X180801Y107641D01*
X180762Y107733D01*
X180719Y107823D01*
X180674Y107911D01*
X180624Y107998D01*
X180572Y108082D01*
X180516Y108165D01*
X180458Y108245D01*
X180396Y108323D01*
X180331Y108398D01*
X180263Y108471D01*
X180193Y108541D01*
X180120Y108609D01*
X180045Y108674D01*
X179967Y108736D01*
X179887Y108794D01*
X179804Y108850D01*
X179720Y108902D01*
X179633Y108952D01*
X179545Y108997D01*
X179455Y109040D01*
X179363Y109079D01*
X179270Y109114D01*
X179176Y109146D01*
X179081Y109174D01*
X178985Y109199D01*
X178887Y109220D01*
X178789Y109237D01*
X178691Y109250D01*
X178592Y109259D01*
X178492Y109265D01*
X178393Y109267D01*
X177744Y109267D01*
X177744Y109268D02*
X177631Y109266D01*
X177518Y109260D01*
X177405Y109250D01*
X177292Y109236D01*
X177180Y109219D01*
X177069Y109197D01*
X176959Y109172D01*
X176849Y109142D01*
X176741Y109109D01*
X176634Y109072D01*
X176528Y109032D01*
X176424Y108987D01*
X176321Y108939D01*
X176220Y108888D01*
X176121Y108833D01*
X176024Y108775D01*
X175929Y108713D01*
X175836Y108648D01*
X175746Y108580D01*
X175658Y108509D01*
X175572Y108434D01*
X175489Y108357D01*
X175409Y108277D01*
X175332Y108194D01*
X175257Y108108D01*
X175186Y108020D01*
X175118Y107930D01*
X175053Y107837D01*
X174991Y107742D01*
X174933Y107645D01*
X174878Y107546D01*
X174827Y107445D01*
X174779Y107342D01*
X174734Y107238D01*
X174694Y107132D01*
X174657Y107025D01*
X174624Y106917D01*
X174594Y106807D01*
X174569Y106697D01*
X174547Y106586D01*
X174530Y106474D01*
X174516Y106361D01*
X174506Y106248D01*
X174500Y106135D01*
X174498Y106022D01*
X174500Y105909D01*
X174506Y105796D01*
X174516Y105683D01*
X174530Y105570D01*
X174547Y105458D01*
X174569Y105347D01*
X174594Y105237D01*
X174624Y105127D01*
X174657Y105019D01*
X174694Y104912D01*
X174734Y104806D01*
X174779Y104702D01*
X174827Y104599D01*
X174878Y104498D01*
X174933Y104399D01*
X174991Y104302D01*
X175053Y104207D01*
X175118Y104114D01*
X175186Y104024D01*
X175257Y103936D01*
X175332Y103850D01*
X175409Y103767D01*
X175489Y103687D01*
X175572Y103610D01*
X175658Y103535D01*
X175746Y103464D01*
X175836Y103396D01*
X175929Y103331D01*
X176024Y103269D01*
X176121Y103211D01*
X176220Y103156D01*
X176321Y103105D01*
X176424Y103057D01*
X176528Y103012D01*
X176634Y102972D01*
X176741Y102935D01*
X176849Y102902D01*
X176959Y102872D01*
X177069Y102847D01*
X177180Y102825D01*
X177292Y102808D01*
X177405Y102794D01*
X177518Y102784D01*
X177631Y102778D01*
X177744Y102776D01*
X180989Y102776D01*
X181132Y102778D01*
X181275Y102784D01*
X181418Y102794D01*
X181560Y102808D01*
X181702Y102825D01*
X181844Y102847D01*
X181985Y102872D01*
X182125Y102902D01*
X182264Y102935D01*
X182402Y102972D01*
X182539Y103013D01*
X182675Y103057D01*
X182810Y103106D01*
X182943Y103158D01*
X183075Y103213D01*
X183205Y103273D01*
X183334Y103336D01*
X183461Y103402D01*
X183585Y103472D01*
X183708Y103545D01*
X183829Y103622D01*
X183948Y103702D01*
X184064Y103785D01*
X184179Y103871D01*
X184290Y103960D01*
X184400Y104053D01*
X184506Y104148D01*
X184610Y104247D01*
X184711Y104348D01*
X184810Y104452D01*
X184905Y104558D01*
X184998Y104668D01*
X185087Y104779D01*
X185173Y104894D01*
X185256Y105010D01*
X185336Y105129D01*
X185413Y105250D01*
X185486Y105372D01*
X185556Y105497D01*
X185622Y105624D01*
X185685Y105753D01*
X185745Y105883D01*
X185800Y106015D01*
X185852Y106148D01*
X185901Y106283D01*
X185945Y106419D01*
X185986Y106556D01*
X186023Y106694D01*
X186056Y106833D01*
X186086Y106973D01*
X186111Y107114D01*
X186133Y107256D01*
X186150Y107398D01*
X186164Y107540D01*
X186174Y107683D01*
X186180Y107826D01*
X186182Y107969D01*
X351028Y219004D02*
X351028Y221601D01*
X351028Y219004D02*
X351030Y218905D01*
X351036Y218805D01*
X351045Y218706D01*
X351058Y218608D01*
X351075Y218510D01*
X351096Y218412D01*
X351121Y218316D01*
X351149Y218221D01*
X351181Y218127D01*
X351216Y218034D01*
X351255Y217942D01*
X351298Y217852D01*
X351343Y217764D01*
X351393Y217677D01*
X351445Y217593D01*
X351501Y217510D01*
X351559Y217430D01*
X351621Y217352D01*
X351686Y217277D01*
X351754Y217204D01*
X351824Y217134D01*
X351897Y217066D01*
X351972Y217001D01*
X352050Y216939D01*
X352130Y216881D01*
X352213Y216825D01*
X352297Y216773D01*
X352384Y216723D01*
X352472Y216678D01*
X352562Y216635D01*
X352654Y216596D01*
X352747Y216561D01*
X352841Y216529D01*
X352936Y216501D01*
X353032Y216476D01*
X353130Y216455D01*
X353228Y216438D01*
X353326Y216425D01*
X353425Y216416D01*
X353525Y216410D01*
X353624Y216408D01*
X360116Y216408D01*
X360215Y216410D01*
X360315Y216416D01*
X360414Y216425D01*
X360512Y216438D01*
X360610Y216455D01*
X360708Y216476D01*
X360804Y216501D01*
X360899Y216529D01*
X360993Y216561D01*
X361086Y216596D01*
X361178Y216635D01*
X361268Y216678D01*
X361356Y216723D01*
X361443Y216773D01*
X361527Y216825D01*
X361610Y216881D01*
X361690Y216939D01*
X361768Y217001D01*
X361843Y217066D01*
X361916Y217134D01*
X361986Y217204D01*
X362054Y217277D01*
X362119Y217352D01*
X362181Y217430D01*
X362239Y217510D01*
X362295Y217593D01*
X362347Y217677D01*
X362397Y217764D01*
X362442Y217852D01*
X362485Y217942D01*
X362524Y218034D01*
X362559Y218126D01*
X362591Y218221D01*
X362619Y218316D01*
X362644Y218412D01*
X362665Y218510D01*
X362682Y218608D01*
X362695Y218706D01*
X362704Y218805D01*
X362710Y218905D01*
X362712Y219004D01*
X362712Y221601D01*
X362712Y225966D02*
X361414Y225966D01*
X362712Y225966D02*
X362712Y232457D01*
X351028Y229212D01*
X326898Y98411D02*
X326898Y95814D01*
X326900Y95715D01*
X326906Y95615D01*
X326915Y95516D01*
X326928Y95418D01*
X326945Y95320D01*
X326966Y95222D01*
X326991Y95126D01*
X327019Y95031D01*
X327051Y94937D01*
X327086Y94844D01*
X327125Y94752D01*
X327168Y94662D01*
X327213Y94574D01*
X327263Y94487D01*
X327315Y94403D01*
X327371Y94320D01*
X327429Y94240D01*
X327491Y94162D01*
X327556Y94087D01*
X327624Y94014D01*
X327694Y93944D01*
X327767Y93876D01*
X327842Y93811D01*
X327920Y93749D01*
X328000Y93691D01*
X328083Y93635D01*
X328167Y93583D01*
X328254Y93533D01*
X328342Y93488D01*
X328432Y93445D01*
X328524Y93406D01*
X328617Y93371D01*
X328711Y93339D01*
X328806Y93311D01*
X328902Y93286D01*
X329000Y93265D01*
X329098Y93248D01*
X329196Y93235D01*
X329295Y93226D01*
X329395Y93220D01*
X329494Y93218D01*
X335986Y93218D01*
X336085Y93220D01*
X336185Y93226D01*
X336284Y93235D01*
X336382Y93248D01*
X336480Y93265D01*
X336578Y93286D01*
X336674Y93311D01*
X336769Y93339D01*
X336863Y93371D01*
X336956Y93406D01*
X337048Y93445D01*
X337138Y93488D01*
X337226Y93533D01*
X337313Y93583D01*
X337397Y93635D01*
X337480Y93691D01*
X337560Y93749D01*
X337638Y93811D01*
X337713Y93876D01*
X337786Y93944D01*
X337856Y94014D01*
X337924Y94087D01*
X337989Y94162D01*
X338051Y94240D01*
X338109Y94320D01*
X338165Y94403D01*
X338217Y94487D01*
X338267Y94574D01*
X338312Y94662D01*
X338355Y94752D01*
X338394Y94844D01*
X338429Y94936D01*
X338461Y95031D01*
X338489Y95126D01*
X338514Y95222D01*
X338535Y95320D01*
X338552Y95418D01*
X338565Y95516D01*
X338574Y95615D01*
X338580Y95715D01*
X338582Y95814D01*
X338582Y98411D01*
X330144Y102776D02*
X330257Y102778D01*
X330370Y102784D01*
X330483Y102794D01*
X330596Y102808D01*
X330708Y102825D01*
X330819Y102847D01*
X330929Y102872D01*
X331039Y102902D01*
X331147Y102935D01*
X331254Y102972D01*
X331360Y103012D01*
X331464Y103057D01*
X331567Y103105D01*
X331668Y103156D01*
X331767Y103211D01*
X331864Y103269D01*
X331959Y103331D01*
X332052Y103396D01*
X332142Y103464D01*
X332230Y103535D01*
X332316Y103610D01*
X332399Y103687D01*
X332479Y103767D01*
X332556Y103850D01*
X332631Y103936D01*
X332702Y104024D01*
X332770Y104114D01*
X332835Y104207D01*
X332897Y104302D01*
X332955Y104399D01*
X333010Y104498D01*
X333061Y104599D01*
X333109Y104702D01*
X333154Y104806D01*
X333194Y104912D01*
X333231Y105019D01*
X333264Y105127D01*
X333294Y105237D01*
X333319Y105347D01*
X333341Y105458D01*
X333358Y105570D01*
X333372Y105683D01*
X333382Y105796D01*
X333388Y105909D01*
X333390Y106022D01*
X333388Y106135D01*
X333382Y106248D01*
X333372Y106361D01*
X333358Y106474D01*
X333341Y106586D01*
X333319Y106697D01*
X333294Y106807D01*
X333264Y106917D01*
X333231Y107025D01*
X333194Y107132D01*
X333154Y107238D01*
X333109Y107342D01*
X333061Y107445D01*
X333010Y107546D01*
X332955Y107645D01*
X332897Y107742D01*
X332835Y107837D01*
X332770Y107930D01*
X332702Y108020D01*
X332631Y108108D01*
X332556Y108194D01*
X332479Y108277D01*
X332399Y108357D01*
X332316Y108434D01*
X332230Y108509D01*
X332142Y108580D01*
X332052Y108648D01*
X331959Y108713D01*
X331864Y108775D01*
X331767Y108833D01*
X331668Y108888D01*
X331567Y108939D01*
X331464Y108987D01*
X331360Y109032D01*
X331254Y109072D01*
X331147Y109109D01*
X331039Y109142D01*
X330929Y109172D01*
X330819Y109197D01*
X330708Y109219D01*
X330596Y109236D01*
X330483Y109250D01*
X330370Y109260D01*
X330257Y109266D01*
X330144Y109268D01*
X330031Y109266D01*
X329918Y109260D01*
X329805Y109250D01*
X329692Y109236D01*
X329580Y109219D01*
X329469Y109197D01*
X329359Y109172D01*
X329249Y109142D01*
X329141Y109109D01*
X329034Y109072D01*
X328928Y109032D01*
X328824Y108987D01*
X328721Y108939D01*
X328620Y108888D01*
X328521Y108833D01*
X328424Y108775D01*
X328329Y108713D01*
X328236Y108648D01*
X328146Y108580D01*
X328058Y108509D01*
X327972Y108434D01*
X327889Y108357D01*
X327809Y108277D01*
X327732Y108194D01*
X327657Y108108D01*
X327586Y108020D01*
X327518Y107930D01*
X327453Y107837D01*
X327391Y107742D01*
X327333Y107645D01*
X327278Y107546D01*
X327227Y107445D01*
X327179Y107342D01*
X327134Y107238D01*
X327094Y107132D01*
X327057Y107025D01*
X327024Y106917D01*
X326994Y106807D01*
X326969Y106697D01*
X326947Y106586D01*
X326930Y106474D01*
X326916Y106361D01*
X326906Y106248D01*
X326900Y106135D01*
X326898Y106022D01*
X326900Y105909D01*
X326906Y105796D01*
X326916Y105683D01*
X326930Y105570D01*
X326947Y105458D01*
X326969Y105347D01*
X326994Y105237D01*
X327024Y105127D01*
X327057Y105019D01*
X327094Y104912D01*
X327134Y104806D01*
X327179Y104702D01*
X327227Y104599D01*
X327278Y104498D01*
X327333Y104399D01*
X327391Y104302D01*
X327453Y104207D01*
X327518Y104114D01*
X327586Y104024D01*
X327657Y103936D01*
X327732Y103850D01*
X327809Y103767D01*
X327889Y103687D01*
X327972Y103610D01*
X328058Y103535D01*
X328146Y103464D01*
X328236Y103396D01*
X328329Y103331D01*
X328424Y103269D01*
X328521Y103211D01*
X328620Y103156D01*
X328721Y103105D01*
X328824Y103057D01*
X328928Y103012D01*
X329034Y102972D01*
X329141Y102935D01*
X329249Y102902D01*
X329359Y102872D01*
X329469Y102847D01*
X329580Y102825D01*
X329692Y102808D01*
X329805Y102794D01*
X329918Y102784D01*
X330031Y102778D01*
X330144Y102776D01*
X335986Y103426D02*
X336087Y103428D01*
X336187Y103434D01*
X336287Y103444D01*
X336387Y103457D01*
X336486Y103475D01*
X336585Y103496D01*
X336682Y103521D01*
X336779Y103550D01*
X336874Y103583D01*
X336968Y103619D01*
X337060Y103659D01*
X337151Y103702D01*
X337240Y103749D01*
X337327Y103799D01*
X337413Y103853D01*
X337496Y103910D01*
X337576Y103970D01*
X337655Y104033D01*
X337731Y104100D01*
X337804Y104169D01*
X337874Y104241D01*
X337942Y104315D01*
X338007Y104392D01*
X338068Y104472D01*
X338127Y104554D01*
X338182Y104638D01*
X338234Y104724D01*
X338283Y104812D01*
X338328Y104902D01*
X338370Y104994D01*
X338408Y105087D01*
X338442Y105182D01*
X338473Y105277D01*
X338500Y105374D01*
X338523Y105472D01*
X338543Y105571D01*
X338558Y105671D01*
X338570Y105771D01*
X338578Y105871D01*
X338582Y105972D01*
X338582Y106072D01*
X338578Y106173D01*
X338570Y106273D01*
X338558Y106373D01*
X338543Y106473D01*
X338523Y106572D01*
X338500Y106670D01*
X338473Y106767D01*
X338442Y106862D01*
X338408Y106957D01*
X338370Y107050D01*
X338328Y107142D01*
X338283Y107232D01*
X338234Y107320D01*
X338182Y107406D01*
X338127Y107490D01*
X338068Y107572D01*
X338007Y107652D01*
X337942Y107729D01*
X337874Y107803D01*
X337804Y107875D01*
X337731Y107944D01*
X337655Y108011D01*
X337576Y108074D01*
X337496Y108134D01*
X337413Y108191D01*
X337327Y108245D01*
X337240Y108295D01*
X337151Y108342D01*
X337060Y108385D01*
X336968Y108425D01*
X336874Y108461D01*
X336779Y108494D01*
X336682Y108523D01*
X336585Y108548D01*
X336486Y108569D01*
X336387Y108587D01*
X336287Y108600D01*
X336187Y108610D01*
X336087Y108616D01*
X335986Y108618D01*
X335885Y108616D01*
X335785Y108610D01*
X335685Y108600D01*
X335585Y108587D01*
X335486Y108569D01*
X335387Y108548D01*
X335290Y108523D01*
X335193Y108494D01*
X335098Y108461D01*
X335004Y108425D01*
X334912Y108385D01*
X334821Y108342D01*
X334732Y108295D01*
X334645Y108245D01*
X334559Y108191D01*
X334476Y108134D01*
X334396Y108074D01*
X334317Y108011D01*
X334241Y107944D01*
X334168Y107875D01*
X334098Y107803D01*
X334030Y107729D01*
X333965Y107652D01*
X333904Y107572D01*
X333845Y107490D01*
X333790Y107406D01*
X333738Y107320D01*
X333689Y107232D01*
X333644Y107142D01*
X333602Y107050D01*
X333564Y106957D01*
X333530Y106862D01*
X333499Y106767D01*
X333472Y106670D01*
X333449Y106572D01*
X333429Y106473D01*
X333414Y106373D01*
X333402Y106273D01*
X333394Y106173D01*
X333390Y106072D01*
X333390Y105972D01*
X333394Y105871D01*
X333402Y105771D01*
X333414Y105671D01*
X333429Y105571D01*
X333449Y105472D01*
X333472Y105374D01*
X333499Y105277D01*
X333530Y105182D01*
X333564Y105087D01*
X333602Y104994D01*
X333644Y104902D01*
X333689Y104812D01*
X333738Y104724D01*
X333790Y104638D01*
X333845Y104554D01*
X333904Y104472D01*
X333965Y104392D01*
X334030Y104315D01*
X334098Y104241D01*
X334168Y104169D01*
X334241Y104100D01*
X334317Y104033D01*
X334396Y103970D01*
X334476Y103910D01*
X334559Y103853D01*
X334645Y103799D01*
X334732Y103749D01*
X334821Y103702D01*
X334912Y103659D01*
X335004Y103619D01*
X335098Y103583D01*
X335193Y103550D01*
X335290Y103521D01*
X335387Y103496D01*
X335486Y103475D01*
X335585Y103457D01*
X335685Y103444D01*
X335785Y103434D01*
X335885Y103428D01*
X335986Y103426D01*
X301498Y98411D02*
X301498Y95814D01*
X301500Y95715D01*
X301506Y95615D01*
X301515Y95516D01*
X301528Y95418D01*
X301545Y95320D01*
X301566Y95222D01*
X301591Y95126D01*
X301619Y95031D01*
X301651Y94937D01*
X301686Y94844D01*
X301725Y94752D01*
X301768Y94662D01*
X301813Y94574D01*
X301863Y94487D01*
X301915Y94403D01*
X301971Y94320D01*
X302029Y94240D01*
X302091Y94162D01*
X302156Y94087D01*
X302224Y94014D01*
X302294Y93944D01*
X302367Y93876D01*
X302442Y93811D01*
X302520Y93749D01*
X302600Y93691D01*
X302683Y93635D01*
X302767Y93583D01*
X302854Y93533D01*
X302942Y93488D01*
X303032Y93445D01*
X303124Y93406D01*
X303217Y93371D01*
X303311Y93339D01*
X303406Y93311D01*
X303502Y93286D01*
X303600Y93265D01*
X303698Y93248D01*
X303796Y93235D01*
X303895Y93226D01*
X303995Y93220D01*
X304094Y93218D01*
X310586Y93218D01*
X310685Y93220D01*
X310785Y93226D01*
X310884Y93235D01*
X310982Y93248D01*
X311080Y93265D01*
X311178Y93286D01*
X311274Y93311D01*
X311369Y93339D01*
X311463Y93371D01*
X311556Y93406D01*
X311648Y93445D01*
X311738Y93488D01*
X311826Y93533D01*
X311913Y93583D01*
X311997Y93635D01*
X312080Y93691D01*
X312160Y93749D01*
X312238Y93811D01*
X312313Y93876D01*
X312386Y93944D01*
X312456Y94014D01*
X312524Y94087D01*
X312589Y94162D01*
X312651Y94240D01*
X312709Y94320D01*
X312765Y94403D01*
X312817Y94487D01*
X312867Y94574D01*
X312912Y94662D01*
X312955Y94752D01*
X312994Y94844D01*
X313029Y94936D01*
X313061Y95031D01*
X313089Y95126D01*
X313114Y95222D01*
X313135Y95320D01*
X313152Y95418D01*
X313165Y95516D01*
X313174Y95615D01*
X313180Y95715D01*
X313182Y95814D01*
X313182Y98411D01*
X306691Y105373D02*
X306691Y109267D01*
X306691Y105373D02*
X306693Y105274D01*
X306699Y105174D01*
X306708Y105075D01*
X306721Y104977D01*
X306738Y104879D01*
X306759Y104781D01*
X306784Y104685D01*
X306812Y104590D01*
X306844Y104496D01*
X306879Y104403D01*
X306918Y104311D01*
X306961Y104221D01*
X307006Y104133D01*
X307056Y104046D01*
X307108Y103962D01*
X307164Y103879D01*
X307222Y103799D01*
X307284Y103721D01*
X307349Y103646D01*
X307417Y103573D01*
X307487Y103503D01*
X307560Y103435D01*
X307635Y103370D01*
X307713Y103308D01*
X307793Y103250D01*
X307876Y103194D01*
X307960Y103142D01*
X308047Y103092D01*
X308135Y103047D01*
X308225Y103004D01*
X308317Y102965D01*
X308410Y102930D01*
X308504Y102898D01*
X308599Y102870D01*
X308695Y102845D01*
X308793Y102824D01*
X308891Y102807D01*
X308989Y102794D01*
X309088Y102785D01*
X309188Y102779D01*
X309287Y102777D01*
X309287Y102776D02*
X309936Y102776D01*
X310049Y102778D01*
X310162Y102784D01*
X310275Y102794D01*
X310388Y102808D01*
X310500Y102825D01*
X310611Y102847D01*
X310721Y102872D01*
X310831Y102902D01*
X310939Y102935D01*
X311046Y102972D01*
X311152Y103012D01*
X311256Y103057D01*
X311359Y103105D01*
X311460Y103156D01*
X311559Y103211D01*
X311656Y103269D01*
X311751Y103331D01*
X311844Y103396D01*
X311934Y103464D01*
X312022Y103535D01*
X312108Y103610D01*
X312191Y103687D01*
X312271Y103767D01*
X312348Y103850D01*
X312423Y103936D01*
X312494Y104024D01*
X312562Y104114D01*
X312627Y104207D01*
X312689Y104302D01*
X312747Y104399D01*
X312802Y104498D01*
X312853Y104599D01*
X312901Y104702D01*
X312946Y104806D01*
X312986Y104912D01*
X313023Y105019D01*
X313056Y105127D01*
X313086Y105237D01*
X313111Y105347D01*
X313133Y105458D01*
X313150Y105570D01*
X313164Y105683D01*
X313174Y105796D01*
X313180Y105909D01*
X313182Y106022D01*
X313180Y106135D01*
X313174Y106248D01*
X313164Y106361D01*
X313150Y106474D01*
X313133Y106586D01*
X313111Y106697D01*
X313086Y106807D01*
X313056Y106917D01*
X313023Y107025D01*
X312986Y107132D01*
X312946Y107238D01*
X312901Y107342D01*
X312853Y107445D01*
X312802Y107546D01*
X312747Y107645D01*
X312689Y107742D01*
X312627Y107837D01*
X312562Y107930D01*
X312494Y108020D01*
X312423Y108108D01*
X312348Y108194D01*
X312271Y108277D01*
X312191Y108357D01*
X312108Y108434D01*
X312022Y108509D01*
X311934Y108580D01*
X311844Y108648D01*
X311751Y108713D01*
X311656Y108775D01*
X311559Y108833D01*
X311460Y108888D01*
X311359Y108939D01*
X311256Y108987D01*
X311152Y109032D01*
X311046Y109072D01*
X310939Y109109D01*
X310831Y109142D01*
X310721Y109172D01*
X310611Y109197D01*
X310500Y109219D01*
X310388Y109236D01*
X310275Y109250D01*
X310162Y109260D01*
X310049Y109266D01*
X309936Y109268D01*
X309936Y109267D02*
X306691Y109267D01*
X306548Y109265D01*
X306405Y109259D01*
X306262Y109249D01*
X306120Y109235D01*
X305978Y109218D01*
X305836Y109196D01*
X305695Y109171D01*
X305555Y109141D01*
X305416Y109108D01*
X305278Y109071D01*
X305141Y109030D01*
X305005Y108986D01*
X304870Y108937D01*
X304737Y108885D01*
X304605Y108830D01*
X304475Y108770D01*
X304346Y108707D01*
X304219Y108641D01*
X304095Y108571D01*
X303972Y108498D01*
X303851Y108421D01*
X303732Y108341D01*
X303616Y108258D01*
X303501Y108172D01*
X303390Y108083D01*
X303280Y107990D01*
X303174Y107895D01*
X303070Y107796D01*
X302969Y107695D01*
X302870Y107591D01*
X302775Y107485D01*
X302682Y107375D01*
X302593Y107264D01*
X302507Y107149D01*
X302424Y107033D01*
X302344Y106914D01*
X302267Y106793D01*
X302194Y106671D01*
X302124Y106546D01*
X302058Y106419D01*
X301995Y106290D01*
X301935Y106160D01*
X301880Y106028D01*
X301828Y105895D01*
X301779Y105760D01*
X301735Y105624D01*
X301694Y105487D01*
X301657Y105349D01*
X301624Y105210D01*
X301594Y105070D01*
X301569Y104929D01*
X301547Y104787D01*
X301530Y104645D01*
X301516Y104503D01*
X301506Y104360D01*
X301500Y104217D01*
X301498Y104074D01*
X211582Y271018D02*
X211582Y282702D01*
X208336Y282702D01*
X208223Y282700D01*
X208110Y282694D01*
X207997Y282684D01*
X207884Y282670D01*
X207772Y282653D01*
X207661Y282631D01*
X207551Y282606D01*
X207441Y282576D01*
X207333Y282543D01*
X207226Y282506D01*
X207120Y282466D01*
X207016Y282421D01*
X206913Y282373D01*
X206812Y282322D01*
X206713Y282267D01*
X206616Y282209D01*
X206521Y282147D01*
X206428Y282082D01*
X206338Y282014D01*
X206250Y281943D01*
X206164Y281868D01*
X206081Y281791D01*
X206001Y281711D01*
X205924Y281628D01*
X205849Y281542D01*
X205778Y281454D01*
X205710Y281364D01*
X205645Y281271D01*
X205583Y281176D01*
X205525Y281079D01*
X205470Y280980D01*
X205419Y280879D01*
X205371Y280776D01*
X205326Y280672D01*
X205286Y280566D01*
X205249Y280459D01*
X205216Y280351D01*
X205186Y280241D01*
X205161Y280131D01*
X205139Y280020D01*
X205122Y279908D01*
X205108Y279795D01*
X205098Y279682D01*
X205092Y279569D01*
X205090Y279456D01*
X205092Y279343D01*
X205098Y279230D01*
X205108Y279117D01*
X205122Y279004D01*
X205139Y278892D01*
X205161Y278781D01*
X205186Y278671D01*
X205216Y278561D01*
X205249Y278453D01*
X205286Y278346D01*
X205326Y278240D01*
X205371Y278136D01*
X205419Y278033D01*
X205470Y277932D01*
X205525Y277833D01*
X205583Y277736D01*
X205645Y277641D01*
X205710Y277548D01*
X205778Y277458D01*
X205849Y277370D01*
X205924Y277284D01*
X206001Y277201D01*
X206081Y277121D01*
X206164Y277044D01*
X206250Y276969D01*
X206338Y276898D01*
X206428Y276830D01*
X206521Y276765D01*
X206616Y276703D01*
X206713Y276645D01*
X206812Y276590D01*
X206913Y276539D01*
X207016Y276491D01*
X207120Y276446D01*
X207226Y276406D01*
X207333Y276369D01*
X207441Y276336D01*
X207551Y276306D01*
X207661Y276281D01*
X207772Y276259D01*
X207884Y276242D01*
X207997Y276228D01*
X208110Y276218D01*
X208223Y276212D01*
X208336Y276210D01*
X208336Y276211D02*
X211582Y276211D01*
X207687Y276211D02*
X205091Y271018D01*
X200226Y271018D02*
X196980Y271018D01*
X196867Y271020D01*
X196754Y271026D01*
X196641Y271036D01*
X196528Y271050D01*
X196416Y271067D01*
X196305Y271089D01*
X196195Y271114D01*
X196085Y271144D01*
X195977Y271177D01*
X195870Y271214D01*
X195764Y271254D01*
X195660Y271299D01*
X195557Y271347D01*
X195456Y271398D01*
X195357Y271453D01*
X195260Y271511D01*
X195165Y271573D01*
X195072Y271638D01*
X194982Y271706D01*
X194894Y271777D01*
X194808Y271852D01*
X194725Y271929D01*
X194645Y272009D01*
X194568Y272092D01*
X194493Y272178D01*
X194422Y272266D01*
X194354Y272356D01*
X194289Y272449D01*
X194227Y272544D01*
X194169Y272641D01*
X194114Y272740D01*
X194063Y272841D01*
X194015Y272944D01*
X193970Y273048D01*
X193930Y273154D01*
X193893Y273261D01*
X193860Y273369D01*
X193830Y273479D01*
X193805Y273589D01*
X193783Y273700D01*
X193766Y273812D01*
X193752Y273925D01*
X193742Y274038D01*
X193736Y274151D01*
X193734Y274264D01*
X193736Y274377D01*
X193742Y274490D01*
X193752Y274603D01*
X193766Y274716D01*
X193783Y274828D01*
X193805Y274939D01*
X193830Y275049D01*
X193860Y275159D01*
X193893Y275267D01*
X193930Y275374D01*
X193970Y275480D01*
X194015Y275584D01*
X194063Y275687D01*
X194114Y275788D01*
X194169Y275887D01*
X194227Y275984D01*
X194289Y276079D01*
X194354Y276172D01*
X194422Y276262D01*
X194493Y276350D01*
X194568Y276436D01*
X194645Y276519D01*
X194725Y276599D01*
X194808Y276676D01*
X194894Y276751D01*
X194982Y276822D01*
X195072Y276890D01*
X195165Y276955D01*
X195260Y277017D01*
X195357Y277075D01*
X195456Y277130D01*
X195557Y277181D01*
X195660Y277229D01*
X195764Y277274D01*
X195870Y277314D01*
X195977Y277351D01*
X196085Y277384D01*
X196195Y277414D01*
X196305Y277439D01*
X196416Y277461D01*
X196528Y277478D01*
X196641Y277492D01*
X196754Y277502D01*
X196867Y277508D01*
X196980Y277510D01*
X196331Y282702D02*
X200226Y282702D01*
X196331Y282702D02*
X196230Y282700D01*
X196130Y282694D01*
X196030Y282684D01*
X195930Y282671D01*
X195831Y282653D01*
X195732Y282632D01*
X195635Y282607D01*
X195538Y282578D01*
X195443Y282545D01*
X195349Y282509D01*
X195257Y282469D01*
X195166Y282426D01*
X195077Y282379D01*
X194990Y282329D01*
X194904Y282275D01*
X194821Y282218D01*
X194741Y282158D01*
X194662Y282095D01*
X194586Y282028D01*
X194513Y281959D01*
X194443Y281887D01*
X194375Y281813D01*
X194310Y281736D01*
X194249Y281656D01*
X194190Y281574D01*
X194135Y281490D01*
X194083Y281404D01*
X194034Y281316D01*
X193989Y281226D01*
X193947Y281134D01*
X193909Y281041D01*
X193875Y280946D01*
X193844Y280851D01*
X193817Y280754D01*
X193794Y280656D01*
X193774Y280557D01*
X193759Y280457D01*
X193747Y280357D01*
X193739Y280257D01*
X193735Y280156D01*
X193735Y280056D01*
X193739Y279955D01*
X193747Y279855D01*
X193759Y279755D01*
X193774Y279655D01*
X193794Y279556D01*
X193817Y279458D01*
X193844Y279361D01*
X193875Y279266D01*
X193909Y279171D01*
X193947Y279078D01*
X193989Y278986D01*
X194034Y278896D01*
X194083Y278808D01*
X194135Y278722D01*
X194190Y278638D01*
X194249Y278556D01*
X194310Y278476D01*
X194375Y278399D01*
X194443Y278325D01*
X194513Y278253D01*
X194586Y278184D01*
X194662Y278117D01*
X194741Y278054D01*
X194821Y277994D01*
X194904Y277937D01*
X194990Y277883D01*
X195077Y277833D01*
X195166Y277786D01*
X195257Y277743D01*
X195349Y277703D01*
X195443Y277667D01*
X195538Y277634D01*
X195635Y277605D01*
X195732Y277580D01*
X195831Y277559D01*
X195930Y277541D01*
X196030Y277528D01*
X196130Y277518D01*
X196230Y277512D01*
X196331Y277510D01*
X196331Y277509D02*
X198927Y277509D01*
X166945Y282702D02*
X166945Y271018D01*
X166945Y282702D02*
X163700Y282702D01*
X163587Y282700D01*
X163474Y282694D01*
X163361Y282684D01*
X163248Y282670D01*
X163136Y282653D01*
X163025Y282631D01*
X162915Y282606D01*
X162805Y282576D01*
X162697Y282543D01*
X162590Y282506D01*
X162484Y282466D01*
X162380Y282421D01*
X162277Y282373D01*
X162176Y282322D01*
X162077Y282267D01*
X161980Y282209D01*
X161885Y282147D01*
X161792Y282082D01*
X161702Y282014D01*
X161614Y281943D01*
X161528Y281868D01*
X161445Y281791D01*
X161365Y281711D01*
X161288Y281628D01*
X161213Y281542D01*
X161142Y281454D01*
X161074Y281364D01*
X161009Y281271D01*
X160947Y281176D01*
X160889Y281079D01*
X160834Y280980D01*
X160783Y280879D01*
X160735Y280776D01*
X160690Y280672D01*
X160650Y280566D01*
X160613Y280459D01*
X160580Y280351D01*
X160550Y280241D01*
X160525Y280131D01*
X160503Y280020D01*
X160486Y279908D01*
X160472Y279795D01*
X160462Y279682D01*
X160456Y279569D01*
X160454Y279456D01*
X160456Y279343D01*
X160462Y279230D01*
X160472Y279117D01*
X160486Y279004D01*
X160503Y278892D01*
X160525Y278781D01*
X160550Y278671D01*
X160580Y278561D01*
X160613Y278453D01*
X160650Y278346D01*
X160690Y278240D01*
X160735Y278136D01*
X160783Y278033D01*
X160834Y277932D01*
X160889Y277833D01*
X160947Y277736D01*
X161009Y277641D01*
X161074Y277548D01*
X161142Y277458D01*
X161213Y277370D01*
X161288Y277284D01*
X161365Y277201D01*
X161445Y277121D01*
X161528Y277044D01*
X161614Y276969D01*
X161702Y276898D01*
X161792Y276830D01*
X161885Y276765D01*
X161980Y276703D01*
X162077Y276645D01*
X162176Y276590D01*
X162277Y276539D01*
X162380Y276491D01*
X162484Y276446D01*
X162590Y276406D01*
X162697Y276369D01*
X162805Y276336D01*
X162915Y276306D01*
X163025Y276281D01*
X163136Y276259D01*
X163248Y276242D01*
X163361Y276228D01*
X163474Y276218D01*
X163587Y276212D01*
X163700Y276210D01*
X163700Y276211D02*
X166945Y276211D01*
X163051Y276211D02*
X160454Y271018D01*
X155589Y273614D02*
X152993Y282702D01*
X155589Y273614D02*
X149098Y273614D01*
X151045Y276211D02*
X151045Y271018D01*
X491998Y99755D02*
X503682Y99755D01*
X503682Y103000D01*
X503680Y103113D01*
X503674Y103226D01*
X503664Y103339D01*
X503650Y103452D01*
X503633Y103564D01*
X503611Y103675D01*
X503586Y103785D01*
X503556Y103895D01*
X503523Y104003D01*
X503486Y104110D01*
X503446Y104216D01*
X503401Y104320D01*
X503353Y104423D01*
X503302Y104524D01*
X503247Y104623D01*
X503189Y104720D01*
X503127Y104815D01*
X503062Y104908D01*
X502994Y104998D01*
X502923Y105086D01*
X502848Y105172D01*
X502771Y105255D01*
X502691Y105335D01*
X502608Y105412D01*
X502522Y105487D01*
X502434Y105558D01*
X502344Y105626D01*
X502251Y105691D01*
X502156Y105753D01*
X502059Y105811D01*
X501960Y105866D01*
X501859Y105917D01*
X501756Y105965D01*
X501652Y106010D01*
X501546Y106050D01*
X501439Y106087D01*
X501331Y106120D01*
X501221Y106150D01*
X501111Y106175D01*
X501000Y106197D01*
X500888Y106214D01*
X500775Y106228D01*
X500662Y106238D01*
X500549Y106244D01*
X500436Y106246D01*
X500323Y106244D01*
X500210Y106238D01*
X500097Y106228D01*
X499984Y106214D01*
X499872Y106197D01*
X499761Y106175D01*
X499651Y106150D01*
X499541Y106120D01*
X499433Y106087D01*
X499326Y106050D01*
X499220Y106010D01*
X499116Y105965D01*
X499013Y105917D01*
X498912Y105866D01*
X498813Y105811D01*
X498716Y105753D01*
X498621Y105691D01*
X498528Y105626D01*
X498438Y105558D01*
X498350Y105487D01*
X498264Y105412D01*
X498181Y105335D01*
X498101Y105255D01*
X498024Y105172D01*
X497949Y105086D01*
X497878Y104998D01*
X497810Y104908D01*
X497745Y104815D01*
X497683Y104720D01*
X497625Y104623D01*
X497570Y104524D01*
X497519Y104423D01*
X497471Y104320D01*
X497426Y104216D01*
X497386Y104110D01*
X497349Y104003D01*
X497316Y103895D01*
X497286Y103785D01*
X497261Y103675D01*
X497239Y103564D01*
X497222Y103452D01*
X497208Y103339D01*
X497198Y103226D01*
X497192Y103113D01*
X497190Y103000D01*
X497191Y103000D02*
X497191Y99755D01*
X497191Y103649D02*
X491998Y106246D01*
X491998Y111111D02*
X491998Y115006D01*
X492000Y115105D01*
X492006Y115205D01*
X492015Y115304D01*
X492028Y115402D01*
X492045Y115500D01*
X492066Y115598D01*
X492091Y115694D01*
X492119Y115789D01*
X492151Y115883D01*
X492186Y115976D01*
X492225Y116068D01*
X492268Y116158D01*
X492313Y116246D01*
X492363Y116333D01*
X492415Y116417D01*
X492471Y116500D01*
X492529Y116580D01*
X492591Y116658D01*
X492656Y116733D01*
X492724Y116806D01*
X492794Y116876D01*
X492867Y116944D01*
X492942Y117009D01*
X493020Y117071D01*
X493100Y117129D01*
X493183Y117185D01*
X493267Y117237D01*
X493354Y117287D01*
X493442Y117332D01*
X493532Y117375D01*
X493624Y117414D01*
X493717Y117449D01*
X493811Y117481D01*
X493906Y117509D01*
X494002Y117534D01*
X494100Y117555D01*
X494198Y117572D01*
X494296Y117585D01*
X494395Y117594D01*
X494495Y117600D01*
X494594Y117602D01*
X495893Y117602D01*
X495992Y117600D01*
X496092Y117594D01*
X496191Y117585D01*
X496289Y117572D01*
X496387Y117555D01*
X496485Y117534D01*
X496581Y117509D01*
X496676Y117481D01*
X496770Y117449D01*
X496863Y117414D01*
X496955Y117375D01*
X497045Y117332D01*
X497133Y117287D01*
X497220Y117237D01*
X497304Y117185D01*
X497387Y117129D01*
X497467Y117071D01*
X497545Y117009D01*
X497620Y116944D01*
X497693Y116876D01*
X497763Y116806D01*
X497831Y116733D01*
X497896Y116658D01*
X497958Y116580D01*
X498016Y116500D01*
X498072Y116417D01*
X498124Y116333D01*
X498174Y116246D01*
X498219Y116158D01*
X498262Y116068D01*
X498301Y115976D01*
X498336Y115883D01*
X498368Y115789D01*
X498396Y115694D01*
X498421Y115598D01*
X498442Y115500D01*
X498459Y115402D01*
X498472Y115304D01*
X498481Y115205D01*
X498487Y115105D01*
X498489Y115006D01*
X498489Y111111D01*
X503682Y111111D01*
X503682Y117602D01*
X517398Y99755D02*
X529082Y99755D01*
X529082Y103000D01*
X529080Y103113D01*
X529074Y103226D01*
X529064Y103339D01*
X529050Y103452D01*
X529033Y103564D01*
X529011Y103675D01*
X528986Y103785D01*
X528956Y103895D01*
X528923Y104003D01*
X528886Y104110D01*
X528846Y104216D01*
X528801Y104320D01*
X528753Y104423D01*
X528702Y104524D01*
X528647Y104623D01*
X528589Y104720D01*
X528527Y104815D01*
X528462Y104908D01*
X528394Y104998D01*
X528323Y105086D01*
X528248Y105172D01*
X528171Y105255D01*
X528091Y105335D01*
X528008Y105412D01*
X527922Y105487D01*
X527834Y105558D01*
X527744Y105626D01*
X527651Y105691D01*
X527556Y105753D01*
X527459Y105811D01*
X527360Y105866D01*
X527259Y105917D01*
X527156Y105965D01*
X527052Y106010D01*
X526946Y106050D01*
X526839Y106087D01*
X526731Y106120D01*
X526621Y106150D01*
X526511Y106175D01*
X526400Y106197D01*
X526288Y106214D01*
X526175Y106228D01*
X526062Y106238D01*
X525949Y106244D01*
X525836Y106246D01*
X525723Y106244D01*
X525610Y106238D01*
X525497Y106228D01*
X525384Y106214D01*
X525272Y106197D01*
X525161Y106175D01*
X525051Y106150D01*
X524941Y106120D01*
X524833Y106087D01*
X524726Y106050D01*
X524620Y106010D01*
X524516Y105965D01*
X524413Y105917D01*
X524312Y105866D01*
X524213Y105811D01*
X524116Y105753D01*
X524021Y105691D01*
X523928Y105626D01*
X523838Y105558D01*
X523750Y105487D01*
X523664Y105412D01*
X523581Y105335D01*
X523501Y105255D01*
X523424Y105172D01*
X523349Y105086D01*
X523278Y104998D01*
X523210Y104908D01*
X523145Y104815D01*
X523083Y104720D01*
X523025Y104623D01*
X522970Y104524D01*
X522919Y104423D01*
X522871Y104320D01*
X522826Y104216D01*
X522786Y104110D01*
X522749Y104003D01*
X522716Y103895D01*
X522686Y103785D01*
X522661Y103675D01*
X522639Y103564D01*
X522622Y103452D01*
X522608Y103339D01*
X522598Y103226D01*
X522592Y103113D01*
X522590Y103000D01*
X522591Y103000D02*
X522591Y99755D01*
X522591Y103649D02*
X517398Y106246D01*
X523889Y111111D02*
X523889Y115006D01*
X523887Y115105D01*
X523881Y115205D01*
X523872Y115304D01*
X523859Y115402D01*
X523842Y115500D01*
X523821Y115598D01*
X523796Y115694D01*
X523768Y115789D01*
X523736Y115883D01*
X523701Y115976D01*
X523662Y116068D01*
X523619Y116158D01*
X523574Y116246D01*
X523524Y116333D01*
X523472Y116417D01*
X523416Y116500D01*
X523358Y116580D01*
X523296Y116658D01*
X523231Y116733D01*
X523163Y116806D01*
X523093Y116876D01*
X523020Y116944D01*
X522945Y117009D01*
X522867Y117071D01*
X522787Y117129D01*
X522704Y117185D01*
X522620Y117237D01*
X522533Y117287D01*
X522445Y117332D01*
X522355Y117375D01*
X522263Y117414D01*
X522170Y117449D01*
X522076Y117481D01*
X521981Y117509D01*
X521885Y117534D01*
X521787Y117555D01*
X521689Y117572D01*
X521591Y117585D01*
X521492Y117594D01*
X521392Y117600D01*
X521293Y117602D01*
X520644Y117602D01*
X520531Y117600D01*
X520418Y117594D01*
X520305Y117584D01*
X520192Y117570D01*
X520080Y117553D01*
X519969Y117531D01*
X519859Y117506D01*
X519749Y117476D01*
X519641Y117443D01*
X519534Y117406D01*
X519428Y117366D01*
X519324Y117321D01*
X519221Y117273D01*
X519120Y117222D01*
X519021Y117167D01*
X518924Y117109D01*
X518829Y117047D01*
X518736Y116982D01*
X518646Y116914D01*
X518558Y116843D01*
X518472Y116768D01*
X518389Y116691D01*
X518309Y116611D01*
X518232Y116528D01*
X518157Y116442D01*
X518086Y116354D01*
X518018Y116264D01*
X517953Y116171D01*
X517891Y116076D01*
X517833Y115979D01*
X517778Y115880D01*
X517727Y115779D01*
X517679Y115676D01*
X517634Y115572D01*
X517594Y115466D01*
X517557Y115359D01*
X517524Y115251D01*
X517494Y115141D01*
X517469Y115031D01*
X517447Y114920D01*
X517430Y114808D01*
X517416Y114695D01*
X517406Y114582D01*
X517400Y114469D01*
X517398Y114356D01*
X517400Y114243D01*
X517406Y114130D01*
X517416Y114017D01*
X517430Y113904D01*
X517447Y113792D01*
X517469Y113681D01*
X517494Y113571D01*
X517524Y113461D01*
X517557Y113353D01*
X517594Y113246D01*
X517634Y113140D01*
X517679Y113036D01*
X517727Y112933D01*
X517778Y112832D01*
X517833Y112733D01*
X517891Y112636D01*
X517953Y112541D01*
X518018Y112448D01*
X518086Y112358D01*
X518157Y112270D01*
X518232Y112184D01*
X518309Y112101D01*
X518389Y112021D01*
X518472Y111944D01*
X518558Y111869D01*
X518646Y111798D01*
X518736Y111730D01*
X518829Y111665D01*
X518924Y111603D01*
X519021Y111545D01*
X519120Y111490D01*
X519221Y111439D01*
X519324Y111391D01*
X519428Y111346D01*
X519534Y111306D01*
X519641Y111269D01*
X519749Y111236D01*
X519859Y111206D01*
X519969Y111181D01*
X520080Y111159D01*
X520192Y111142D01*
X520305Y111128D01*
X520418Y111118D01*
X520531Y111112D01*
X520644Y111110D01*
X520644Y111111D02*
X523889Y111111D01*
X524032Y111113D01*
X524175Y111119D01*
X524318Y111129D01*
X524460Y111143D01*
X524602Y111160D01*
X524744Y111182D01*
X524885Y111207D01*
X525025Y111237D01*
X525164Y111270D01*
X525302Y111307D01*
X525439Y111348D01*
X525575Y111392D01*
X525710Y111441D01*
X525843Y111493D01*
X525975Y111548D01*
X526105Y111608D01*
X526234Y111671D01*
X526361Y111737D01*
X526485Y111807D01*
X526608Y111880D01*
X526729Y111957D01*
X526848Y112037D01*
X526964Y112120D01*
X527079Y112206D01*
X527190Y112295D01*
X527300Y112388D01*
X527406Y112483D01*
X527510Y112582D01*
X527611Y112683D01*
X527710Y112787D01*
X527805Y112893D01*
X527898Y113003D01*
X527987Y113114D01*
X528073Y113229D01*
X528156Y113345D01*
X528236Y113464D01*
X528313Y113585D01*
X528386Y113707D01*
X528456Y113832D01*
X528522Y113959D01*
X528585Y114088D01*
X528645Y114218D01*
X528700Y114350D01*
X528752Y114483D01*
X528801Y114618D01*
X528845Y114754D01*
X528886Y114891D01*
X528923Y115029D01*
X528956Y115168D01*
X528986Y115308D01*
X529011Y115449D01*
X529033Y115591D01*
X529050Y115733D01*
X529064Y115875D01*
X529074Y116018D01*
X529080Y116161D01*
X529082Y116304D01*
X542798Y99755D02*
X554482Y99755D01*
X554482Y103000D01*
X554480Y103113D01*
X554474Y103226D01*
X554464Y103339D01*
X554450Y103452D01*
X554433Y103564D01*
X554411Y103675D01*
X554386Y103785D01*
X554356Y103895D01*
X554323Y104003D01*
X554286Y104110D01*
X554246Y104216D01*
X554201Y104320D01*
X554153Y104423D01*
X554102Y104524D01*
X554047Y104623D01*
X553989Y104720D01*
X553927Y104815D01*
X553862Y104908D01*
X553794Y104998D01*
X553723Y105086D01*
X553648Y105172D01*
X553571Y105255D01*
X553491Y105335D01*
X553408Y105412D01*
X553322Y105487D01*
X553234Y105558D01*
X553144Y105626D01*
X553051Y105691D01*
X552956Y105753D01*
X552859Y105811D01*
X552760Y105866D01*
X552659Y105917D01*
X552556Y105965D01*
X552452Y106010D01*
X552346Y106050D01*
X552239Y106087D01*
X552131Y106120D01*
X552021Y106150D01*
X551911Y106175D01*
X551800Y106197D01*
X551688Y106214D01*
X551575Y106228D01*
X551462Y106238D01*
X551349Y106244D01*
X551236Y106246D01*
X551123Y106244D01*
X551010Y106238D01*
X550897Y106228D01*
X550784Y106214D01*
X550672Y106197D01*
X550561Y106175D01*
X550451Y106150D01*
X550341Y106120D01*
X550233Y106087D01*
X550126Y106050D01*
X550020Y106010D01*
X549916Y105965D01*
X549813Y105917D01*
X549712Y105866D01*
X549613Y105811D01*
X549516Y105753D01*
X549421Y105691D01*
X549328Y105626D01*
X549238Y105558D01*
X549150Y105487D01*
X549064Y105412D01*
X548981Y105335D01*
X548901Y105255D01*
X548824Y105172D01*
X548749Y105086D01*
X548678Y104998D01*
X548610Y104908D01*
X548545Y104815D01*
X548483Y104720D01*
X548425Y104623D01*
X548370Y104524D01*
X548319Y104423D01*
X548271Y104320D01*
X548226Y104216D01*
X548186Y104110D01*
X548149Y104003D01*
X548116Y103895D01*
X548086Y103785D01*
X548061Y103675D01*
X548039Y103564D01*
X548022Y103452D01*
X548008Y103339D01*
X547998Y103226D01*
X547992Y103113D01*
X547990Y103000D01*
X547991Y103000D02*
X547991Y99755D01*
X547991Y103649D02*
X542798Y106246D01*
X553184Y111111D02*
X554482Y111111D01*
X554482Y117602D01*
X542798Y114356D01*
X568198Y99755D02*
X579882Y99755D01*
X579882Y103000D01*
X579880Y103113D01*
X579874Y103226D01*
X579864Y103339D01*
X579850Y103452D01*
X579833Y103564D01*
X579811Y103675D01*
X579786Y103785D01*
X579756Y103895D01*
X579723Y104003D01*
X579686Y104110D01*
X579646Y104216D01*
X579601Y104320D01*
X579553Y104423D01*
X579502Y104524D01*
X579447Y104623D01*
X579389Y104720D01*
X579327Y104815D01*
X579262Y104908D01*
X579194Y104998D01*
X579123Y105086D01*
X579048Y105172D01*
X578971Y105255D01*
X578891Y105335D01*
X578808Y105412D01*
X578722Y105487D01*
X578634Y105558D01*
X578544Y105626D01*
X578451Y105691D01*
X578356Y105753D01*
X578259Y105811D01*
X578160Y105866D01*
X578059Y105917D01*
X577956Y105965D01*
X577852Y106010D01*
X577746Y106050D01*
X577639Y106087D01*
X577531Y106120D01*
X577421Y106150D01*
X577311Y106175D01*
X577200Y106197D01*
X577088Y106214D01*
X576975Y106228D01*
X576862Y106238D01*
X576749Y106244D01*
X576636Y106246D01*
X576523Y106244D01*
X576410Y106238D01*
X576297Y106228D01*
X576184Y106214D01*
X576072Y106197D01*
X575961Y106175D01*
X575851Y106150D01*
X575741Y106120D01*
X575633Y106087D01*
X575526Y106050D01*
X575420Y106010D01*
X575316Y105965D01*
X575213Y105917D01*
X575112Y105866D01*
X575013Y105811D01*
X574916Y105753D01*
X574821Y105691D01*
X574728Y105626D01*
X574638Y105558D01*
X574550Y105487D01*
X574464Y105412D01*
X574381Y105335D01*
X574301Y105255D01*
X574224Y105172D01*
X574149Y105086D01*
X574078Y104998D01*
X574010Y104908D01*
X573945Y104815D01*
X573883Y104720D01*
X573825Y104623D01*
X573770Y104524D01*
X573719Y104423D01*
X573671Y104320D01*
X573626Y104216D01*
X573586Y104110D01*
X573549Y104003D01*
X573516Y103895D01*
X573486Y103785D01*
X573461Y103675D01*
X573439Y103564D01*
X573422Y103452D01*
X573408Y103339D01*
X573398Y103226D01*
X573392Y103113D01*
X573390Y103000D01*
X573391Y103000D02*
X573391Y99755D01*
X573391Y103649D02*
X568198Y106246D01*
X571444Y111110D02*
X571557Y111112D01*
X571670Y111118D01*
X571783Y111128D01*
X571896Y111142D01*
X572008Y111159D01*
X572119Y111181D01*
X572229Y111206D01*
X572339Y111236D01*
X572447Y111269D01*
X572554Y111306D01*
X572660Y111346D01*
X572764Y111391D01*
X572867Y111439D01*
X572968Y111490D01*
X573067Y111545D01*
X573164Y111603D01*
X573259Y111665D01*
X573352Y111730D01*
X573442Y111798D01*
X573530Y111869D01*
X573616Y111944D01*
X573699Y112021D01*
X573779Y112101D01*
X573856Y112184D01*
X573931Y112270D01*
X574002Y112358D01*
X574070Y112448D01*
X574135Y112541D01*
X574197Y112636D01*
X574255Y112733D01*
X574310Y112832D01*
X574361Y112933D01*
X574409Y113036D01*
X574454Y113140D01*
X574494Y113246D01*
X574531Y113353D01*
X574564Y113461D01*
X574594Y113571D01*
X574619Y113681D01*
X574641Y113792D01*
X574658Y113904D01*
X574672Y114017D01*
X574682Y114130D01*
X574688Y114243D01*
X574690Y114356D01*
X574688Y114469D01*
X574682Y114582D01*
X574672Y114695D01*
X574658Y114808D01*
X574641Y114920D01*
X574619Y115031D01*
X574594Y115141D01*
X574564Y115251D01*
X574531Y115359D01*
X574494Y115466D01*
X574454Y115572D01*
X574409Y115676D01*
X574361Y115779D01*
X574310Y115880D01*
X574255Y115979D01*
X574197Y116076D01*
X574135Y116171D01*
X574070Y116264D01*
X574002Y116354D01*
X573931Y116442D01*
X573856Y116528D01*
X573779Y116611D01*
X573699Y116691D01*
X573616Y116768D01*
X573530Y116843D01*
X573442Y116914D01*
X573352Y116982D01*
X573259Y117047D01*
X573164Y117109D01*
X573067Y117167D01*
X572968Y117222D01*
X572867Y117273D01*
X572764Y117321D01*
X572660Y117366D01*
X572554Y117406D01*
X572447Y117443D01*
X572339Y117476D01*
X572229Y117506D01*
X572119Y117531D01*
X572008Y117553D01*
X571896Y117570D01*
X571783Y117584D01*
X571670Y117594D01*
X571557Y117600D01*
X571444Y117602D01*
X571331Y117600D01*
X571218Y117594D01*
X571105Y117584D01*
X570992Y117570D01*
X570880Y117553D01*
X570769Y117531D01*
X570659Y117506D01*
X570549Y117476D01*
X570441Y117443D01*
X570334Y117406D01*
X570228Y117366D01*
X570124Y117321D01*
X570021Y117273D01*
X569920Y117222D01*
X569821Y117167D01*
X569724Y117109D01*
X569629Y117047D01*
X569536Y116982D01*
X569446Y116914D01*
X569358Y116843D01*
X569272Y116768D01*
X569189Y116691D01*
X569109Y116611D01*
X569032Y116528D01*
X568957Y116442D01*
X568886Y116354D01*
X568818Y116264D01*
X568753Y116171D01*
X568691Y116076D01*
X568633Y115979D01*
X568578Y115880D01*
X568527Y115779D01*
X568479Y115676D01*
X568434Y115572D01*
X568394Y115466D01*
X568357Y115359D01*
X568324Y115251D01*
X568294Y115141D01*
X568269Y115031D01*
X568247Y114920D01*
X568230Y114808D01*
X568216Y114695D01*
X568206Y114582D01*
X568200Y114469D01*
X568198Y114356D01*
X568200Y114243D01*
X568206Y114130D01*
X568216Y114017D01*
X568230Y113904D01*
X568247Y113792D01*
X568269Y113681D01*
X568294Y113571D01*
X568324Y113461D01*
X568357Y113353D01*
X568394Y113246D01*
X568434Y113140D01*
X568479Y113036D01*
X568527Y112933D01*
X568578Y112832D01*
X568633Y112733D01*
X568691Y112636D01*
X568753Y112541D01*
X568818Y112448D01*
X568886Y112358D01*
X568957Y112270D01*
X569032Y112184D01*
X569109Y112101D01*
X569189Y112021D01*
X569272Y111944D01*
X569358Y111869D01*
X569446Y111798D01*
X569536Y111730D01*
X569629Y111665D01*
X569724Y111603D01*
X569821Y111545D01*
X569920Y111490D01*
X570021Y111439D01*
X570124Y111391D01*
X570228Y111346D01*
X570334Y111306D01*
X570441Y111269D01*
X570549Y111236D01*
X570659Y111206D01*
X570769Y111181D01*
X570880Y111159D01*
X570992Y111142D01*
X571105Y111128D01*
X571218Y111118D01*
X571331Y111112D01*
X571444Y111110D01*
X577286Y111760D02*
X577387Y111762D01*
X577487Y111768D01*
X577587Y111778D01*
X577687Y111791D01*
X577786Y111809D01*
X577885Y111830D01*
X577982Y111855D01*
X578079Y111884D01*
X578174Y111917D01*
X578268Y111953D01*
X578360Y111993D01*
X578451Y112036D01*
X578540Y112083D01*
X578627Y112133D01*
X578713Y112187D01*
X578796Y112244D01*
X578876Y112304D01*
X578955Y112367D01*
X579031Y112434D01*
X579104Y112503D01*
X579174Y112575D01*
X579242Y112649D01*
X579307Y112726D01*
X579368Y112806D01*
X579427Y112888D01*
X579482Y112972D01*
X579534Y113058D01*
X579583Y113146D01*
X579628Y113236D01*
X579670Y113328D01*
X579708Y113421D01*
X579742Y113516D01*
X579773Y113611D01*
X579800Y113708D01*
X579823Y113806D01*
X579843Y113905D01*
X579858Y114005D01*
X579870Y114105D01*
X579878Y114205D01*
X579882Y114306D01*
X579882Y114406D01*
X579878Y114507D01*
X579870Y114607D01*
X579858Y114707D01*
X579843Y114807D01*
X579823Y114906D01*
X579800Y115004D01*
X579773Y115101D01*
X579742Y115196D01*
X579708Y115291D01*
X579670Y115384D01*
X579628Y115476D01*
X579583Y115566D01*
X579534Y115654D01*
X579482Y115740D01*
X579427Y115824D01*
X579368Y115906D01*
X579307Y115986D01*
X579242Y116063D01*
X579174Y116137D01*
X579104Y116209D01*
X579031Y116278D01*
X578955Y116345D01*
X578876Y116408D01*
X578796Y116468D01*
X578713Y116525D01*
X578627Y116579D01*
X578540Y116629D01*
X578451Y116676D01*
X578360Y116719D01*
X578268Y116759D01*
X578174Y116795D01*
X578079Y116828D01*
X577982Y116857D01*
X577885Y116882D01*
X577786Y116903D01*
X577687Y116921D01*
X577587Y116934D01*
X577487Y116944D01*
X577387Y116950D01*
X577286Y116952D01*
X577185Y116950D01*
X577085Y116944D01*
X576985Y116934D01*
X576885Y116921D01*
X576786Y116903D01*
X576687Y116882D01*
X576590Y116857D01*
X576493Y116828D01*
X576398Y116795D01*
X576304Y116759D01*
X576212Y116719D01*
X576121Y116676D01*
X576032Y116629D01*
X575945Y116579D01*
X575859Y116525D01*
X575776Y116468D01*
X575696Y116408D01*
X575617Y116345D01*
X575541Y116278D01*
X575468Y116209D01*
X575398Y116137D01*
X575330Y116063D01*
X575265Y115986D01*
X575204Y115906D01*
X575145Y115824D01*
X575090Y115740D01*
X575038Y115654D01*
X574989Y115566D01*
X574944Y115476D01*
X574902Y115384D01*
X574864Y115291D01*
X574830Y115196D01*
X574799Y115101D01*
X574772Y115004D01*
X574749Y114906D01*
X574729Y114807D01*
X574714Y114707D01*
X574702Y114607D01*
X574694Y114507D01*
X574690Y114406D01*
X574690Y114306D01*
X574694Y114205D01*
X574702Y114105D01*
X574714Y114005D01*
X574729Y113905D01*
X574749Y113806D01*
X574772Y113708D01*
X574799Y113611D01*
X574830Y113516D01*
X574864Y113421D01*
X574902Y113328D01*
X574944Y113236D01*
X574989Y113146D01*
X575038Y113058D01*
X575090Y112972D01*
X575145Y112888D01*
X575204Y112806D01*
X575265Y112726D01*
X575330Y112649D01*
X575398Y112575D01*
X575468Y112503D01*
X575541Y112434D01*
X575617Y112367D01*
X575696Y112304D01*
X575776Y112244D01*
X575859Y112187D01*
X575945Y112133D01*
X576032Y112083D01*
X576121Y112036D01*
X576212Y111993D01*
X576304Y111953D01*
X576398Y111917D01*
X576493Y111884D01*
X576590Y111855D01*
X576687Y111830D01*
X576786Y111809D01*
X576885Y111791D01*
X576985Y111778D01*
X577085Y111768D01*
X577185Y111762D01*
X577286Y111760D01*
M02*
