G04 EAGLE Gerber X2 export*
%TF.Part,Single*%
%TF.FileFunction,Paste,Bot*%
%TF.FilePolarity,Positive*%
%TF.GenerationSoftware,Autodesk,EAGLE,8.6.3*%
%TF.CreationDate,2019-03-08T23:17:09Z*%
G75*
%MOMM*%
%FSLAX34Y34*%
%LPD*%
%AMOC8*
5,1,8,0,0,1.08239X$1,22.5*%
G01*
%ADD10R,6.200000X5.400000*%
%ADD11R,1.600000X1.000000*%
%ADD12R,1.000000X1.100000*%
%ADD13R,1.500000X1.300000*%
%ADD14R,1.100000X1.000000*%


D10*
X472040Y175260D03*
D11*
X399040Y152460D03*
X399040Y198060D03*
D12*
X205740Y65160D03*
X205740Y82160D03*
X281940Y65160D03*
X281940Y82160D03*
X256540Y65160D03*
X256540Y82160D03*
X523240Y242960D03*
X523240Y259960D03*
X497840Y242960D03*
X497840Y259960D03*
X472440Y242960D03*
X472440Y259960D03*
X447040Y242960D03*
X447040Y259960D03*
X285750Y272660D03*
X285750Y255660D03*
X309880Y272660D03*
X309880Y255660D03*
D13*
X332740Y273660D03*
X332740Y254660D03*
D12*
X261620Y271390D03*
X261620Y254390D03*
X180340Y65160D03*
X180340Y82160D03*
D13*
X355600Y254660D03*
X355600Y273660D03*
D12*
X332740Y65160D03*
X332740Y82160D03*
X307340Y65160D03*
X307340Y82160D03*
X214240Y264160D03*
X197240Y264160D03*
X159140Y264160D03*
X176140Y264160D03*
D14*
X497840Y82160D03*
X497840Y65160D03*
X523240Y82160D03*
X523240Y65160D03*
X548640Y82160D03*
X548640Y65160D03*
X574040Y82160D03*
X574040Y65160D03*
M02*
